<mxfile host="app.diagrams.net" agent="Mozilla/5.0 (Windows NT 10.0; Win64; x64) AppleWebKit/537.36 (KHTML, like Gecko) Chrome/134.0.0.0 Safari/537.36" version="26.1.1">
  <diagram name="Page-1" id="bb7UDlCSWx3MUddMC8TY">
    <mxGraphModel dx="2234" dy="1188" grid="0" gridSize="10" guides="1" tooltips="1" connect="1" arrows="1" fold="1" page="0" pageScale="1" pageWidth="827" pageHeight="1169" math="0" shadow="0">
      <root>
        <mxCell id="0" />
        <mxCell id="1" parent="0" />
        <mxCell id="9kiI-FGZhQjWvuLCRh8d-131" value="" style="rounded=0;whiteSpace=wrap;html=1;strokeWidth=1;movable=1;resizable=1;rotatable=1;deletable=1;editable=1;locked=0;connectable=1;" vertex="1" parent="1">
          <mxGeometry x="110" y="-93" width="179" height="246" as="geometry" />
        </mxCell>
        <mxCell id="9kiI-FGZhQjWvuLCRh8d-132" value="" style="edgeStyle=none;html=1;" edge="1" parent="1">
          <mxGeometry relative="1" as="geometry">
            <mxPoint x="-619" y="72" as="sourcePoint" />
            <mxPoint x="-506" y="-32" as="targetPoint" />
            <Array as="points" />
          </mxGeometry>
        </mxCell>
        <mxCell id="9kiI-FGZhQjWvuLCRh8d-133" value="" style="edgeStyle=none;html=1;entryX=0;entryY=0.5;entryDx=0;entryDy=0;exitX=1.126;exitY=0.5;exitDx=0;exitDy=0;exitPerimeter=0;" edge="1" parent="1">
          <mxGeometry relative="1" as="geometry">
            <mxPoint x="-614" y="89.03999999999999" as="sourcePoint" />
            <mxPoint x="-497.5" y="89.00000000000003" as="targetPoint" />
          </mxGeometry>
        </mxCell>
        <mxCell id="9kiI-FGZhQjWvuLCRh8d-134" value="" style="edgeStyle=none;curved=1;rounded=0;orthogonalLoop=1;jettySize=auto;html=1;fontSize=12;startSize=8;endSize=8;exitX=1;exitY=0.5;exitDx=0;exitDy=0;exitPerimeter=0;" edge="1" parent="1" source="9kiI-FGZhQjWvuLCRh8d-136">
          <mxGeometry relative="1" as="geometry">
            <mxPoint x="116" y="-7" as="targetPoint" />
          </mxGeometry>
        </mxCell>
        <mxCell id="9kiI-FGZhQjWvuLCRh8d-135" value="" style="edgeStyle=none;curved=1;rounded=0;orthogonalLoop=1;jettySize=auto;html=1;fontSize=12;startSize=8;endSize=8;entryX=0.526;entryY=0;entryDx=0;entryDy=0;entryPerimeter=0;" edge="1" parent="1" source="9kiI-FGZhQjWvuLCRh8d-136" target="9kiI-FGZhQjWvuLCRh8d-141">
          <mxGeometry relative="1" as="geometry" />
        </mxCell>
        <mxCell id="9kiI-FGZhQjWvuLCRh8d-136" value="API Handler Lambda" style="sketch=0;points=[[0,0,0],[0.25,0,0],[0.5,0,0],[0.75,0,0],[1,0,0],[0,1,0],[0.25,1,0],[0.5,1,0],[0.75,1,0],[1,1,0],[0,0.25,0],[0,0.5,0],[0,0.75,0],[1,0.25,0],[1,0.5,0],[1,0.75,0]];outlineConnect=0;fontColor=#232F3E;fillColor=#ED7100;strokeColor=#ffffff;dashed=0;verticalLabelPosition=bottom;verticalAlign=top;align=center;html=1;fontSize=12;fontStyle=0;aspect=fixed;shape=mxgraph.aws4.resourceIcon;resIcon=mxgraph.aws4.lambda;" vertex="1" parent="1">
          <mxGeometry x="-117.36000000000001" y="-46" width="78" height="78" as="geometry" />
        </mxCell>
        <mxCell id="9kiI-FGZhQjWvuLCRh8d-137" value="" style="edgeStyle=none;curved=1;rounded=0;orthogonalLoop=1;jettySize=auto;html=1;fontSize=12;startSize=8;endSize=8;entryX=1;entryY=0.75;entryDx=0;entryDy=0;entryPerimeter=0;exitX=0;exitY=0.5;exitDx=0;exitDy=0;exitPerimeter=0;" edge="1" parent="1" source="9kiI-FGZhQjWvuLCRh8d-139">
          <mxGeometry relative="1" as="geometry">
            <mxPoint x="-417.36" y="115.5" as="targetPoint" />
          </mxGeometry>
        </mxCell>
        <mxCell id="9kiI-FGZhQjWvuLCRh8d-138" value="" style="edgeStyle=none;curved=1;rounded=0;orthogonalLoop=1;jettySize=auto;html=1;fontSize=12;startSize=8;endSize=8;entryX=-0.011;entryY=0.622;entryDx=0;entryDy=0;exitX=1;exitY=0.5;exitDx=0;exitDy=0;exitPerimeter=0;entryPerimeter=0;" edge="1" parent="1" source="9kiI-FGZhQjWvuLCRh8d-139" target="9kiI-FGZhQjWvuLCRh8d-131">
          <mxGeometry relative="1" as="geometry">
            <mxPoint x="209.14" y="180.5" as="targetPoint" />
          </mxGeometry>
        </mxCell>
        <mxCell id="9kiI-FGZhQjWvuLCRh8d-139" value="Reminder Handler Lambda" style="sketch=0;points=[[0,0,0],[0.25,0,0],[0.5,0,0],[0.75,0,0],[1,0,0],[0,1,0],[0.25,1,0],[0.5,1,0],[0.75,1,0],[1,1,0],[0,0.25,0],[0,0.5,0],[0,0.75,0],[1,0.25,0],[1,0.5,0],[1,0.75,0]];outlineConnect=0;fontColor=#232F3E;fillColor=#ED7100;strokeColor=#ffffff;dashed=0;verticalLabelPosition=bottom;verticalAlign=top;align=center;html=1;fontSize=12;fontStyle=0;aspect=fixed;shape=mxgraph.aws4.resourceIcon;resIcon=mxgraph.aws4.lambda;" vertex="1" parent="1">
          <mxGeometry x="-117.36000000000001" y="242" width="78" height="78" as="geometry" />
        </mxCell>
        <mxCell id="9kiI-FGZhQjWvuLCRh8d-140" value="" style="edgeStyle=none;curved=1;rounded=0;orthogonalLoop=1;jettySize=auto;html=1;fontSize=12;startSize=8;endSize=8;entryX=0.5;entryY=0;entryDx=0;entryDy=0;entryPerimeter=0;" edge="1" parent="1" source="9kiI-FGZhQjWvuLCRh8d-141" target="9kiI-FGZhQjWvuLCRh8d-139">
          <mxGeometry relative="1" as="geometry" />
        </mxCell>
        <mxCell id="9kiI-FGZhQjWvuLCRh8d-141" value="EventBridge Scheduler" style="sketch=0;points=[[0,0,0],[0.25,0,0],[0.5,0,0],[0.75,0,0],[1,0,0],[0,1,0],[0.25,1,0],[0.5,1,0],[0.75,1,0],[1,1,0],[0,0.25,0],[0,0.5,0],[0,0.75,0],[1,0.25,0],[1,0.5,0],[1,0.75,0]];outlineConnect=0;fontColor=#232F3E;fillColor=#B0084D;strokeColor=#ffffff;dashed=0;verticalLabelPosition=bottom;verticalAlign=top;align=center;html=1;fontSize=12;fontStyle=0;aspect=fixed;shape=mxgraph.aws4.resourceIcon;resIcon=mxgraph.aws4.eventbridge;" vertex="1" parent="1">
          <mxGeometry x="-117.36000000000001" y="78" width="78" height="78" as="geometry" />
        </mxCell>
        <mxCell id="9kiI-FGZhQjWvuLCRh8d-142" value="" style="endArrow=classic;html=1;rounded=0;exitX=1;exitY=0.5;exitDx=0;exitDy=0;exitPerimeter=0;entryX=0;entryY=0.75;entryDx=0;entryDy=0;entryPerimeter=0;" edge="1" parent="1">
          <mxGeometry width="50" height="50" relative="1" as="geometry">
            <mxPoint x="-417.36" y="96" as="sourcePoint" />
            <mxPoint x="-297.3600000000001" y="12.499999999999773" as="targetPoint" />
          </mxGeometry>
        </mxCell>
        <mxCell id="9kiI-FGZhQjWvuLCRh8d-143" value="LINE Webhook" style="edgeLabel;html=1;align=center;verticalAlign=middle;resizable=0;points=[];" vertex="1" connectable="0" parent="9kiI-FGZhQjWvuLCRh8d-142">
          <mxGeometry x="-0.2" y="1" relative="1" as="geometry">
            <mxPoint x="14" y="1" as="offset" />
          </mxGeometry>
        </mxCell>
        <mxCell id="9kiI-FGZhQjWvuLCRh8d-144" value="" style="endArrow=classic;html=1;rounded=0;exitX=1;exitY=0.5;exitDx=0;exitDy=0;entryX=0;entryY=0.25;entryDx=0;entryDy=0;entryPerimeter=0;" edge="1" parent="1" source="9kiI-FGZhQjWvuLCRh8d-159">
          <mxGeometry width="50" height="50" relative="1" as="geometry">
            <mxPoint x="-417.36" y="-50" as="sourcePoint" />
            <mxPoint x="-297.3600000000001" y="-26.5" as="targetPoint" />
          </mxGeometry>
        </mxCell>
        <mxCell id="9kiI-FGZhQjWvuLCRh8d-145" value="Add Medication API" style="edgeLabel;html=1;align=center;verticalAlign=middle;resizable=0;points=[];" vertex="1" connectable="0" parent="9kiI-FGZhQjWvuLCRh8d-144">
          <mxGeometry x="-0.2" y="1" relative="1" as="geometry">
            <mxPoint x="14" y="1" as="offset" />
          </mxGeometry>
        </mxCell>
        <mxCell id="9kiI-FGZhQjWvuLCRh8d-146" value="" style="endArrow=classic;html=1;rounded=0;exitX=1;exitY=0.5;exitDx=0;exitDy=0;exitPerimeter=0;entryX=0;entryY=0.5;entryDx=0;entryDy=0;entryPerimeter=0;" edge="1" parent="1" target="9kiI-FGZhQjWvuLCRh8d-136">
          <mxGeometry width="50" height="50" relative="1" as="geometry">
            <mxPoint x="-219.36000000000013" y="-7" as="sourcePoint" />
            <mxPoint x="-47.360000000000014" y="124" as="targetPoint" />
          </mxGeometry>
        </mxCell>
        <mxCell id="9kiI-FGZhQjWvuLCRh8d-147" style="edgeStyle=none;curved=1;rounded=0;orthogonalLoop=1;jettySize=auto;html=1;entryX=0;entryY=0.75;entryDx=0;entryDy=0;entryPerimeter=0;fontSize=12;startSize=8;endSize=8;" edge="1" parent="1">
          <mxGeometry relative="1" as="geometry">
            <mxPoint x="-297.36" y="13" as="sourcePoint" />
            <mxPoint x="-297.3600000000001" y="12.499999999999773" as="targetPoint" />
          </mxGeometry>
        </mxCell>
        <mxCell id="9kiI-FGZhQjWvuLCRh8d-148" value="" style="group" vertex="1" connectable="0" parent="1">
          <mxGeometry x="114" y="-90" width="179" height="246" as="geometry" />
        </mxCell>
        <mxCell id="9kiI-FGZhQjWvuLCRh8d-149" value="Medications Table" style="sketch=0;points=[[0,0,0],[0.25,0,0],[0.5,0,0],[0.75,0,0],[1,0,0],[0,1,0],[0.25,1,0],[0.5,1,0],[0.75,1,0],[1,1,0],[0,0.25,0],[0,0.5,0],[0,0.75,0],[1,0.25,0],[1,0.5,0],[1,0.75,0]];outlineConnect=0;fontColor=#232F3E;fillColor=#C925D1;strokeColor=#ffffff;dashed=0;verticalLabelPosition=bottom;verticalAlign=top;align=center;html=1;fontSize=12;fontStyle=0;aspect=fixed;shape=mxgraph.aws4.resourceIcon;resIcon=mxgraph.aws4.dynamodb;movable=0;resizable=0;rotatable=0;deletable=0;editable=0;locked=1;connectable=0;" vertex="1" parent="9kiI-FGZhQjWvuLCRh8d-148">
          <mxGeometry x="46" y="13" width="78" height="78" as="geometry" />
        </mxCell>
        <mxCell id="9kiI-FGZhQjWvuLCRh8d-150" value="MedicationHistory Table" style="sketch=0;points=[[0,0,0],[0.25,0,0],[0.5,0,0],[0.75,0,0],[1,0,0],[0,1,0],[0.25,1,0],[0.5,1,0],[0.75,1,0],[1,1,0],[0,0.25,0],[0,0.5,0],[0,0.75,0],[1,0.25,0],[1,0.5,0],[1,0.75,0]];outlineConnect=0;fontColor=#232F3E;fillColor=#C925D1;strokeColor=#ffffff;dashed=0;verticalLabelPosition=bottom;verticalAlign=top;align=center;html=1;fontSize=12;fontStyle=0;aspect=fixed;shape=mxgraph.aws4.resourceIcon;resIcon=mxgraph.aws4.dynamodb;movable=0;resizable=0;rotatable=0;deletable=0;editable=0;locked=1;connectable=0;" vertex="1" parent="9kiI-FGZhQjWvuLCRh8d-148">
          <mxGeometry x="49" y="128" width="78" height="78" as="geometry" />
        </mxCell>
        <mxCell id="9kiI-FGZhQjWvuLCRh8d-151" value="&lt;div&gt;&lt;span style=&quot;background-color: light-dark(rgb(251, 251, 251), rgb(21, 21, 21));&quot;&gt;API Gateway&lt;/span&gt;&lt;/div&gt;" style="sketch=0;points=[[0,0,0],[0.25,0,0],[0.5,0,0],[0.75,0,0],[1,0,0],[0,1,0],[0.25,1,0],[0.5,1,0],[0.75,1,0],[1,1,0],[0,0.25,0],[0,0.5,0],[0,0.75,0],[1,0.25,0],[1,0.5,0],[1,0.75,0]];outlineConnect=0;fontColor=#232F3E;fillColor=#E7157B;strokeColor=#ffffff;dashed=0;verticalLabelPosition=bottom;verticalAlign=top;align=center;html=1;fontSize=12;fontStyle=0;aspect=fixed;shape=mxgraph.aws4.resourceIcon;resIcon=mxgraph.aws4.api_gateway;" vertex="1" parent="1">
          <mxGeometry x="-292" y="-46" width="78" height="78" as="geometry" />
        </mxCell>
        <mxCell id="9kiI-FGZhQjWvuLCRh8d-152" value="&lt;div&gt;&lt;span style=&quot;background-color: light-dark(rgb(251, 251, 251), rgb(21, 21, 21));&quot;&gt;Parameter Store&lt;/span&gt;&lt;/div&gt;&lt;div&gt;&lt;span style=&quot;background-color: light-dark(rgb(251, 251, 251), rgb(21, 21, 21));&quot;&gt;&lt;br&gt;&lt;/span&gt;&lt;/div&gt;" style="sketch=0;outlineConnect=0;fontColor=#232F3E;gradientColor=none;fillColor=#E7157B;strokeColor=none;dashed=0;verticalLabelPosition=bottom;verticalAlign=top;align=center;html=1;fontSize=12;fontStyle=0;aspect=fixed;pointerEvents=1;shape=mxgraph.aws4.parameter_store;" vertex="1" parent="1">
          <mxGeometry x="174" y="235" width="75" height="78" as="geometry" />
        </mxCell>
        <mxCell id="9kiI-FGZhQjWvuLCRh8d-157" value="" style="edgeStyle=none;curved=1;rounded=0;orthogonalLoop=1;jettySize=auto;html=1;fontSize=12;startSize=8;endSize=8;strokeWidth=1;" edge="1" parent="1">
          <mxGeometry relative="1" as="geometry">
            <mxPoint x="-499.36" y="109.07" as="sourcePoint" />
            <mxPoint x="-623.9963636363635" y="109.00396748946429" as="targetPoint" />
          </mxGeometry>
        </mxCell>
        <mxCell id="9kiI-FGZhQjWvuLCRh8d-154" value="" style="shape=image;verticalLabelPosition=bottom;labelBackgroundColor=default;verticalAlign=top;aspect=fixed;imageAspect=0;image=data:image/png,iVBORw0KGgoAAAANSUhEUgAAA+kAAAPoCAYAAACiYb/aAAAAAXNSR0IArs4c6QAAIABJREFUeAHs3b+LHEf6x3En2nPoyPElzi9R/g38ByjQLBcKnDk6EMoFzpwcGBwvOHRiHDheHJx2scE2AgUGgxYcGBRYGGxQYNgvj+zR/pqZnenp7nqq6tVw59X+6Ol+17urnk//qH7rLQsCCGxN4O2Tf//z7ZP7/xf/+8eT+/85ODl8HP+7c3r43zsni+PL/zs4Xbw8OFmc+x8GHOAABzjAAQ606MDluie+PjhZHC1ro6iTljXTnf8t/rV1seUXEUAAAQQQeEPg+N47MZgcPDm8dz14tziw2icFIwc4wAEOcIADsztwuvj+cqC/c7J48FeY//c/39RkvkAAAQQQ6ItADAQxILw+03u6+OLvgcIVb1f9OcABDnCAAxzgQGkH3oT4w8fLAP/W8b13+qpW7S0CCCDQKIG4Nf3NVfG/bsF6PvvZ4tIDnc9XbHGAAxzgAAc40IYDz/+6sPJXeHcLfaMFvN1CAIF2CEQgj7Oty2fDhXG373GAAxzgAAc4wIH2HYjg/nf990Bwb6e2tycIIFAhgdfPjsekbaeLL0zQ1v4ArMjSxhzgAAc4wAEObOXA6eLl8op71Itula+w0LfJCCBQB4FlKPf8uAF6qwG6jdv63J6pHTnAAQ5wgANjOBDPuZ8e/jcegxTa66j9bSUCCCQkELcrvZ5h/a9nyQ1QYwxQ1sEjDnCAAxzgAAc4cH7wd2h/faU9YR1skxBAAIEUBJbPlLt93ZVyV8o5wAEOcIADHODArA6cLr74673uXgOXIhjYCAQQKEdgebU8zmbO2hE7g+wqAgc4wAEOcIADHODAageev56I7n+Lf5Wrkn0yAgggMCOBCOavnwk6WXgd2uqBwYCJCwc4wAEOcIADHMjgwOni5cHJ4uj1s+wz1ss+CgEEEJicwF/vKl8cmYXdrWvumOAABzjAAQ5wgANVOiCwT54ZfAACCExMwBVzA3CVA3CGs/a2wdUjDnCAAxzgQG4HBPaJk4TVI4DAaARi8reYkf3Arey5BxYDv/bhAAc4wAEOcIADYzngGfbR0oQVIYDAOASO771z52TxwPvLXTl35ZwDHOAABzjAAQ507cDp4vuYJd672MeJGdaCAAI7EvhrZnbPmXc9EDkDP9YZeOvhEgc4wAEOcKA9B468h33HgOHXEUBgAIG/r5p7ZZqz5E5OcIADHOAABzjAAQ5s5cBzV9cH5A5/ggACmwnEs+avX5v21yQZzvS2d6ZXm2pTDnCAAxzgAAc4ML0DR3E36ubK208RQACBDQTiFp2D08UXzpJudZbUwDb9wIYxxhzgAAc4wAEOVO9AzOUUczptKMP9CAEEELhKIDoNM7QL5k7OcIADHOAABzjAAQ5M6oBb4a/GEP9CAIErBI7vvfP69Wluaa/+7KzBdNLBlB+u4HCAAxzgAAc4MK4Dr+vvw8fxiOmV+tw/EECgUwLC+bidrEELTw5wgAMc4AAHOMCB4Q4cCeud5jK7jUAc/AcniyNXXV115QAHOMABDnCAAxzgQDoHhHWRDYFeCAjn6TpgZ5qHn2nGDjsOcIADHOAAB1p3QFjvJajZz/4ICOfCuTPkHOAABzjAAQ5wgAPVOiCs9xfh7HGzBJbPnDvL2vpZVvvHcQ5wgAMc4AAHONC+A8J6s8HNjrVPYBnOzdZusGp/sNLG2pgDHOAABzjAga4cuHN6+N+3ju+9036osYcINELg9XvOhfOuOmq3rlV76xpPFZUc4AAHOMABDgxz4O9XtwnrjYQ4u9EmgbdP7v/fwcniucAmsHGAAxzgAAc4wAEOcKAbB57HRbo2E469QqBSAjEp3J2TxbGOuJuOeNjZVmepceMABzjAAQ5wgAPtOnC6+D4u2lUaaWw2Ao0QOL73TjyPIpwL5xzgAAc4wAEOcIADHODAawdOF1/ERbxGEo/dQKAeAp471wkbiDnAAQ5wgAMc4AAHOLDSgeXz6vXEG1uKQL0E7vxv8S+3tuuMV3bGbl9r9/Y1battOcABDnCAAxwY5sBzt8DXm/1seXYCbm3XMQ/rmHHDjQMc4AAHOMABDvTuwOniC7PAZw98tq8qAgdPDu8deKWawaX3wcX+OwY4wAEOcIADHODAcAdOFy//8eT+f6oKQjYWgXQEju+9c3C6+MKtzW5v5wAHOMABDnCAAxzgAAfGcCAenY1HaNNlHxuEQHYCcZbL1XMd8RgdsXXwiAMc4AAHOMABDnDgpgOHj7NnItuHQAoC3nmuA73ZgWKCCQc4wAEOcIADHODABA6cLr53VT1FDLQRWQm4ej5Bx+O5peHPLWGHHQc4wAEOcIADHOjEAVfVs2ZE21WKgGfPO+n8nIRwBpwDHOAABzjAAQ5wIKkDrqqXSoM+NxsBM7cn7aScNXbihAMc4AAHOMABDnCgNwfMAJ8tLtqeWQnE1fOTxZEziUI6BzjAAQ5wgAMc4AAHOJDJgZgB3nvVZ02HPqw0gZic4eBk8TzTgWhbDAwc4AAHOMABDnCAAxzgwBsHThcv467f0tnJ5yMwOYHXk8P1dtuM/XWrGAc4wAEOcIADHOAAB6p04M7p4X8nD0k+AIEiBEwOV2Wn9OZMokFF+3GAAxzgAAc4wAEO9OrA6eL7eFV0kRzlQxGYgoDb2902JOxzgAMc4AAHOMABDnCgagfc/j5FVLTOEgTc3q4zrroz7vVssf12pYQDHOAABzjAAQ6sdMDt7yVSpc8ch4DZ21ce1AKrkxYc4AAHOMABDnCAAxyo3IHTxfdmfx8nNlrLTARe395+uvhe51N55+PsqRMtHOAABzjAAQ5wgAMcWO3A6eJl5J6ZIpaPQWA4gXhNwUE8r+FgXn0w44ILBzjAAQ5wgAMc4AAHmnHgzsniwfD05C8RmJjAwcnhY+Hc1XMOcIADHOAABzjAAQ5woDMHjiaOWlaPwI4EPH/ezJnAzjpT7eYsPgc4wAEOcIADHODAOA54Tn3HEOnXpyPw1/vPPX+ucxunc8MRRw5wgAMc4AAHOMCBeh147jn16aKnNW9B4O8J4jx/Xm8nYgDQdhzgAAc4wAEOcIADHBjTgdPFy7dP7v/fFnHKryAwLgETxHnOyK3xHOAABzjAAQ5wgAMc4MBqB0woN27+tLZbCIRwDsbVByMuuHCAAxzgAAc4wAEOcIAD4cCd08P/3hKt/BiB/QmEaDodnQ4HOMABDnCAAxzgAAc4wIGtHDDz+/4x1BrWETg4WRw5ELc6ED3XM+ZzPdbFJw5wgAMc4AAHOMCBmh0w8/u6iOn7gwn8NYP7FwK6gM4BDnCAAxzgAAc4wAEOcGCAA4L64DjqD68T8Io1Zy1rPmtp2/nLAQ5wgAMc4AAHOJDFgdPF917Rdj1w+vduBAR0HVqWDs12cJEDHOAABzjAAQ5woAUHThcvBfXdYqnf/pvA3+9A/96tLANuZWmh87APBkEOcIADHOAABzjAAQ5M44CgLnfvSuDvgP5SQBfQOcABDnCAAxzgAAc4wAEOTOCAoL5rTO339wX0CQ5AZyCnOQOJK64c4AAHOMABDnCAAzU7IKj3G7y33XMBXUB3lpQDHOAABzjAAQ5wgAMcmNGB08XLgyeH97bNbH6vIwIC+owHYs1n+2y7s9Uc4AAHOMABDnCAAxwY3YE7J4sHHcVPu3obAQFdQHe2lAMc4AAHOMABDnCAAxwo64Cgflty7eTnAnrZA1FHiD8HOMABDnCAAxzgAAc4sHTg7ZP7/9dJFLWbqwgI6DqDZWfgv1zgAAc4wAEOcIADHOBAAgdMJrcquvbxPQE9wQHoWZ7Rn+UxsPCaAxzgAAc4wAEOcKB6BwT1PkL5lb08vvfOwcniefXyCrlCLgc4wAEOcIADHOAABzjQogOC+pUI2/Y/IqCfLr4X0J1h5AAHOMABDnCAAxzgAAc4kNgBQb3tbP567wR0ZxlbPMton3jNAQ5wgAMc4AAHONCqA6eLl28d33ung7Ta5y66gp74LFmrnYr9MmBygAMc4AAHOMABDnBgPwdOF98L6g1m+IOTxZFbWYR0DnCAAxzgAAc4wAEOcIADFTogqLeV0gX0Cg9CZxv3O9uIH34c4AAHOMABDnCAA605cLr4oq2k2une/OPJ/f84Uyakc4ADHOAABzjAAQ5wgAMcaMKBo06jbRu7fedk8cCB2MSB6Cxoa2dB7Q+nOcABDnCAAxzgAAcGOhAXYttIrJ3txZ3/Lf4loAvoHOAABzjAAQ5wgAMc4AAH2nMgLsh2FnHr3t23T/79z4PTxUsHY3sHozbVphzgAAc4wAEOcIADHOBAOBAXZutOrr1svXehu21m4G0zOnudPQc4wAEOcIADHOAABypy4HTxMi7Q9hJ1q93POyeLYwdWRQeWQO2kCgc4wAEOcIADHOAABzgw1AGvZsud3e+cHv5XQBfQOcABDnCAAxzgAAc4wAEOdOSAV7PlDOpmcu/oIBx6ls3fOUPLAQ5wgAMc4AAHOMCBRh04fJwzqXa6Va9ncjdRXKMHm5MPzgJzgAMc4AAHOMABDnCAA1s48OTwXqeRONlux0RxJ4vnpN1CWmcNncjgAAc4wAEOcIADHOAAB1p14HTx0ozvCfK6ieKEcydoOMABDnCAAxzgAAc4wAEOvHbARHJlU7qJ4hyIOmMOcIADHOAABzjAAQ5wgANXHDCRXJmgfvDk8N6Vhmj1lg375XYkDnCAAxzgAAc4wAEOcIADOznwjyf3/1MmqXb6qfHC+gMTxe0kqRMazi5ygAMc4AAHOMABDnCAAz054Pn0GU8YHJwuvu9JLvuqM+UABzjAAQ5wgAMc4AAHOLCzA8/fOr73zoxRtc+P8hz6zmK64u7WIA5wgAMc4AAHOMABDnCgTwc8nz7tiQPPoQvozh5ygAMc4AAHOMABDnCAAxzYxQHPp0+V0+N96J5D7/Psl7Oe2p0DHOAABzjAAQ5wgAMc2MMBz6dPENS9D93Zsl3OlvldvnCAAxzgAAc4wAEOcIADbxzw/vRxU3rcnvAG7h5nT6zDQcoBDnCAAxzgAAc4wAEOcKBPB2J+s3GTaqdri9sSHER9HkTaXbtzgAMc4AAHOMABDnCAA6M68OTwXqfRerzd9ro1B+WoB6U7MTzLxAEOcIADHOAABzjAgX4dOF289Fq2PfL6wcnhYwFNSOcABzjAAQ5wgAMc4AAHOMCB0RzwWrZhKd1t7g7C0Q5CZ0r7PVOq7bU9BzjAAQ5wgAMc4MAqB9z2vmNQj9etnSyeC2mCOgc4wAEOcIADHOAABzjAAQ6M7oDb3ncL6W5zdxCOfhCuOnvme86qcoADHOAABzjAAQ5woF8H3Pa+XVB3m7uALqBzgAMc4AAHOMABDnCAAxyYxQG3vd8e1M3m7mCc5WB0xrTfM6baXttzgAMc4AAHOMABDiwdcNv75pDuNncBXUDnAAc4wAEOcIADHOAABzgwswNHm5Nqpz99++Tf/5y5IZw9Wp498l8ucIADHOAABzjAAQ5wgAMdO/D2yf3/6zSKr9/tOyeLYyHdGTMOcIADHOAABzjAAQ5wgAMcKODA8/VptcOf3DlZPCjQCM6UdXymjG86fg5wgAMc4AAHOMABDnDgqgOHjzuM4yt2Od6Jfrp4eRUOWfDgAAc4wAEOcIADHOAABzjAgXkdiMewV6TWvr515/Twv8SbVzy88eYABzjAAQ5wgAMc4AAHOHDTgXgMu69Efm1vvRP9phQOFEw4wAEOcIADHOAABzjAAQ4UdKDnd6ebLK6geJ5HNycBBzjAAQ5wgAMc4AAHOMCBVQ70OYncwZPDe84OCekc4AAHOMABDnCAAxzgAAc4kM+B3iaRi8niThbP8zWEg0ObcIADHOAABzjAAQ5wgAMc6N6B08XLriaROzg5fNx9o7utZNVtJb7HCw5wgAMc4AAHOMABDnAgiwNH16ZVa/SfXrmWRTjbofPjAAc4wAEOcIADHOAABziwwYGY7LzRZH6xWwcniyNX0d0+wwEOcIADHOAABzjAAQ5wgAPZHWj+lWxxT3/2RrB9OgoOcIADHOAABzjAAQ5wgAMcWDrw9sn9/7u47NzYV165RvSl6P7LBQ5wgAMc4AAHOMABDnCgEgfafCVbnH2opAE8k7HhmQxtqCPlAAc4wAEOcIADHOAAB3pz4M7J4kFj19DfestVdAdybwey/eU8BzjAAQ5wgAMc4AAHmnGgravprqI3I6a7DNxlwAEOcIADHOAABzjAAQ506UBTV9NdRRfSnUHkAAc4wAEOcIADHOAABzhQtQOni5dvHd97p/rb3l1FdyBWfSA6S9rlWVLO6rc4wAEOcIADHOAAB1Y7cPi4+pDuKjq5V8uNCy4c4AAHOMABDnCAAxzgQGUO1H413VX0yoRz1dhVYw5wgAMc4AAHOMABDnCAA7c4UPHVdFfRhXRnBjnAAQ5wgAMc4AAHOMABDjTlQK1X011FdyA2dSA6m3jL2US+850DHOAABzjAAQ5woB8Hqpzp3VX0fgTVGWlrDnCAAxzgAAc4wAEOcKAzB+p6b7qr6A7Qzg5QV5ndacABDnCAAxzgAAc4wIHOHKjqarqr6EK6kM4BDnCAAxzgAAc4wAEOcKBxB+q4mv72yb//2XhDOEPW2RkyPhtcOMABDnCAAxzgAAc4wIGVDjw5vJf+vekHJ4ujlRsv2An3HOAABzjAAQ5wgAMc4AAHONCQA3EXeeqQ7iq6s0tO0HCAAxzgAAc4wAEOcIADHOjJgZiTLW1QPzg5fNxTY9hXnQ8HOMABDnCAAxzgAAc4wIHuHTjKG9JPFy8J2r2gbt9p6PYdx7PjmQMc4AAHOMABDnCAA7c7EHeVpwvqMf28xru98TDCiAMc4AAHOMABDnCAAxzgQGsOHD5OF9IPThffE6010ewPpznAAQ5wgAMc4AAHOMABDtzqwOniZaqQHg/K37rRbgF2GzgHOMABDnCAAxzgAAc4wAEONOpA3F2eJqh77ZozS07ScIADHOAABzjAAQ5wgAMc6NqB08X3OUL68b13um6IRs8CaVMdLAc4wAEOcIADHOAABzjAgd0cuPO/xb+KB/V/PLn/Hw23W8PhhRcHOMABDnCAAxzgAAc4wIEmHSj/OraDk8VzcjUpl2dl3CXBAQ5wgAMc4AAHOMABDnBgFwdiArnje+8Uu5puwjjh3AkaDnCAAxzgAAc4wAEOcIADHLhwoOgEciaMu2gIUmLBAQ5wgAMc4AAHOMABDnCAA/F68jJX0mPCuNPFSxKSkAMc4AAHOMABDnCAAxzgAAc4cOHA2yf//ufsQT0u4WuEi0bAAgsOcIADHOAABzjAAQ5wgAMcCAfunB7+t0RIPyYgATnAAQ5wgAMc4AAHOMABDnCAAzcceD5rSI9L9xrhRiOY9XCXWQ/9Ll84wAEOcIADHOAABzjAgZYdeHJ4b7ag7t3oArqTNBzgAAc4wAEOcIADHOAABziw0YH53pnu3egbG8LZsJbPhtk3fnOAAxzgAAc4wAEOcIAD2zgQ70yfY7nzv8W/nC0R0jnAAQ5wgAMc4AAHOMABDnCAA5sdmOWd6TFLnYbY3BD44MMBDnCAAxzgAAc4wAEOcIADB6eLLya/mO5Wd6LpbDjAAQ5wgAMc4AAHOMABDnBgOwfeOr73zmRB3a3u2zUCWXHiAAc4wAEOcIADHOAABzjAgXBg0lve3epOMh0NBzjAAQ5wgAMc4AAHOMABDuzgwJS3vLvVfYeG2Ga2P79jVkgOcIADHOAABzjAAQ5wgAPNOzDJ7e5udRfQnS3jAAc4wAEOcIADHOAABzjAgQEOPDm8N3pQ/8eT+//RGAMaw1mx5s+KOS4cFxzgAAc4wAEOcIADHODALQ4cjR7SD04X39/yocKYQM4BDnCAAxzgAAc4wAEOcIADHLjuwOni5agh/e2Tf/9TQHdmiAMc4AAHOMABDnCAAxzgAAc4MMyBt0/u/99oQT2mjNcQwxoCN9w4wAEOcIADHOAABzjAAQ5wIN6WNlpIPzhdfEEqUnGAAxzgAAc4wAEOcIADHOAABwY6cLr4fsyQ/lJDDGyI688i+LfnUzjAAQ5wgAMc4AAHOMABDnTpQDxKvndQj/vmBXQBnQMc4AAHOMABDnCAAxzgAAc4sJ8D8Sj53iE97pvXEPs1BH74cYADHOAABzjAAQ5wgAMc4EA8Sr53SPfqNSLpTDjAAQ5wgAMc4AAHOMABDnBgBAf2fhXb8b13NMQIDeF5ky6fN3HsOHY4wAEOcIADHOAABzjAgesO3Pnf4l+Dr6YfPDm8d32F/k0yDnCAAxzgAAc4wAEOcIADHODAUAcOHw8O6Z5HHwrd3zlgOcABDnCAAxzgAAc4wAEOcOCmA3dOFseDQ7rn0W8CJRkmHOAABzjAAQ5wgAMc4AAHOLCPA8NCuufRPUftWXoOcIADHOAABzjAAQ5wgAMcGN2BeNX5zkHd8+jODO1zZsjf8ocDHOAABzjAAQ5wgAMc4MA6BwY8l+559HUwfd+BxgEOcIADHOAABzjAAQ5wgAPDHRj0XLrn0YcDJyt2HOAABzjAAQ5wgAMc4AAHOLDWgSHvS1+7Ms8jjP48AtYOXg5wgAMc4AAHOMABDnCAA305sNP70uMhdoL0JYj21t4c4AAHOMABDnCAAxzgAAfmc+DOyeLB1pPHHZwcPtY48zUO1lhzgAMc4AAHOMABDnCAAxzozoGj7UP66eILgnQniNv4PcrBAQ5wgAMc4AAHOMABDnBgLgdOF99vH9JPFs+FdCGdAxzgAAc4wAEOcIADHOAABzgwnQPbhfTje+9ohOkaAVtsOcABDnCAAxzgAAc4wAEOcCAciPngbg3qJo0jiw6DAxzgAAc4wAEOcIADHOAAB6Z34B9P7v/n1pBu0rjpG4LsGHOAAxzoz4F3v31w/v6zx1f+98FPn55/9PPnK//32Yvj869/ezbZ/2L96z77/o8fX9nO2O7Yft7256021+Yc4AAHJnfg9snjDkwapwiZa6IEn8M1DnCgUgfuPn30JsReDrpf/vrNm1D9wx/Pz1teYv+WJxFivy9zWJ6MCE6Ku8mLO4wr7UccG44NDnDgtQPbTB53YNI4g53BjgMc4ECnDrz33Yevw3dcSV6GzmUQPXv1ouXMPfm+Bb8lyyXb5RX74K5YVaxygAMc4ECvDmxxuzs5epXDfnOfAxxo3YFlCH94dvQ6hC+vfL/88/fJQ6oPuJ1AtEME+eWV+WinuCovxOubWu+b7B/HOdC3AxsnjzNpXN9y6By0Pwc40IIDyyAeV2s/+eWr16HPVfDbA3INv7G8xT7aVoDXX7XQX9kHHnOAA+HAnZPFg7VX0+OHRCEKBzjAAQ7U4EA877y8LT2uvLb+DHgNIbrkNl6+Ah9eeB5eP1ZDP2YbecoBDvzlwOHjtSHdzO4k0VFwgAMcyObA5SvjwnjJGFznZ8fJm+VM9map179l699sDyc5wIFw4M7J4nhtSI8fEoUoHOAABzhQyoHLV8fjyqhnxesMxtm3evnse9w2H1fdPfOuzyvV5/lc7nGAA3878HxtSDezO0l0FBzgAAfmciCCUQSk5XPj2YOd7WubgOCu75ur7/M5XOMAB1Y5sCmkewVKp68dWiWK7+lAOMCBsRx499sHr2fpjiuXccu6K+RtB95W9i48Xc40H7fKj3U8WI++lQMc4AAHrjtw53+Lf90I6mZ2J8p1UfybExzgwFAH4ir5Bz99+voquQndWoms9iMIhM9x94fb5PWPQ/tHf8cdDnBgpQNPDu/dCOkHTw7vrfxlV5adOecABzjAgVsciGfJI5THBF1edybM9kQgfA/vw3/Ptiu81dIc4AAHhjuwYoZ3M7sTarhQ2GHHgd4cWF4pd+t6T3HUvm5DQGg3HvQ2HthfznNgNAeOblxJv3N6+F+ARwPsqtstV924xjUO1OXAMpS7Ur5NTPM7CFwQuBzaY24GfV9dfZ/20l4c4MBcDqx8DZvXrxFwLgF9Dtc4UIcDy5nXPVN+Ebh8hcC+BJbPtJuIro5+0HilnTjAgRkduPkatoPTxfczboAzya40c4ADHEjmQFwtf3h29Ho2632DiL9HAIHbCSxnj/c8uxCgBucABzgQDty43Z0YxOAABzjQnwNxNS9mqjbZ2+2Bym8gMDWB5VX2mIhRf9xff6zNtTkHOPD2yb//eRHUj++9QwpScIADHGjfgXgmdjkLu3eVTx25rB+B4QTi+Iw5IOKxE8+yt983G3+1MQc4EA7Ea9HfhHTvSCeFjoEDHGjXgeWkbzETuwUBBOokEMdvnGAT2Nvtq43D2pYDHIjXogvpyZ4HdWA6MDnAgbEcWD5fbtK3OgOZrUZgE4Gvf3v2ev6IOM7H6jOsx/jDAQ5wIIMDl96V/o8n9/+jUTI0im3gIQc4MNwBwXxTrPEzBNokECfiYsJHgX1432ncwY4DHMjjwKWQfnBy+DjPhpFEW3CAAxzY1gHBvM3gZa8QGEIgArtb4o0f244ffo8rHEjowOniize3u985PfyvRkrYSG7HdxsfBziwwoHl5G+eMR8SY/wNAn0Q8Ay7uk5tzwEO1OfAnZPF8UVIP1kca8T6GlGbaTMO9OVAzPIsmPcRsOwlAmMSWM4Sb8zoa8zQ3tqbA/U5IKSvuDpF5PpE1mbarHUH4n3J8R5zr0sbM7JYFwJ9Eoh+JPoT72E3drY+dto/jtfswJsr6Qeni+9r3hHb7kDkAAdaciBuZ4+JoM5evegzSdhrBBCYnMBywjmvdDN+tjR+2hc+t+DARUh3VdlzrxzgAAeKO+B29slziQ9AAIEVBNwOL9i0EGzsA49bcUBIF0qKh5JWDib7YWAY6kDMzv7Rz5+7ar4iOPgWAgjMSyDu3on+yOvcjGlDxzR/xx0O7O/A2yf3/+91UAdzf5gYYsgBDuzigKvm84YPn4YAArsRiEkqo5/apV/zu8ZBDnCAA/s78Dqk3/nf4l9g7g8TQww5wIHbHIhnP1013y0o+G0EEChOlV8ZAAAgAElEQVRLIK6uxxwZnl03xt02xvk5RzgwjgOvQ3r8H6DjAMURRw5wYJUD7z97fB7PfFoQQACBmglEP2ZmeOPcqnHO93jBgfEcENI9k+42Ng5wYEIHPvjp0/OYQdmCAAIItETg69+enUf/pigfryjHEksOcGDpwD+e3P/PW66kE2IphP9ygQP7O7C8pd17zVuKJPYFAQRWEVhONOdW+P3HDuMvhhzgwIUDh4+F9Amvol2AJh0WHGjdgZgN2S3tq8p430MAgR4IRP9nVnhjfetjvf3j+DwOHD5+Ky6nz/NhGhVnDnCgPQfiefO49dOCAAIIIHB+HrPCR79ovGtvvNOm2pQDczlw+Pitg5PDx4DPBdzncI0DrTjgeXNxBAEEEFhPwHPrxvtWxnv7weX5HRDSnel1uz8HOLCTAxHO4zlMCwIIIIDA7QSivzTJnJAzf8jBHPOaHRDSdyrOyV6z7Ladv8MdMBnc7YW430AAAQQ2EfC+9eFjkPEbOw5058CR291dRXSiggMcWOOAcL6p5PYzBBBAYHcC8eaLj37+/NyM8N2FDrXGmlpDAHcsXHfgzsniWEh3wOg0OcCBaw4I57sX3v4CAQQQ2IWAsC6YXA8m/s0JDvzlgJB+rTAnhs6BA307IJzvUmL7XQQQQGB/AsJ63+Ouukv7c+CmA0K6kO4KKgc4cLJ4fdtl3H4ZxaIFAQQQQGB+AsL6zUJdeMGEA306IKQLaAIaB7p2wJXz+Qtxn4gAAghsIiCs9xlKhFHtzoELB4R0Aa3rgKYzuOgMemThyvmmMtnPEEAAgbIEvLqt7zG6x7rEPnN+6YCQLqQL6RzozgHvOS9bePt0BBBAYBcCwrrgsgwu/suFXhwQ0gW07gJaLwe3/bw5kL3/7PF5FHsWBBBAAIH6CPzwx/Pz6MeNbzfHN0ww4UBbDgjpQrrBjgPNOxBF3de/PauvIrXFCCCAAAI3CER/fvfpo+bHLqGrrdClPbXnLg4I6QKaQY4DzTrw3ncfnn/24vhGgecbCCCAAAL1E4j+Pfr5XQpfvysocYADNTggpAtoBjcONOfAcsb2+ktQe4AAAgggsImAmeAFrhoCl23k6a4OCOkCWnMBbdeDwO+31XHGpHDedb6ppPUzBBBAoD0CJpdrayxXm2nP3h0Q0oV0IZ0DTTgQz53HpEIWBBBAAIF+CcTz6iaXE/B6D3j2v/5jQEgX0JoIaDqj+jujoW0YzyN++es3/Vak9hwBBBBA4AaBeF49Hn0aOrb4u37rCm2v7TM4IKQL6QYwDlTrwEc/f+7W9hulqW8ggAACCASBePTp4dlRtWNchqBgGwRWDpRxQEgX0AxeHKjOgbiV0fvOFeEIIIAAAtsQiPHCLfBlgoaAhzsHhjkgpAto1QU0B/uwg70Fbm5t36Yc9TsIIIAAAqsIuAW+3/qhhRrIPvTlr5AupAvpHKjCgbhl0aztq8pO30MAAQQQ2JaAW+D7CjqCrfau1QEhXUCrIqDVeoDZ7v0Hh7tPH5m1fdvq0+8hgAACCGxFIGaBj/HFOL3/OI0hhhwY3wEhXUg3QHEgpQMxK+8nv3y1VbHllxBAAAEEEBhCICYgNQv8+AFDaMOUA/s5IKQLaCkDmgN7vwO7dn4mhhtSavobBBBAAIEhBEws13fNUXvNZPvb9FdIF9KFdA6kcSCuZnjn+ZAS098ggAACCOxLIO7eclW9zcAjyGrX2hwQ0gW0NAGttoPH9o7b4d//8WMTw+1bYfp7BBBAAIG9CMRV9RiPjPHjjvF44smB3RwQ0oV0AxEHijrg6vle9aQ/RgABBBCYgEDc1eWq+m6hQgjDiwPjOSCkC2hFA5qDebyDuUaWrp5PUFlaJQIIIIDAKATidW2uqvddp9RYW9nmNpwV0oV0IZ0Dszvg6vko9aOVIIAAAgjMQMCz6m2EHuFVO9bkgJAuoM0e0Go6QGzr+B16zNweVycsCCCAAAII1ELADPDj1wNqLEw5sN4BIV1IF9I5MIsDcfXce89rKUdtJwIIIIDAKgIxjgkW64MFNthwYBwHhHQBzWDDgckduPv00XlchbAggAACCCBQO4Ef/nh+HuOaMDJOGMERRw7cdEBIF9AMMhyY1IGPfv689nrM9iOAAAIIIHCDwMOzo0nHT8HlZnDBBJNeHBDSBTQDDAcmceC97z48//q3ZzeKGt9AAAEEEECgFQIxznlVm+DYS3C0n/O5LqQLaJMENAfxfAdxRtZerdZK+Wk/EEAAAQRuIxCTocakqBnHY9vUdz2m/ettfyFdSDeocGBUB0wOd1s55+cIIIAAAi0SMKlcvYFImNV22RwQ0gW0UQNaNsFtz3ydbtzeHpPpWBBAAAEEEOiVQIyDMR6qP+arP7DGukUHhHQh3UDCgb0dcHt7r+Wo/UYAAQQQuE4gbn+PcbHF4GCfBGIOzOOAkC6gGUQ4sJcDbm+/Xp75NwIIIIAAAufnbn+fJ8wIjTi36ICQLqDtFdBaPCjs03advdvblaAIIIAAAghsJmD29+1qCrUXThy46oCQLqQL6RzY2YGYxTZu57MggAACCCCAwGYCZn+/Gj6EMTw4cLsDQrqAtnNAc2DdfmC1zOijnz/fXI34KQIIIIAAAgjcIPDw7EjNpe7mAAe2ckBIJ8pWorQcOu3bdicd3v32wfmXv35zo+jwDQQQQAABBBDYjsBnL47PYzxVe2xXe+CEU68OCOlCuoGCA7c6cPfpI69X267+8lsIIIAAAghsJOA1bYJnr8HTfm/vvpAuoN0a0BxQ2x9QLbLyerWNtZYfIoAAAgggsDMBz6n3XVu1WC/ap3GdFtKFdCGdA2sdiOfnLAgggAACCCAwDYEPfvp07Rgs9IwbevDEsyYHhHQBzeDAgRsOxPNy8dycBQEEEEAAAQSmJRDjbU3hwbYKuxyY3gEhXUAzMHDgigMR0ON5OQsCCCCAAAIIzEMgxl0Tyk0ffIRLjGtxQEgX0K4EtFrEtZ3TdLIxQZz3n89TkPkUBBBAAAEELhOIoB7jsBpnmhoHV1xrckBIF9INBhx47YAJ4i6XSr5GAAEEEEBgfgImlBMkawqStnU6X4V0AU1I58B5TFxjQQABBBBAAIEcBEwoN134ESyxrcEBIV1AE9I7d8AEcTkKMluBAAIIIIDAZQIf/fy5Gq3zGq2GMGkbpznpIaQ7+A0AnTpgBvfLpZCvEUAAAQQQyEfAzO/TBCDBEtfsDgjpnQa07GLavmk7TzO45yvEbBECCCCAAAKrCHz92zMzv6vXXVTrzAEhvbMGF36nDb818H3vuw+9Ym1VFeR7CCCAAAIIJCXgFW3qtxpqTNs4nqdCupDuzFxHDnjFWtLqy2YhgAACCCBwC4GzVy+8oq2jmk3gHS/w1shSSHewC+mdOCCg31L9+DECCCCAAALJCcQr2rxLve/wVmPgtM27OyukdxLQHBy7HxwtMfMO9ORVl81DAAEEEEBgSwKCet81XUv1qX1Z77KQLqS7kt64A96BvmXV49cQQAABBBCoiIB3qa8POMIfNrU7IKQ3HtBqF9T279fJCugVVVs2FQEEEEAAgR0JCOr71UnqTPyyOiCkC+mupDfqgIC+Y6Xj1xFAAAEEEKiQgKAuaGYNmrZruJtCeqMBzUEx/KBogd1HP39eYZlhkxFAAAEEEEBgCAFBve+6r4Xa1T5cdVhIF9JdSW/Mgc9eHA8Z3/0NAggggAACCFRMQFC/GnKEPjxqdkBIbyyg1Syjbd+/MxXQK66ubDoCCCCAAAJ7Evjkl69cfFHbc6ABB4T0BhpRuN0/3LbAUEDfs7Lx5wgggAACCDRAIOqBFuoa+6C+7dkBIV1I15E34ICA3kBVZRcQQAABBBAYiYCgLuD2HHBb2HchvYGA1oKI9mH4YCKgj1TRWA0CCCCAAAINERDUh9dW6lLsSjsgpAvprqRX7ICA3lA1ZVcQQAABBBAYmYBn1IXN0mHT5w9zUEivOKCRfpj0rXAT0EeuZKwOAQQQQACBBgmY9b3verGVure3/RDShXRX0it0wHvQG6yi7BICCCCAAAITERDUBfXeQm7t+yukVxjQapfO9u83UMRAa0EAAQQQQAABBHYhIKjvV3+pX/Gb0wEhXUh3Jb0iBwT0XcoRv4sAAggggAAClwkI6oLmnEHTZw33TUivKKARfbjoLbAT0C+XGb5GAAEEEEAAgSEEBPW+68kWauIe9kFIF9JdSa/AAQF9SBnibxBAAAEEEEBgFYG7Tx+p/yqo/3oIo/Zx9UkjId0BqpNO7kAMpC///H3VGOt7CCCAAAIIIIDAzgSirhDUV4cjoRGXDA4I6ckDWgZJbEO5zkpA37nu8AcIIIAAAgggsAUBQb1cfae2xv42B4R0Id2V9KQOvPfdh66gb1Fk+BUEEEAAAQQQGEbg7NWL83e/faAWTFoL3hbk/LzdsC+kOyh1zAkdiAHzhz+eDxtx/RUCCCCAAAIIILAlgag3BPV2w54gX2fbCukJA5qDqc6Daax2E9C3rCr8GgIIIIAAAgiMQuDr3565aCMTcCCRA0J6osYYK+RZT90h/7MXx6MMuFaCAAIIIIAAAghsSyDqDzVk3TWk9mun/YR0IV2HnMgBAX3bUsLvIYAAAggggMDYBD76+XN1YaK6UOhuJ3Tv2pZCugNRZ5zEAe9CH7vUsD4EEEAAAQQQ2JVA1CO7Bgq/32+Y1PbTtL2QniSgEXwawWvhev/Hj3cdQ/0+AggggAACCCAwCQHvUO+7Lq2lfm55O4V0Id3Z0sIOeBf6JPWFlSKAAAIIIIDAQALeoS6ktxyAa9g3Ib1wQKtBEts4XUcdM7nHO0otCCCAAAIIIIBAJgJezTZd/ae2xvY2B4R0Id2V9IIOeBd6pnLEtiCAAAIIIIDAZQJezSZM3hYm/XwaR4T0ggGN1NNIXQtXM7lfLgN8jQACCCCAAAIZCXzyy1cu6MgLHJjZASF9ZuC1BEjbOe0JBDO5ZyxDbBMCCCCAAAIIrCJgxvdp60J1N77XHRDShXRnxmZ24P1nj1eNf76HAAIIIIAAAgikJGAiOSHyeoj072mdENJnDmiEnlbo7Hzf++7D8xjoLAgggAACCCCAQE0EYqLbmPA2e61l+/qutVtpfyFdSNfZzuiAieJqKkdsKwIIIIAAAghcJmAiOQG4lRCcfT+E9BkDWnYZbN+0Ha+J4i4P875GAAEEEEAAgRoJmEhu2npRPY5vOCCkC+mupM/ggIniaixDbDMCCCCAAAIIrCJw/8eP1Y8z1I8Ce7+BXUh3gOlkJ3bg7tNHnkNfNcL7HgIIIIAAAghUScBEcv2GRycO5ml7IX3igEbkeUTOyjkmWPEcepX1h41GAAEEEEAAgQ0Eor4xkVzfdW7W+ruF7RLShXRX0id04Mtfv9kwvPkRAggggAACCCBQL4GYb6eFQGQfnGzI5oCQPmFAy9bYtmfeDujh2VG9o64tRwABBBBAAAEEtiAQ8+6oMeetMfFun7eQLqTrWCdwwHPoW4zqfgUBBBBAAAEEqicQz6e/992H6skJ6klhvP0wvq6NhXQHlE51ZAc8h159vWEHEEAAAQQQQGAHAvF8+rqw4fv9Bk1tP7zthfSRAxoZh8vYCrt4f6gFAQQQQAABBBDoiYD3p6uBW6nlM+yHkC6kO/M5ogPx3lALAggggAACCCDQI4H3nz1WV45YV2YIi7ahzMkXId2BpDMdyYG4zT2ey7IggAACCCCAAAI9Eog6yGvZyoQ6Ybot7kL6SAHNgdHWgTGkPb/+7VmP47F9RgABBBBAAAEE3hCI188OqaP8jVqaAxcOCOlCuo50BAe8bu3N2OwLBBBAAAEEEOicgNeyXYQtwROLIQ4I6SMEtCHg/U07B6zXrXVeidh9BBBAAAEEELhCwGvZ2qlzZZYybSmkC+mupO/pQLx2xIIAAggggAACCCBwQSAeAxTwygQ83OvnLqTvGdAcBPUfBPu04Uc/f34xGvkKAQQQQAABBBBA4A2BeBxwnzrL3/ZdZ/fc/kK6kK7zHOhA3OZuQQABBBBAAAEEEFhNwG3vQnbPQXuffRfSBwa0faD72zY6LLe5rx6QfRcBBBBAAAEEEFgScNt7G3Wv/DJvOwrpQror6QMccJv7cuj1XwQQQAABBBBAYDMBt73PG/AE6vp5C+kDAhrx6xd/nzZ877sPN49EfooAAggggAACCCDwhoDb3vuunfepu3v9WyFdSHclfUcH4rYtCwIIIIAAAggggMD2BNz2Lqj3GriH7LeQvmNAGwLZ37TTKcXtWhYEEEAAAQQQQACB3Qnc//FjF4dkDw5s4YCQvgUkIbudkL1PW7777YPzuF3LggACCCCAAAIIILA7gaijop7apx7zt+ryHhwQ0oV0HeWWDnz56ze7j0b+AgEEEEAAAQQQQOANgU9++UrtuWXt2UMYtY+rT7oI6Q4SHeUWDrz/7PGbwcUXCCCAAAIIIIAAAsMJRF0lnK0OZ7jgEg4I6VsENAeLg+Xs1YvhI5G/RAABBBBAAAEEEHhD4Ic/ngvpMggHNjggpG+AI5wL5+GAd6K/GVN9gQACCCCAAAIIjELAu9PV2bLWegeEdCHdWawNDsQ70U0WN8pYbCUIIIAAAggggMAbAiaRWx/QhFdshPQNAc0B4gAxWdybsdQXCCCAAAIIIIDAqAQ+e3HsYpEswoEVDgjpK6AI58J5OGCyuFHHYStDAAEEEEAAAQRuEDCJnLpb9rrpgJAupDt7tcaBmNTEggACCCCAAAIIIDAdga9/e6YWXVOLCq83w2svTIR0B4WOcYUDMZmJBQEEEEAAAQQQQGB6Ah/89Kl6dEU92ksgtZ83T0YI6Q4IneI1B9799oHJ4qYfj30CAggggAACCCDwmkC86jbqL2HtZljDpE8mQvq1gOZA6PNAuNzuXrmmYkAAAQQQQAABBOYlEPXX5XrM12rynh0Q0oV0HeIlB+KVaxYEEEAAAQQQQACBeQl4JZtQ3nMov77vQvqlgHYdjn/311nEq0AsCCCAAAIIIIAAAvMT8Eq2/mpveWt1mwvpQror6X87cPfpo/lHI5+IAAIIIIAAAggg8IZA3NUouK0Obrj0w0VIF9J1hH87EK8AsSCAAAIIIIAAAgiUI+Bqej9B1EmH9W0tpAvpQvrJ4vz9Z4/LjUY+GQEEEEAAAQQQQOANgajLBLj1AQ6b9tkI6UK6TvBkce4q+ptx0RcIIIAAAggggEBRAlGXCaLtB1FtvL6NhXQhvftO0FX0ouOwD0cAAQQQQAABBG4QcDV9fYATbttnI6QL6d2H9LNXL24MDL6BAAIIIIAAAgggUI6Aq+ntB1EnG9a3sZAupHcd0j/46dNyo49PRgABBBBAAAEEEFhLwNX09SFOwG2bjZAupHcd0l1FXzsu+gECCCCAAAIIIFCUgKvpbQdRJxrWt6+QLqR3G9JdRS867vpwBBBAAAEEEEDgVgKupq8PckJuu2yEdCG925DuKvqt46JfQAABBBBAAAEEihJwNb3dIOokw/q2FdKF9C5Duhndi463PhwBBBBAAAEEENiagKvp68OcoNsmGyFdSO8ypMdZWQsCCCCAAAIIIIBAfgKuprcZRJ1gWN+uQrqQ3l1IdxU9/2BsCxFAAAEEEEAAgcsE7j591F3NKsSuD7GtsxHShfTuOjxX0S8Peb5GAAEEEEAAAQTyE/jsxXF3NWvrQdT+rT8JIaQL6V11eHEW1oIAAggggAACCCBQH4H3vvuwq7pViF0fYltnI6QL6V11dnEW1oIAAggggAACCCBQHwFX0/sNra2H8uv7J6QL6d2E9Dj7akEAAQQQQAABBBCok8DLP38/f/fbB93UrteDm3/3c5JCSBfSu+noPvr58zpHJFuNAAIIIIAAAggg8JpA1HPCaj9htde2FtKF9C46ujjrGmdfLQgggAACCCCAAAL1Ejh79aKL2rXXcGq//zoBI6QL6V10dB/89Gm9o5EtRwABBBBAAAEEEHhDIOo6Yc7V9JYdENKF9C46uTjrakEAAQQQQAABBBCon0C8TrflgGbfnIAQ0oX05ju59589rn80sgcIIIAAAggggAACbwjEa3WFWWG2VQeEdCG9+Q7uy1+/edOh+wIBBBBAAAEEEECgfgJexyagtxrQY7+EdCG96ZDutWv1D8L2AAEEEEAAAQQQWEXA69gE9VaDupAupDcd0r12bdWQ5nsIIIAAAggggED9BB6eHTVdx7YaQO3X7SdXhHQhvenOzYRx9Q/A9gABBBBAAAEEEFhFwOvYbg97AnGdjIR0Ib3ZkH7/x49X9ee+hwACCCCAAAIIINAIgZggWBCtM4hqt/XtJqQL6c12bCaMa2T0tRsIIIAAAggggMAaAiaQWx/0hOB62QjpQnqTId2EcWtGMt9GAAEEEEAAAQQaI2ACuXrDqBMJq9tOSBfSmwzpMZGIBQEEEEAAAQQQQKB9Ah/89GmT9awAuzrA9sBFSBfSm+zUTBjX/oBsDxFAAAEEEEAAgSDwwx/Pm6xnewij9nH1iQghXUhvrlO7+/SREQsBBBBAAAEEEECgIwLxqKPAtzrw4VIfFyFdSG+uQ/vkl686GpLsKgIIIIAAAggggEDUf8JofWFUm61uMyFdSG+uQ3v55+9GKgQQQAABBBBAAIGOCHhn+uqwJwTXyUVIF9KbCunejd7RaGxXEUAAAQQQQACBSwTikUehtM5Qqt2utpuQLqQ31ZnFuzItCCCAAAIIIIAAAv0RcMv71aAn+NbLQ0gX0psK6W51zzkgf/3bs/O5/seBPA7ErYdztXvpNzr0tK95DLt9S3pqlzn3da7jurbPiRnGLWUJRA0gmNYbTLXdRdsJ6UJ6M52ZW93LDoyrPv2jnz8/f/fbB7M7Fu9LFdZXtcg834vC+v1nj2dv97jNMT57ziWK8l72dU6u+35WKQfDhV4cVExfFNOXWcQM41/++s2+Cvv7PQhEPXi5TXy92lVccnMR0oX0Zjoyt7rvMaKN/KcRkEsEl8sDThRKrmqM3LBbrC6Ow8vtUOLrufqCKMRLnIS6zHSufd2i6dP8Sk8OZtjXyz76+qLoj5PFljIEHBcXHjom62UhpAvpxQvqsToQV07LDIarPvXh2VEKr+LKqmU+AnFSZKzjed/1TH01M24tLh3Ql4xctbtwPNp9yaX0f3tysDTrrJ/v2Lw4Nuf8yi3v9QbTrMdyie0S0oX0NAXNPgeAW93nHP42f1aEl33acuy/daVxc3uN+dPSd09cdifupJhyiatklz+v5NdxsiCOO8t58Tt4LnsQx8OUSyYHL++3ry8C0tT90JR+1b7uTOORY+LimMBiexZCupCeptDc58AVxPIMp/Ec+j5tOfbfTl0o5yFfdksyXrmY8nGHLFfRl8eLu0bOX5+oWPLI8t8pT55k2UfbsbnonvqOirI9f95PN8v7Zi8dt/n5COlCeqpANbTTcKt7noEy44Qteei0uyWZbjNe9iNTFceZbutf7mv8Nx4z6XnpycGM+3rZRV9fBIA4cW2Zn0C2u/ocExfHBBbbsRDShfTqQ7orpfMPfps+MeMtZpu218/GIZAxNEwV0jPu67Lo6fkZ2Izt0qODSxf9969CXEgfZ4wZspa4w4iH2wVCnPJxEtKF9Oo7sLilyZKHgJCepy3m3BIBKccA3/Pz6RzM4aBi/2o7COlzjkRXPyvb43eOjavHBh6beQjpQnr1IX3KZ/6udvf+tQ0BIX0bSu39joC0ebCdsxjp9e4iDuZxcE7fs3+WkF5uvMv6aFJ2Z21fjr5USBfSqw7pZk4tN/it+2QhfR2Ztr8vIOUY1JfFVY/BgIO5HFy62Pt/ezwWM412USf27qD9r7NvFNKF9Ko7r94nSso0EC63RUhfkujrvwJSviIg2qSnhYP5HBQOFudCetleyKsK9Qu19kNCupBedUjveZKkssPe+k8X0tezafknAlK+QiieT+/pzRcczOdgrcXxmNstpJcd+aJOHLM9rUs/M5cDQrqQXnXnVbbr9+mrCAjpq6i0/z0BKWfhEsdjLwsHczo4V0Gb9XOE9LI9UJyozOqG7dJnbXJASBfSq+28eio+yw5xu326kL4br1Z+W0DKW2z0EhI4mNfBTYVo6z/r5fjLPJZ5FZu+ocZ+RkgX0qsN6V69lnNIFNJztsvUWyUg5S6CYpbj1hcO5nawxiJ5jG0W0sv3PNEGY7Sldehj5nRASBfSq+24eig6yw9tu2+BkL47sxb+QkDKXbzEDMetP5/OwdwOzlncZvosIb38CJexb8jkqG3J2XcK6UJ6lSE9JkSy5CQgpOdsl6m3KmMRFNs0xZJxX7cpsu7/+PEUONKsM2O7cDBn8bvN8TLW7wjpObqIsdrTehzTczkgpAvpVYb01ovNHEPasK0Q0odxq/2vBKQ6CpeWHxPiYB0OzlXgZvkcIT3H6JaxNsniqO3I2XcK6UJ6lSG95UIzx3A2fCsyDoTD98ZfbktAQMo5yK8qvlp9VIiD9Ti4ystWvyekbzuKTPt70Q6tOma/2uz7hHQhvcpOq9Uic9ohap61C+nzcM72KQJSPUVCq8+nc7AeB3sKFUJ6jtEqY//Q03FgX3fvn4V0Ib26kO559BwD3rqtENLXkWn7+xkLoNimKZaM+7prAdTiI0MZ24WDuxemu7qc/feF9Cl64WHrzO6K7dNfXHZASBfSqwvpEQIteQkI6XnbZsotE5DqKy4+e3E8pRKzr5uD9Tl4uSBt9WshffauYO0HZqxPWvXefu3fHwvpQnp1Id2At3b8SfGDjINgCjCNb4SAtP+APHdRE3cltfToEAfrc3Bu50t8npolz+D38Oyoupq3hLM+M0dfKqQL6dV1WFGIWfISENLzts2UWyYg5RjUdy2u7j591Mz70zlYp4O7Olvb7wvpU448u637y1+/qa7mrc132ztePyykC+nVdVi7dcl+e24CQvrcxHN8noA03qBRwIIAACAASURBVMA8d5HzwU+f5pBoz63gYL0Ozu38nJ8npO95YI/45y///L26mndOV31Wrj5USBfSq+qw4qqPJTcBIT13+0y1dQJSrsF912KrhefTOVi3g7s6W8vvC+lTjTrD1htvt6jFHdvZd58mpAvpVXVWrVzxGTa01PFXQnod7TT2VgpIdRcTLTyfzsG6HWw1kAjpY482+60v3mzRqmv2q60+UEgX0qvqrD755av9emd/PTkBIX1yxCk/QECqvzio/U4lDtbvYIshQ0jPNWRFe7TomX1qr/8T0oX0qjqrKMIsuQkI6bnbZ6qtE5DaKBBi9uNaFw624WBrYUNIz9WjZOwnWnPe/ozTFwvpQnpVIT1XV29rVhEQ0ldRaf97GQuf2KYploz7OmZRFDMg17hkbBcOjlOsjun33OsS0nP1JiaPc0zO3QcM/TwhXUivJqTXfitmrmFquq0R0qdjm3nNAlI7hU88n3726kVm3VZuGwfbcXBoUZvx74T0lYdr0W+aPE5fkbGvuL5NQrqQXk1IN2lc0TFt6w8X0rdG1dQvCkhtFT01nhTlYFsOXi9Ya/13eGnJRcDkcfqKGvoTIV1IryakOxuda5BbtzVC+joybX9fQGqv6Knt+XQOtudgDYX0pm2MK7aWfASintzUbn6mL8nggJAupFfTUTkbnW+gW7VFQvoqKu1/T0Bqs6ip6fl0DrbpYIZieeg21HT8tD9KXexhtMvQNvV3+pm5HBDShfRqOqqY7MOSn4CQnr+NpthCAanNwiWeT6+l7+Vgmw7OVRCP/Tm13YkyxbiQdZ0//PG8mtp3bC+tr55+UkgX0qvoqKJQtNRBQEivo53G3koBqZ6Bf9ciLY7pGhYOtuvgrs6W/P2Yz8EV9Pw9RklHfLa+ahsHhHQhvYqQXkuRmH9Ymn4LhfTpGWf8BAGp7aKjhjlBOFjWwZjcNdqg5//V+FaEjOPJHNsUJ1O2CUp+p2y/0jN/IV1Ir6KTMrP7HEPWOJ8hpI/Dsba1CEjtFzLRxpkXDpZ1sIYTOZn9tW3zEjDDe9n+oufwve2+C+lCehUh3eA/7+C1z6cJ6fvQq/dvBaT2C57sz6dzsKyDxul6++8etzx83TYs+b2yfUuv/IV0Ib2KTir7FZweB7h1+yykryPT9vcFpD6KmDi+sy4cLOugkJ71yLBdqwh89uK4ivq314BqvxfnQrqQXkUnFTNxWuogIKTX0U5jb6WAVDYgzVnQZA1jHCzrYFYvxu7rrK8NAhn7izn7cZ9Vtr/chr+QLqRXEdLbGBL62AshvY92vr6XGQue2KYploz7us2AP+bvZDxxmrFdenJQSJ+it7HOqQjEqyXH7BOtK3/ora2NhHQhPX0n9d53H07VR1vvBASE9AmgVrBKAamvAiX65WzvT+dgWQeF9Ao6apt4hUBtoc32lu3j5uYvpAvp6UN65mcgr/T2/vGagJDepwgCUl/FQxQrMTtypoWDZR0U0jMdDbZlGwIZ65W5g6DPK9tvbuIvpAvp6UO6169tM9Tk+Z2Mg14eOu1uiYCUd6DfVATs+7NPfvkqjdQcLOugkJ7mULAhWxLIWK/s2yf7+7L94Jj8hXQhPX1IN/BvOdok+bWMg14SNE1vhoDUTmGwa5GR5fl0DpZ10FjddBff5M6Fs7v2d36/bD/TE38hXUhP30HFazIs9RAQ0utpqzG3VEDqt3DJ8nw6B8s6KKSP2aNa1xwEhPSyfUZPgXvIvgrpQnr6kB6Fl6UeAkJ6PW015pYKSH0XOxkeS+JgWQeF9DF7VOuag0DGPmNImPM3Zfu+qfgL6UK6kD7HSNDRZwjpHTX2pV3NWOzENk2xZNzXqYqEXdZb+q6njO3Sk4NC+hS9jXVOSSBjn7FLn+t32wzny3YV0oX09CF9yg7auscnIKSPz7SGNWYsdnoKSMtBveR/3/32wXnJ59M5WLZgFdJr6Klt42UCZ69epK+BS/bpPrtsnyqkC+npO6jLHaqv8xMQ0vO30RRbKCCVHcyzFFN3nz4q9v50DpZ1UEifome1zqkJZOk7bUfZ/isjfyFdSE8d0mNCIktdBIT0utprrK0VkBQYyyKn1PPpHCzroJA+Vm9qPXMSWPZb/lu2/8D/Jn8hXUhPHdIj8FnqIiCk19VeY22tgHRzgO256CjxfDoHyzoopI/Vm1rPnAQy1iw9jx32/aIfF9KFdCF9ztGgg8/KOOB1gL34LgpIFwOrImNxHs+nx/Oecy4cLOugkD6n7T5rLAIZaxZjSNm+LAt/IV1ITx3SS902OVbn3+N6Mg54PbbD3PssICkqrhc28Xz6nAsHyzoopM9pu88ai0DGmuV6X+rfZfu2UvyFdCE9dUg36I81DM23nowD3nx73+8nCUh9FhG3FS8Pz45mOyg4WNZB4/VsqvugEQlEH3VbP+bnZfuWXvkL6UJ66s7JoD/iSDTTqoT0mUAn+xgBSRGzrpD68tdvZrGVg2UdNF7PorkPGZlAeLuu7/L9sn1K7/yFdCE9dedk0B95NJphdUL6DJATfoSApJhZV1DN9Xw6B8s6aLxO2DHbpFsJCOll+41144bvL86FdCE9dUiPostSFwEhva72GmtrBSSFzqaiao7n0zlY1kEhfaze1HrmJCCkl+03No0bvf9MSBfShfQ5R4MOPktI76CRV+yigKTQua2gmvr5dA6WdVBIX9Ex+lZ6Ahn7jdv6Uj8v29fNxV9IF9KF9PRDSF0bKKTX1V5jbW3GQie2aYol477OVTTs+zlTtUm0c8Z2mWp/M+5r9P0R1Hv932cvjl87OEWfY53TEch4LO3bz/r7NkK8kC6kC+nT9f1drllI77LZBSRjyVZjSTyf/vLP3yc5SDIW2z2FdMHgr2Dw3ncfnkdgt9RBIGO/4VhqI2Tv245CusJqq8JqX9GG/v0Pfzyvo5e3lW8ICOlvUHT1RcZCR0DKWehEHzHFwsGc7T10/K/97z746dMpNLfOkQlk7Ddqd9/2j9MXC+lCeuqQPnJfbHUzEBDSZ4Cc8CMyFjpC+jiFwhQF1xTPL3Mwb3tP4VAN6/zkl68S9tY26TKBjP1GDW7bxun7WyFdSBfSL/fWvt6bgJC+N8IqV5Cx0BHSpy8i9inUxm4fDuZu731cqfVv4/EOS24CZ69epK6Da3Xfdu/fHwvpQnrqzil3127rVhEQ0ldRaf97AtL+A3JvRc3Yz6dzkIMZj6GxT0a1P5rMv4cZvbFN+jMhXUgX0ucfD5r+RCG96eZdu3MCUtmCIl5vFhNW1VbYRX8x1sLBsg7W5t5c2zvFox1jHTPW8xeBuVzwOfqoXRwQ0oX01EWdAaQ+AkJ6fW02xhYLSGWLjwgCGdtgm4JkrOd2M+5/bNMUS8Z93aate/wdIX2KI2DcdfbopX0uO2Zvw19IF9KF9HH7+u7XJqT3qUDG0NBTQFoGgfjvNoN/tt8Z400eHMxfdGbzbo7tWR6bfY4Mdez1HB74DP3Trg4I6UJ66oKuju7dVl4mIKRfptHP1wJS2QLkchDIeAzeVpzErfr7vj+dg2UdvK2Ne/355WOznxGhrj3t1U37nbvPFNKFdCG9rrEk/dZmDAjpoTWwgQJS2cH+chCIsBuTstVWgN3/8eO9jgQOlnWwNt/m2t7Lx+ZegvvjyQjM5YLP0Uft4oCQLqSnLuQm65GteDICQvpkaFOvWEAqW3xcDwIZ22Ob4mSf59Mz7nNs0xRLxn3dpn17/J3rx+YUPljnfgR69NI+lx2zt+EvpAvpQvp+fbu/vkZASL8GpJN/ZgwNPQWkVUEgvrdNIZDtd4Y+n87B/EVnNtfm2J5Vx2Ynw0I1uzmHBz5D/7SrA0K6kJ66iKumh7ehbwgI6W9QdPWFgFS2AFkXBO4+fZS6j19VtAx9Pp2DZR1c1Za+tzhfd2x2NUAk31me6jsyOiCkC+mpC7jk/brNW0FASF8BpYNvCUhli5x1QeDs1Ysqn0//4KdPdz5qOFjWwYxFboZtWnds7iy4P5iMQAZPbIP+67oDQrqQLqRP1u33uWIhvc92F5DKFhibgsCXv36Tup+/Xpgs//3Zi+OdDiYOlnVw2W7+e7UdNh2bOwnulycjwNmrzuKRg4eQLqSnLt4m65GteDICQvpkaFOvWEAqO6jfFgQenh2l7utXFYUxQ/0uz6dzsKyDq9rQ99zunnrg+nvjeKrvyOiAkC6kpy7caujcbeNVAkL6VR69/EtAKlvk3BbSw8Man0+Pbd72/ekcLOtgxiI3wzZtc2z2Mk5k3c8MntgG/dd1B4R0IV1IzzpqVLpdQnqlDbfnZgtIZQuMbYJA68+nc7Csg9cLTP/+qz22OTb37H79+Z4EuKrvyOiAkC6kC+l7du7+/CoBIf0qj17+JSCVLXK2DQItP5/OwbIOZixyM2zTtsdmL2NFtv2Mk5cZPLEN+q/rDgjpQnrqzilbZ257bicgpN/OqMXfEJDKFhi7BIGYOf16MZD93/F8ehTTmxYOlnUwu0Oltm+XY3OT3342DYGM/UYpV31urj5USBfSUxdr0Xla6iIgpNfVXmNtbcZCZ6r+I+O+7hIE4hnvWp9P3+RrxnbpyUEF/uoCf5djc5PffjYNgYz9hmNp9bHUGxchXUgX0qfp97tdq5DeZ9NnLHR6Cki7BoGYNT2uTtdW9MQs9esWDipsM/q867G5zm/fn4ZAxn4jo8e2af7+VUgX0lMXaVMV2dN09dYaBIT0Pj3IWOhM1X9k3NchQSDeQ15j4RXP1a9aMrZLTw7W6NIc2zzk2Fzlt+9NQyBjvzGHlz5j/tC9K3MhXUhPXaRNVeBM09VbaxAQ0vv0IGOhM1X/kXFfhwaBlp5Pz9guPTm4awHay+8PPTb7HEnm3+uM/UYvx4b93HyiQEgX0oX0+ceEpj9RSG+6edfuXMZCp6eANDQItPR8Ogc3F3wK4jJ8hh6baztbPxiVQLSPY6PMsYH7Zu5CupCeunMyuI06Fs2yMiF9FszpPkRA2jzYTl2M7NNXxvPpU2/fFOu/vs8cLOvgFG3cwjqve5qu8+58g6J9WvDMPrTX/wnpQnrqzsngVt/oKaTX12ZjbLGAVLZA2Lev/OSXr1KPBesK0PBuuXCwrIPr2qj37+97bC799t9pCAjp+o2sfZSQLqSnLswMbtMMSlOuVUifkm7edQtIZQudMfrK+z9+nHo8WFVIxQz1cct+LBws6+Cq9vG9xfkYx2benr/+LYs3RvBU35HRASFdSE/dOcWkRpa6CAjpdbXXWFsrIJUtcsYIAhF23/vuw9RjwqpCKvqcWDhY1sFVbeN7QvpYY8xU68lYszhu9GXhgJAupKcuyJbF11Sds/WOTyDjgDf+XlrjdQICUtmiYoyQHm1a8/PpHCzroGCxmv9Yx+b1Pte/xyGQsWZxLK0+lnrjIqQL6UL6OP28tfxNIOOAp3GmJyAglS0qxgwCtT6fHgyyFXFxXEyxZDzesrHPsj1xPFnyErj79FG6fiOLu7aj7LgupAvpqTunuPXSUhcBIb2u9hprazOGhp4C0pghPZyo8fn0jAVlTw5m5J9hm+LuFEteAhkcsQ1lw3BW/kK6kJ46pMeBY6mLgJBeV3uNtbVCetkiY+yQHs+nx6RsWYuXWrZLSC97XJT2xIWGsUaY6dZT2hGf33cfsan9hXQhPX0RNl3XbM1TEBDSp6Caf51CetlCY+yQHsZlbNNNBU3GnwnpZY+L0k58+es3+Tvvjrfw7NWL9DVwaYd9frk+TEgX0tN3UFMVOR2PS5PuupA+Kd60K88Y6KbqOzLu6xQhPWSL9SrShhdpPTnIk6uefPbiOG1/bcP+IpCxL3ccXT2OeuYhpAvp6QuwqYocg9Q0BIT0abhmX2vGYmeqviPjvk4V0sO7jMd0LYVbTw7W0iZTb2ccL1O1e/ZxoLbtizsdpvbB+oXuoQ4I6UJ6+g7KzKh1DXsZC/q6CNa5tRmD61SFcsZ9nTKkez59eJHZk4Mf/PTp63Aa+9zr/+JYsdRDwJ1Cw/u2ocHT323PXEgX0tOH9CmLz3qGknq2VEivp63G3NKMwbWngDR1P5mxfWso9jg4Zi9jXQiMS0BI3z4w1tDftraNQrqQnj6kx9l5Sz0EhPR62mrMLc0Y4gSkMVvY8+lDCkAOjuugtSEwJoGM9cqQfsbftHmyQUgX0tOH9OhELfUQyDjo1UOv3i0V0ssWCVNfSV+aeffpo/RjRqaCVUhfmuO/COQjkLFeydR/2Zay47qQLqSnL7i8ZzTfwLZpizIOepu218/GISCklx3M5wrp8coi70/fvq2F9HH6F2tBYAoCQuj2fRlW87MS0oX09CE9OgZLPQSE9HraaswtFdLnH8AvF01zhfRwxozI27e1kD5mL2NdCIxHICb5u9yH+nr7fg2reVgJ6UJ6FZ3UD388H69ntqZJCQjpk+JNu3IhfZ5Be11xNGdIDwkfnh1VMXas4zXX94X0tF2WDeucQMYxa65+yeeUHa+35S+kC+lVFFpTFTqdj1GT7L6QPgnW9CvNWPBM1W9k3Ne5Q3oI6fn02ws9DqbvumxgpwQ+e3FcRf27baDze7f3x7UxEtKF9Co6qRIFaKfj1t67LaTvjbDKFWQMrgLStCp5Pv32opCD0zpo7QgMJRB1ZW2hzfbe3ue2xEhIF9Kr6KS8hm3oMDT/3wnp8zPP8IlCetniodSJTFejNre7kJ6hd7INCNwkkLFWaSlg2pfNY8M2fIR0Ib2KkB6dqaUOAhkHvjrI1b2VQvr+A/I2g/a63ykV0sPaOIm6brt6/76QXne/ZuvbJeBxnbJjVu9jwzb7L6QL6VUUV/HKH0sdBIT0Otpp7K0U0ssWPCVDesySrOBd3f5C+tg9jfUhMA6BbUKS31ndr+EyDxchXUivIqRHhxCFoCU/ASE9fxtNsYVC+jyD9rriqGRID5/iDRzen37TASF9it7GOhHYj0D0V+v6Ut+/2Y9hUoaJkC6kV9NRTVXs7NfV++vrBIT060T6+LeQXmYQXxZPpUN6WO759JsOTDVuZTzeMjjYR29rL/cloK+62VctxxL/zcNGSBfSqwnpn/zy1b79sr+fgYCQPgPkhB+RMTQISPOL4vn0qwUeB+d30CcicBuBOKEkjF7tq/DIx0NIF9Kr6ajM8H7bsJPj50J6jnaYeyuE9LIDfJarmPFY0nvffVjNuDJ1YSqkz90T+TwEbieQsU6Zui+y/rJj9BD+QrqQXk0xFRMTWfITyDj45adW/xYK6WULgCwhPUz2vOeFC0J6/X2bPWiPgPkzLvqoIeHR38zDT0gX0qsJ6dEpWPITENLzt9EUWyikzzNoryuOMoX08CseT1q3rT19X0iforexTgSGEzh79ULfJPtU4YCQTtQqRF0WdXGFxpKbgJCeu32m2johXUi/7tb9Hz+uanxZjjNj/ldIv26FfyNQlsCXv37Tfb80Zh9nXdON/UK6kF5VZxUzclpyExDSc7fPVFsnpE83UG9TBGW7kh6eeT59cS6kT9XjWC8CwwhEX7lNn+p3yo5p+C/OhXQhvarO6uHZ0bBe2V/NRkBInw11qg8S0ssWNBlDegja+/PpQnqqbsrGIHCesUYRSMuOn1n5C+lCelUh3eRx+UfYjANgfmr1b6GQXrbIyBrSw+yen08X0uvv2+xBWwRMGld2rMoaiDNul5AupFcV0uMgsuQmIKTnbp+ptk5IL1v4ZA7p4VzGfmGOokxIn6rHsV4EdifQ+509c/R5PmO8WkBIF9KrC+lTFT27d/f+YhWBjMX4qu30vXEJCOnjDcxDipzsIT2eT+/xCtZU41XG4y27g+P2eNZWI4Ge7+oZMq74m7LjupAupFcX0hUCuYfGjCE9nOn5f1GYTP1mhIyhQUDK1VdkdGTqIrQnB6Pv77mfjX2PmcPjhJQlJ4EPfvq0upp36j7K+ssG8U38hXQhvboOK17rY8lLIGNI39QJ9vSzaJupwnrGANZTQIqAUMMS29nTMdeTgz2166Z9jTtGajkea+gzxtzG9777sKv+Z5OnfpY3nC/bRkgX0qvrsGIAtOQlIKTn7vjj+JkiqAvpZdu9plDQUx8hpJc9LpbFbon/xlVbSx4CZ69eVFfvlvDWZ+bps4R0Ib3KTmuKkJFnKKl7S3oqwGsdzCKoj31LppBedmCvKaT39Hy6kF72uCjdR9d0XNZdedy+9Z+9OK6y3i3tsM8v14cJ6UJ6lZ1WdLaWnASE9HId+i6D6djFo5Bett3Hbs+pe5eMvuxy/Gz7u0J62eNi23aa6vfc+Td1T7L9+j2P3vexONUxPuV6hXQhvcqQ7jay7QemuX9TSK9jILz79NGoamQMXT0FpNpCesj38OyoyvFnl6KsJwd34dLT707lwKgdeAcr8zx6HbVJT33DbfsqpAvpVRZJ0dlachIQ0usZCMc0SEgv2+41hvTwL04W3Vao1PzzqQJaxuOt5naacttrPTbHHB9Kr8vz6GXHpymPr5bXLaQL6dUWSJ5LLz3srf58Ib2ewXB1Cw77bsbQ0FNAqjUIRPEctwS3Wmj15GCrbbjvftV6bA4bCXL+lefR66lL9j3eWvp7IV1Ir7Y4inc/W/IRENLrGQzHtEdIL9vuNQeBeLd0S4XV5X0R0sseF5fbotTXNR+bY44RJdcVr+4t1f4+Vx8w1AEhXUivtuPyvvSSQ976zxbS6xmQ1rfi7j8R0su2e+1BoNXn04X0ssfF0OJ4zL+r/djcfTTI9xct360zpqvWlau/EtKF9GpDullT8w2EsUVCeq5OftOgO6ZBQnrZdm8hCLT4fLqQXva42NT/zfWzFo7NMceKudeVcWyayz2fU3f/I6QL6dWG9Oh8piqA5h5EWvo8Ib2eQWFM7zIWQlP1Dxn3tYUg0OLz6T05KBCs7vtbODbHHCvmXlerd+k43lYfby1xEdKF9KpDenS+llwEhPR6Bo4xzckYXHsKSK0EgdYmeOrJwZaK4zH3pZVjc8zxYs51tXiHzph+Wlfemk1IF9KrDuljv+t5zoGj1c8S0vN2+NcH4zEdFNLLtntLQeCDnz6tely6fJwJ6WWPi8ttUerrlo7NMceMOdbl1WuOv1LH/RifK6QL6dUXQ9EJW/IQENLrGRTHtEZIL9vuLQWBl3/+3sz704X0ssfFGIXyvuto6dgcc8yYY13xFqB928/fO4ZLOSCkC+nVd2Bxe6QlDwEhvZ4BbUxrhPSy7d5aEPjhj+dNvD9dSC97XJQqri9/bmvH5pjjxtTr8uo1x9/lY7G2r4V0Ib36kO5VbFMPc7utX0ivZ1DcrWU3/7aQXrbdWwwCLTyfLqSXPS4yFOUtHpubR4McP407cjK0v23QBwx1QEgX0pvoxHIMCbYiCAjp9QxIYxorpJdt91aDQO3PpwvpZY+LocXxmH/X6rE55vgxxbpaOMk3pofWVV9fJKQL6U2E9C9//WaKPt46BxAQ0usZCAY079o/EdLLtnurQSCuhr333YfVjlNCetnjIkMwafXYXDsYJPmBW90dexmO/322QUgX0qstfi6LH1dbLDkICOn1DIxjGiOkl233loNAPJ9+ub+v6WshvexxkcGVlo/NMceQMdflVnfHXYZjf99tENKF9GqLn8vyv/vtgzH7d+vag4CQXs/guEcz3/hTIb1su7ceBGqdpVlIL3tcXK4TSn3d+rF5YzBI8A23ujvuSh3vY36ukC6kNxHS46Bwy3uCkdEz6VUdT2MaI6SXLYp6CAI13r4qpJc9LsYsmIeuq4djc8yxZIx11dhXDPXL37XbxwjpQnpVoWJTZ+SW9zGGtv3X4Up6PQPG/q19sQYhvWy79xAEanw+XUgve1xsqhnm+lkPx+bFSFD+K7e6O+bmOran/hwhXUhvJqS75b384BhbIKTXM0COaYyQXrbdewkCtT2fLqSXPS6mLqK3WX8vx+aY48k+63Kru2Num+Oyht8R0oX0ZkJ6HHBued9naBvnb4X0egbIcVr8r7UI6WXbvacgEPtaQ4EV2yiklz0uMnjS07E55pgydF13nz6qpn/I4KdtyNtHCelCelOdmVvehw5r4/2dkJ63w78+GI/X6uevw8j19Zf+d08BqbcgUEs/05ODpY/3rJ/f27E55riy67rOXr1oqqbN6rTtmqfOE9KF9KY6NLe87zqkjf/7tRTPBpnFqI3vSvo8g/Y6b3sLAvHcafT363hk+b6QXva4yOBBb8fmqAPLjisL1hna3DY47sdwQEgX0pvr0OJ5JEs5AkJ6PYPTmJYI6WXbvccgkNG564WZkF72uLjeHiX+3eOxOebYssu63vvuw+Zq2hLO+swc/ZaQLqQ316HFqzcs5QgI6Tk6920G2TEtyRiYegpIvQaB7FfOenJwmz6nx9/p9dgcc3zZZl0Zx6AefbfP49WAQrqQ3lxIjw4iboW0lCEgpI/XQU892I1pSMYCqaeA1HMQyNzn9OTg1P1Vrevv+dgcc4y5bV0xJ1GtjtjueuqmOdtKSBfSm+zUPvnlq9v6cz+fiEDmgnnOzrWGzxpTASG9bJHRcxDI/Hy6kF72uMjQD/d8bI45xmxal3ejO84yHOtjb4OQLqQ3GdLjFRyWMgTicYOxOyrrm2YAHtOQnkJ6xhmEew8C8frNjP3EVCG9tvfFZ2ybubbJRYMxR5rV6wrGc7Wnz5mmHsH1JlchXUhvtmOLIsYyPwGD5c2ONuPgM/bcDRmvZESYnmrJNrO4/u78/OHZUbrxbMpHr7I5mLGfy7BNjs2peuGL9Zowro66I8PxWNM2COlCerqiZqwDyDvTLwawOb/KeJVxLKdaWs8Ub0HI9ExgPHYx5RJXrrP4EAWq5S8CcRdVlnaZ2sFMx1sW5tm2w7E5fc+U8S6ubB7anjpPYgjpQnqagmbsTiSuMkx5FWP6oafeT8gUYMb2qoX1TRUe4gRNhqt7sQ1TX72KviXDvoaPU91SXWMPxME6i9EW+tVV++DYu0q5fQAAIABJREFUnL4XcbLKMb/q2Gvhe0K6kN5sSI8DdIqrhdMPOW18goEz58AZVxqnPHkV4bhkeI3Pnuu4L72v+rjVfWXpdpnjJNFyz0vvawuF8FT7MFc/tHShx/+6cy9nnTHVMdXbeoV0Ib3pkG4CubLDdkzmZLb3HINo3HY51+RiUTjFSZo5w3p8VnxmfPacS5zwCK5z7msUKjGnQAQ0y2oC0S7xjPqc7VLSwbmPt96K5V3217G5+pic4rvu2stRX+xyfPjd7dtMSBfSmw7p0RkoZKcYGndfZ9z2539lGEx55fw2EyI0T93ucwfzdfs8x77qz9bRX//9OdqlJwenPp5rXb9jc/0xONVP5jwJJ1xuHy6xGoeVkC6kNx/S4wqDBQEEEEAAAQQQQKANAvE4gTA4ThjEMSdHIV1I76KTK3klsY3h0F4ggAACCCCAAAI5CGR6k4OQmzPk1t4uQrqQ3kVIn+tZ3BxDl61AAAEEEEAAAQTaJBCPRNQewGy/YH+bA0K6kN5FR+ddpW0O1PYKAQQQQAABBPoiYEJaAfe2gNvCz4V0Ib2LkB4Hq9eh9DWI21sEEEAAAQQQaItATNLYQgCzD0403OaAkC6kd9PZxZlXCwIIIIAAAggggECdBGIy4NvCjZ8LwC04IKQL6V11dvEckwUBBBBAAAEEEECgLgKuogvfLYTvbfdBSBfSuwrpXsdW14BsaxFAAAEEEEAAgSDgKrqQvm3AbeH3hHQhvauQHgdtnIm1IIAAAggggAACCNRBwFV0Ab2F4L3LPgjpQnp3Id3V9DoGZFuJAAIIIIAAAggEgXiV7i4Bx+8K9bU7IKQL6V12eq6mG/QRQAABBBBAAIH8BF7++fv5u98+6LJerT1o2v7hJ0uEdCG9y04vzshaEEAAAQQQQAABBHITcBV9eNATkutlJ6QL6V2G9DgjG2dmLQgggAACCCCAAAI5CbiKXm/IdIJgv7YT0oX0LkN6dByupucckG0VAggggAACCCAQBB6eHXVbpwq5+4Xc2vkJ6UJ6t52fq+kKAAQQQAABBBBAICcBM7r3HVJrD9n7br+QLqR3G9Lj4HE1PefAbKsQQAABBBBAoG8C3osupO8bdGv+eyFdSO86pLua3ncBYO8RQAABBBBAIB8BV9EF9JoD9hjbLqQL6V2H9DiIXE3PNzjbIgQQQAABBBDol4Cr6EL6GEG35nUI6UJ69yHd1fR+iwB7jgACCCCAAAK5CHz927Pua9Oaw6VtH+cEi5AupOsIXU3PNTrbGgQQQAABBBDolsD7zx6rTeWT7h0Q0h0E3R8EyzN+8fyTBQEEEEAAAQQQQKAMAVfRx7kKu6xt/bdenkK6kC6k/+1APP9kQQABBBBAAAEEEChD4L3vPlSXyiYcOFmcC+kOBAfCJQdcTS8zKPtUBBBAAAEEEOibwCe/fKUmvVSTugpe71XwMdpOSHcw6BAvORDPQVkQQAABBBBAAAEE5iPw8s/fz2Mi3zHCjXX0HW5baX8h/VJAa6VR7cd+nVM8D2VBAAEEEEAAAQQQmIfAw7MjAV0m4cAlB4T0SzCE2/3CbSv87j59NM+I5FMQQAABBBBAAIHOCcSjhq3UkPZDlhjLASFdSNcxrnDgsxfHnQ+Zdh8BBBBAAAEEEJiegFeuCbZjBduW1iOkrwhoLTWwfRnW8cXsovF8lAUBBBBAAAEEEEBgGgJf/vqNi0WyCAdWOCCkr4Ai2A4Ltq1x++jnz6cZkawVAQQQQAABBBDonEBcDPHKNTV3a/lhrP0R0oV0Z682OOCVbJ1XEHYfAQQQQAABBCYhEBdDxgo01iPst+aAkL4hoLXW2PZn9w7s/o8fTzIwWSkCCCCAAAIIINArgR/+eC6gyyAc2OCAkL4BjlC7e6htkZlXsvVaQthvBBBAAAEEEJiCgMni1NgtZoYx90lIF9KdxbrFgXheyoIAAggggAACCCCwP4F4g86YYca6BP4WHRDSbwloLTa6fdq9MzOJ3P6DsjUggAACCCCAQN8EYrK4d799IKTLHxy4xQEh/RZAAu3ugbZFZjGgmESu78LC3iOAAAIIIIDAfgRirp8W60T7JC+M7YCQLqTrLLd0IJ6fsiCAAAIIIIAAAgjsTiDm+Bk7yFifcNyqA0L6lgGtVQHs126d25e/frP7qOQvEEAAAQQQQACBjgl4J/pu9ab6HC8hXUh3VnMHB+K29xhoLAgggAACCCCAAALbEXh4dqTe3KHeFNKFdCHdAaPT3NGBGGgsCCCAAAIIIIAAArcTcJu7wOmkw+4OCOk7BjSS7S5Zi8y8O/32QdlvIIAAAggggEDfBNzmrm5uMQfMsU9CupDuSvoAB+Ld6W5777vwsPcIIIAAAgggsJmA29yF9DkCbYufIaQPCGgtimCfdu9E3fa+eWD2UwQQQAABBBDol4Db3HevLdXjmC0dENKFdFfS93DAbe/9Fh/2HAEEEEAAAQRWE3Cbu7C5DJv+O8wFIX2PgEa6YdK1xM1t76sHZ99FAAEEEEAAgX4JfPDTpy4CyRgc2MMBIX0PeC2FTfsy/ISD2977LULsOQIIIIAAAghcJfDlr98IZ/IFB/Z0QEjfE6BwOzzctsTObe9XB2j/QgABBBBAAIH+CMRt7u9++0BAky84sKcDQvqeAFsKmvZl+AmHGJDM9t5fMWKPEUAAAQQQQOCCwPvPHgtnsgUHRnBASB8BonA7PNy2xO7+jx9fjFK+QgABBBBAAAEEOiLwyS9fCWdyBQdGckBIHwlkS2HTvgw/6fDZi+OOhmO7igACCCCAAAIInJ//8Mdz4Uym4MCIDgjpI8IUboeH21bYxW3vZ69eGK8RQAABBBBAAIEuCMTjfnefPhLQZAoOjOiAkD4izFaCpv3Y72RDDFQWBBBAAAEEEECgBwJet7Zf3ajuxm+VA0K6kO6s1wQOfPTz5z2My/YRAQQQQAABBDomEI/5rQoYvid4cmA/B4T0CQIaKfeTshV+XsvWcdVi1xFAAAEEEGicQDyH7nVrat5W6vZs+yGkC+nOgE7kgNeyNV6d2D0EEEAAAQQ6JeA5dOE8W6htbXuE9IkCWmui2J9hnXG8L9SCAAIIIIAAAgi0RMBz6MPqQvU0bts6IKQL6a6kT+yA59NbKkvsCwIIIIAAAn0T8By6oLlt0PR7w10R0icOaOQcLmdL7L789Zu+R3R7jwACCCCAAALVE/Acurq2pfo8874I6UK6K+kzOOD96dXXJXYAAQQQQACBrgl4Dl1AzxxqW9s2IX2GgNaaNPZnWCft/eld1zZ2HgEEEEAAgaoJ3P/xYxd25AYOzOSAkD4TaMF2WLBtjVtMtGJBAAEEEEAAAQRqIhDz67RWk9kftXlmB4R0IV2nO7MDMeGKBQEEEEAAAQQQqIHA1789UyvOXCtmDo+2bZ6TG0K6g07HW8CBmHjFggACCCCAAAIIZCZw9urFecyrI5jNE8xwxnnpgJBeIKAt4ftvvweiieQylyS2DQEEEEAAAQRMFNdvnSqjlG97IV1Id3a0kAMxkVwMgBYEEEAAAQQQQCAbARPFlQ9qwnK/bSCkFwpoDrp+D7rLbW8iuWwlie1BAAEEEEAAARPFqVMv16u+nt8HIV1IdyW9sAMxEFoQQAABBBBAAIEMBGKCW6Fs/lCGOeaXHRDSCwe0y43h634PTjO+ZyhLbAMCCCCAAAJ9E4iJbU0U1289KovkaXshXUh3tjSBAzEgmvG978LI3iOAAAIIIFCSQMyTI6DnCWkCc99tIaQnCGgOwr4PwmX7m/G9ZGnisxFAAAEEEOiXgJnc1aLLetR/c7ggpAvprqQncsCM7/0WSPYcAQQQQACBUgRiIlvhLEc40w7aIRwQ0hMFNAelgzIciKBuQQABBBBAAAEE5iDw8OxIQJcHOJDMASE9WYMI6oJ6OODVbHOUJT4DAQQQQACBvgmYyV3dKXvkdEBIF9KdOUvqgKDed+Fk7xFAAAEEEJiSwNe/PVMDJq0BBeecwXnOdhHSHZw66MQOfPLLV1OOz9aNAAIIIIAAAh0S8Ko1IXDOwOmzdvdNSE8c0Ai9u9AtMvMO9Q6rJ7uMAAIIIIDARAS8ak192WK93No+CelCuivpFTggqE9UqVgtAggggAACHRHwqjUBvbUw2+r+COkVBLRW5bNf2w8U8Q71uDXNggACCCCAAAIIDCUQb5BRf21ff2GFVSkHhHQhXWddiQOC+tCSxN8hgAACCCCAgHehC5ylAqfP3d09Ib2SgEbu3eVukZmgrshCAAEEEEAAgV0JCOjqyBbr4pb3SUgX0l1Jr8wBQX3X0sTvI4AAAggg0C+BeFNMy2HGvjkB0aIDQnplAa1FCe3T7p2roN5vsWXPEUAAAQQQ2JZATDyrztq9zsIMs9IOCOlCus67Ugfe++7D85il1YIAAggggAACCFwnEBPOlg4aPl/Y5cAwB4T0SgMa4YcJ3xq3mKVVUL9elvg3AggggAACfROIgB533bVW99gf9W8vDgjpQroOvHIHBPW+CzF7jwACCCCAwGUCcfJeQBdmewmzre6nkF55QGtVTPu12+AiqF8uT3yNAAIIIIBAnwQioHsX+m41lJoTr4wOCOlCuivpjTggqPdZkNlrBBBAAAEEgoCALmxmDJu2aZiXQnojAc0BMOwAaI1bBPV4Ds2CAAIIIIAAAn0RuP/jxy68qOs50IgDQnojDdla2LQ/w086eD1bX0WZvUUAAQQQQOCDnz4VztT0HGjIASG9ocYUbIcH29bYCeoKNgQQQAABBPogIKCr/1qrY+3P4lxIF9KddWvUAUG9j+LMXiKAAAII9Evg4dmROq7ROk5Q7fvki5DuwNa5N+yAoN5v4WbPEUAAAQTaJvDZi2M1XMM1nJAupL91cHL4mAh9i6D9223/COoxkFsQQAABBBBAoA0CAnq7dZuaXNuGA66kOwPnLGwnDgjqbRRm9gIBBBBAoG8CAroQJ8i374CQ3klAczC3fzBv08aCet+Fnb1HAAEEEKibgICuntum3vM79XsipAvprqR35kDMAmtBAAEEEEAAgboICOj1By/hWRtu64CQ3llA21YMv9d2JyKo11WY2VoEEEAAgb4JfPnrNy6qqNk50JEDQnpHjS14tx28d23f9589Pn/55+99Vz32HgEEEEAAgeQEfvjj+XlMArvrOO/31X0cqNcBIV1I1+l37MDdp48E9eTFmc1DAAEEEOiXgIBeb8gSkLXdPg4I6R0HtH3E8bftdDzepd5v8WfPEUAAAQTyEhDQ26m11M3aclcHhHQh3ZV0Dry+jS6ed7MggAACCCCAQHkCArpQt2uo8/ttOSOkC2hCOgfeOOAVbeULM1uAAAIIINA3AQG9rbAlPGvPIQ4I6QLam4A2RCB/017HY+b3votDe48AAgggUI6AgN5eXaVW1qZDHBDShXQhnQM3HDDze7kCzScjgAACCPRJQEAX5oaEOX/TpjdCuoB2I6A52Ns82Hdt15j5PQoGCwIIIIAAAghMSyDmhfGaNfXXrrWa32/XGSFdSBfSObDWgSgYTCg3bWFm7QgggAACfROI+WCErXbDlrbVtkMcENIFNAMDB2514KOfP++7grL3CCCAAAIITEBAQBfghgQ4f9O+N0K6gHZrQNMRtN8RbNPG93/8+Pzln79PUKJYJQIIIIAAAv0RENDVV9vUX36nT0+EdCFdSOfA1g54Tr2/ItIeI4AAAgiMT0BA7zN4CdzafVsHhHQBbeuAtq1Ufq/tDshz6uMXa9aIAAIIINAPAQG97TpJHax9x3BASBfShXQODHLg4dlRPxWVPUUAAQQQQGAEAp/88tWgMXeMot86hEcO1OOAkC6gGSw4MNiBuP3dc+ojVG1WgQACCCDQPIEPfvp08HgrXNUTrrSVthrDASFdQDNgcGAvB+L2969/e9Z8cWUHEUAAAQQQGEpAQBfcxghu1tGPR0K6gLZXQNNZ9NNZ3NbWXtM2tHTzdwgggAACLRMQ0NVKt9VQfs6R6w4I6UK6kM6B0Rx4/9nj87NXL1qutewbAggggAACWxGIx8Hi9aXXi2//Fsg4wIHbHBDSBTSDBwdGdcDs71vVbn4JAQQQQKBhAhHQY96W2wpxPxfWOMCBVQ4I6QKaAYQDkzgQs7+bVK7hCtSuIYAAAgisJCCgC12rQpfv8WIXB4R0AW2SgLaLhH633U4rriL88MfzlUWMbyKAAAIIINAagRjzXEFvt65Rs2rbuRwQ0oV0IZ0DkzsQ74W1IIAAAggg0DKBCOjxyNdcRbzPERg50K4DQrqAZjDhwCwOmFSu5dLUviGAAAJ9ExDQ2w1LgrC2LeGAkC6gzRLQSsjtM/N1qiaV67uItfcIIIBAiwQ+e3GsllJPc4ADozogpBNqVKEE43zBOGObxCtpTCrXYqlqnxBAAIG+CAjo6p6MdZZtqt9LIV1IF9I5UMQBV9X7KmTtLQIIINAagXiLiTBUfxjShtowowNCuoBmgOFAUQdcVW+tbLU/CCCAQPsEPvjp06JjZ8ZQYZuEXQ6M54CQLqAZZDhQ3AFX1dsvaO0hAggg0AKBeFQrJkIVRsYLI1hiyYGbDgjpApqBhgNpHHBVvYUS1j4ggAACbRKIgO4d6DfDhICFCQfGd0BIF9DSBDQH+PgHeI1M46p6TMRjQQABBBBAIAuBeMXae999qGZSN3OAA7M4IKQTbRbRagyLtrnsSQPvVc9SmtoOBBBAoG8C3oFeth5Qj+HfowNCupAupHMgrQNxVf2jnz/vuzq09wgggAACxQh4xZqA2GNAtM/lvRfSBbS0AU0HUb6DyNIGcYvh1789K1ak+WAEEEAAgf4IfPLLV2okdTIHOFDEASGdeEXEyxL+bEddJwLilTcxcY8FAQQQQACBKQl4xVpd9YF6Tnu15oCQLqQL6RyoyoG4BT6ublgQQAABBBAYm4BXrAl7rYU9+1On00K6gFZVQNPR1NnRTNFu8Roct8CPXZ5aHwIIINAvAa9YU2NMUa9YJ6+GOCCkC+lCOgeqdsAt8P0W1PYcAQQQGIuAGdwFqSFByt/wZioHhHQBreqANtWBYb11dbpmgR+rTLUeBBBAoD8CX/76zXmMI8b+usZ+7aW9WnZASBfSDUocaMaBmAU+ii0LAggggAAC2xAwg7ug13LQs2/1+i2kC2jNBDQdUb0d0dht9/6zx+dx66IFAQQQQACBdQTM4K5uGLv+sD5OjeWAkC6kC+kcaNaBKMDOXr1YV5/5PgIIIIBAhwTM4C5IjRWkrIdLUzkgpAtozQa0qQ4a662rQ14+r+796h1W4nYZAQQQuEYg7rKKt4MYy+say7WX9urNASFdSDdQcaALB5Zh/Vq95p8IIIAAAp0QiNd2miBO2Ost7NnfOp0X0gW0LgKaDqrODmqKdovJ5T57cdxJSWo3EUAAAQSCQPT7U4wp1qm+4AAHpnBASBfSDVoc6NIBYV3hjgACCPRBwARxQtQUIco6eTWlA0K6gNZlQJvyoLLuujrtmAk+boG0IIAAAgi0RcAEcXWNx+on7cWBCweEdCFdSOcAB04W58J6W8W5vUEAgb4JmCDuotgXfLDgQH0OCOkCmoDGAQ5cckBY77uwt/cIIFA/ARPE1RdIhEhtxoGrDgjpl4pzclyVAw88enZAWK+/ULcHCCDQH4FPfvnKiWe1LQc4UL0DQjqJq5e45yBp36c/kSKs91fk22MEEKiTgAniph8T1R0Yc2AeB4R0IV1I5wAHtnDAbPB1Fu22GgEE2icQE8TdffrIWLbFWCZgzROwcMZ5XweEdB2aQY0DHNjBAWG9/YLfHiKAQD0EYoK4d799YBzbYRzbNzz4ewGUA9M7IKTr1AxsHODAAAeiKPzo58/P4wqOBQEEEEBgfgKfvTg2fg0YvwSs6QMWxhjv64CQrnMzwHGAA3s4EGE9noM8e/Vi/grVJyKAAAKdEnh4dmTs2mPs2jdA+HshlAPTOiCk6+AMchzgwEgORFiPV/9YEEAAAQSmIRB3L8WEngLCtAEBX3w5UNYBIX2k4pzIZUXGH/9MDsQERnEbpgUBBBBAYDwC8fx5zAuSqb+3LeoPDnBgCgeEdCHdYMcBDkzkQBSTnlsfr0C3JgQQ6JdAnPg0QZwwNEUYsk5eZXRASJ+oOM/Y2LZJJ8SBcg64Fb7fcGHPEUBgPwKePy83dqkbsOdAGQeEdCHdVVQOcGBGB5a3wpsVfr+i3V8jgED7BDx/XiYcCGW4c6C8A0L6jMU54csLrw20QRYHlrPCxzOWFgQQQACBqwS8/9x4nWW8th1cLOGAkC6ku4rKAQ4UdsDV9avFuX8hgEDfBLz/XCgqEYp8Ju8yOSCkFy7OM8lgW3ROHCjrwPLqute49R1Q7D0CPROI+TuMRWXHIvzx50B5B4R0Id1gyAEOJHQgZob/5Jevzs9evei5XrfvCCDQCYHo6+KuIuGgfDjQBtqAA+UdENITFucOjPIHhjbQBpkceP/Z49fvXTfZXCdpxW4i0BmBuHvI69WMu5nGXdvCx9IOCOlCurPWHOBAJQ4sb4f/8tdvOivh7S4CCLRK4KOfPzcGVTIGlQ4tPl9w7skBIV3HaHDkAAcqdGAZ2M0O32p0sV8ItE0g7gy6/+PHxp8Kx5+egpJ9dWKglANCus7RAMkBDlTuQDy//vDs6FxgbzvU2DsEWiEQfVX0W6WKX58reHGAA9kdENIrL86zC2b7dIIcmNcBgb2VGGM/EGiTQLxezfPn844LxmG8OVCfA0K6kO5MNgc40KgDAnubIcdeIVAjgbi93evV6gsKwp0240AZB4T0RotzB1SZAwp33LM6sHyG3aRzNcYb24xA3QS8Xs3YmHVstF3czOqAkC6ku4rKAQ506EBM2BS3nXqtW93hx9YjkJ1AnBh0e7sglDUI2S5uZnVASO+wOM8qo+3SUXKgjAN3nz46j9cgmXgue9yxfQjURSAmtNSvl+nXccedA3U7IKQL6QZQDnCAA28cWN4W7yp7XWHI1iKQiUDcofP+s8dv+hVhoe6woP20Hwfmd0BIV5wbRDnAAQ6sdSCussfVsK9/e5YpA9gWBBBISiD6Cre3z1/QC1GYc6AtB4R0xfna4tzB3tbBrj215xgOxLPsn/zylVvjkwYkm4VASQLx2MwY/Yx1GK84wIHeHRDShXQDKgc4wIFBDsTVMqG9ZCTy2QjkIOD2doGq90Bl/x0DYzsgpCvOBxXnY4tofTo3DtTvwDK0x9U0t8fnCE+2AoGpCbi9vf6+2/irDTmQzwEhXUgX0jnAAQ5M5kBMHhXPtMdrmLzubeq4ZP0IzEvA7e35CnthS5twoA0HhHTF+WTFuU6ijU5CO2rHMR1477sP39wi72r7vIHKpyEwFgG3txsXxhwXrItPHLjpgJAupAvpHOAAB4o6EDPIf/DTp68npBPcx4pR1oPANATc3n6zmBYwMOEAB8Z2QEhXnBctzscW2vp0khxow4Hrwd2t8tMELmtFYBcCbm9vo381TmpHDuR3QEgX0oV0DnCAA1U4ELfKxzPuERQ+e3Fscrpd0pXfRWAPAm5vz1/QC13aiANtOSCkK86rKM51PG11PNpTe47pwKrw7sr7HonMnyJwiYDb2/XXY/bX1sUnDmzngJAupAvpHOAAB5p1IK68x7vcL199F+AvJTBfIrCBQLyZQUG9XUGNE04c4MCYDgjpinMDMAc4wIHuHLg8y/wPfzzfEFP8CIH+CJy9enEe80KMWXBalwDDAQ5wYHsHhHTFuUGYAxzgQPcOvPvtg9czzMez7q609xdK7fEFgS//v707do3kSPsArGRmFSpyvMnlm1y+wfcHTKAeNhRcdtGCuVzgzMnCwsUCh06Eg42HL1h1Y8PJHFxgOJDBwYIDiw9s+IIDHa92e1caaVYzo+6erqpHYGStpFH3W0/11K+6u/q376+iPxhMrz+YViu1YoCBrg0I6Qbn3ogZYIABBpYMxFnE1+/eXMUZRR8qUEIFYnIqHoXY9UDT6wkvDDDAwOYGhPSlgRlEmyNSMzVjgIGcDURgd4a9hJha7j7GLR8ub3ccz/k4bt/4Ts2AkC6kmzVngAEGGFjDQHtJvHvYyw2zOe55XDHi8nYBJrUAY3uZzd2AkL7GwCx3BPbPgY4BBhjYzECsGh+PpvKhAqlWIC5vjycf6Pub9X31Ui8GGBjCgJAupHuDZoABBhjY0oCwnmpELXu7Y4IpnnAwxEDT3xBoGGCAgc0NCOlbDsxg2xybmqkZAwzkaiAW3LIqfNnBN5W9/+qXb4VzYz8GGGBg5AaE9JE3UK4DWvslrDHAQG4G4r7eeHyVDxUYYwU8+9wxN7djrv1hOmcDQrqQbiaNAQYYYKBDA3FW3YcKjKkCnn0uzOQcZuwb3zkaENI7HJjlCMQ+OfAxwAADmxuIx1m5/H1MMbXMbfHs8837ruOdmjHAwBgMCOlCujNoDDDAAAM9GBDUywzGY9nreFSgxeGEjTGEDdvAIQObGxDSexiYgbg5RDVTMwYYyNFArP7uQwWGroDF4RxPczye2ieuSzIgpAvpzqAxwAADDPRo4MufT4bOaP5eoRWIxeFiYqikgax9FdwYYCBHA0J6jwOzHMHYJwdCBhhgYHMD8VxqHyrQZwW++XVxFU8Y0D83759qpmYMMDA2A0K6kO4NnQEGGGCgZwMue+8znpb92rE43OFPX+vDPffhsQ3gbY9QyUDeBoR0B3Vv7AwwwAADAxiIhbx8qECXFYgrNCwOl/dAXRDTvgyUaUBIH2BgpnOV2bm0u3ZngIGbBtyb3mU89Vrh6aYv/+94wwADDORjQEgX0r3JM8AAAwwMYCDOePpQgcdWIK7IiMf7GYznMxjXltqSAQaWDQjpAwzMlovuax2RAQYYKNNArL7tQwW2rcDrd28sDmfcZoKGAQYKMCCkF9DIwkCZYUC7a3cGxmcgVuD2oQKbVsCj1cbXlx1ftQnDQLyCAAAgAElEQVQDDPRpQEgX0s3GMcAAAwwMZMB96ZvGUz//3W/fO3s+UP/sc8DttQU6BhjYxICQ7sBvcM4AAwwwMJABj2ITutetgEerGdBvMqD3s7wwkJcBIX2ggZmOk1fH0Z7akwEGtjHwxQ9H62Y0P1dwBTxazfFlm+OL3+GGgXwMCOlCujNoDDDAAAMDGig4e9r1ByoQZ889Wi2fQbbApC0ZYGBbA0L6gAOzbRvJ7+ngDDDAQD4GrPD+QFIt9NserZZPH3e81pYMMPBYA0K6kO4MGgMMMMDAgAbiUmYfKnCzAl/98q0+OGAffOzg2e8LYAww0LcBId2bgoEBAwwwwMCABoT0m/G07P939txAv++BvtdnjIE0DQjpAw7MdJI0O4l2024MMNClASG97GDe7v3rd29MjhmDMcAAAwzca0BIB+NeGF0OSL2WgMMAAwx8MiCktzG1zM+xJkE8ik+f+NQn1EItGGCAgdsGhHQh3UCBAQYYYGBAA0J6meE89jrOnsdj+AxGbw9G1UM9GGCAgdsGhPQBB2bw3canHurBAAMlGhDSywvpzp471pV4rLPP3DOwvQEhXUg3o88AAwwwMKABIb2skP7NrwtnzwfsX0LB9qFA7dSOgfEYENK9cRicM8AAAwwMaEBILyOkX/7n96vDn77WtwbsWwLGeAKGttAWDDzOgJDuzcMAggEGGGBgQANCev4h/bvfvnf2fMA+JQw8Lgyon/oxMD4DQro3EYNzBhhggIEBDQjp+YZ0Z8/HN9AVPrQJAwykaEBIH3BgliIQ2+zAxgADDHRrQEjPM6Q7e95tP3HcUU8GGCjZgJAupDuDxgADDDAwoIFY6dtHPhVw9lyQKDlI2Hf+GejHgJA+4MAM4n4Qq6u6MsBASgbyiaf2xNlzx56Ujj22lVcG0jEgpAvpzqAxwAADDAxoQLRNvwLOnqcz0BVKtBUDDKRoQEgfcGCWIhDb7MDGAAMMdGfgT//4a/oJtfA9cPa8u/7g2KKWDDDAwP0GhHQh3Rk0BhhggIGBDPzPv44Lj7jp7r6z5/cPJA2w1YUBBhjo3oCQPtDADN7u8aqpmjLAQGoGhPQ0Q/o3vy4899x4yWQmAwwwMJgBIR22wbClNpi2vQIgAwx0beCrX75NM6UWutWxEn9MrHTtwOs5tjDAAAMMfM6AkC6kG3wwwAADDAxkQEhPJ+2/fvfG2fOB+sXnBqq+J8gwwECJBoR0b0AG5wwwwAADAxmIRcd8jLsCzp4LBCUGAvvMPQPjMiCkDzQwA39c8LWH9mCAgV0Y+N//+9e4E2rhW+fsuePCLo4L/iZ3DDCwbEBIF9KdQWOAAQYYGMhA4Rl4tLv/4x8XV3/+59/0g4H6wfJg1NcCCgMMMHDbgJDuDcmghAEGGGBgAAOekT7OjB7rBBgc3h4cqod6MMAAA7s1IKQPMDCDfLfI1V/9GWBgDAY8fm1cIT1uPXD23LFhDMcG28AhAwwsGxDShXRnEBhggAEGBjBgZfdxhPTL//x+9eXPJ8wPYH550OlrQYQBBhhYz4CQ7k3KQIUBBhhgYAAD3/y6GEdKLXgr4ux53HZgkLjeIFGd1IkBBhjYjQEhfYCBGdy7wa3u6s4AA2MyYGX33c0OxNnzw5++Fs6NeRhggAEGkjAgpIOaBNQxDbRti+DHAAPbGNhdRC37L8cVDF/8cOS9zniHAQYYYCAZA0I6rMlg3WZQ7HeEKQYYGIMBK7sPP1Hw8///ehWL9Y2h/W2D4xADDDDAwCYGhHQh3QCGAQYYYKBnA1Z2HzakxyJ9zp4bEG8yIPazvDDAwJgMCOk9D8zG1Ni2xcGHAQYY2I0BK7sPE9J//OPCY9WMa0w6MsAAA8kbENIhTh6x0LGb0KHu6s7A+gas7N5vSPdYtfUt6rdqxQADDIzfgJAupAvpDDDAAAM9G7Cye38h/bvfvvdYtZ79GtCPf0CvjbQRA3kZENK9sRmcM8AAAwz0bKC/iFruK8fCcB6rltegVMjQngwwwMB7A0J6zwMz0BxsGGCAgbINWNm9+4mE1+/eWBjO+MXkIgMMMJCzgZO9aT0/NogsexCp/bU/Awww0I8BK7t3F9ItDNePUX1fXRlggIGxGZgfC+lmoXKehbJvfDPAwE4NWNn98SHdwnBjGzzaHoGGAQYY6NfA/Hjvydnhy37/iEZUXwYYYICBMg1Y2f1xIT0WhvPM8zL7jmOmdmeAgXINzI/39uvD5+UWAH5tzwADDDDQnwEru28X0mNhuLhVgM3+bKqt2jLAAANjNSCkGwC4FJYBBhhgoDcD20XUcn8rLm2PWwQMHMc6cLRdbDLAAAP9GxDSDQQMzhlggAEGejFgZffNJhviqoOoWf+DHwNMNWaAAQYYGK+BuB3d5e4GpwZEDDDAAAM9GLCy+3oh3TPPxztQNIjXNgwwwMDwBuJ29L3J2+qZ4g9ffDVXcwYYYCBvA1Z2fzikR40sDJd3P3Cc074MMMDAZgauQ/re3t6ewm1WOPVSLwYYYICBhwxY2X11SHdpu/7zUP/xfUYYYKBUA0J6D5c3lorJfjuQMsAAA7cNWNn9bkh3afttI/qMejDAAAMMLBuIK93jRLoz6cK6+1EZYIABBjo2cDeilv0vLm03EF0eiPqaCQYYYOCugeuAfh3Sm+pcge4WSE3UhAEGGGBgGwNWdv80IeHSdn1omz7kd7hhgIFSDXwM6ZO6WpRaBPvtAMAAAwww0LUBK7tfXcWl7VGHrmvr9fRXBhhggIGcDQjpHV/amDMW++ZgyAADDKxvoOSV3S//8/tV7D8v63tRK7VigAEGGAgDcfL8U0hv5q/AAIMBBhhggIFuDHz32/efrvcu6P9iRfu41J+jbhypozoywAADZRm4FdKn9fwYgLIAaG/tzQADDPRn4Mc/LgqK5ldXcd+5S9v786Svqi0DDDBQiIGmOv14Jv3J2eFLDV9Iw7vE3xkeBhhgoHcDpST0uLT9L//+e+/1NEYxRmGAAQYYKMPA/PhjSI8Hppex03BrZwYYYICBfg38+Z9/KyKje6Rav470U/VlgAEGSjQgpJv5dzaNAQYYYKBzA7mv7O6+8xIHjfZZWGKAAQYGMXA2n308k763mB0M8kcNBjsfDGo3BwwGGGBgXAa+/PkkyzPp7jsflzP9XnswwAAD+RmIK9w/hfS9vT2NnF8ja1NtygADDAxvILfHr8Xzzt13PrwjfVfNGWCAgfIM7Ncvnt4O6U11DkJ5ELS5NmeAAQa6NZBLSPe8825d6GfqyQADDDDwkIFbAT2+iGeyPfRLvg8WAwwwwAADnzcQl4Wn/vH63ZurL344couW2/QYYIABBhgYzsDF3ZDezF8ZeH1+4KU+6sMAAwww8JCBlEO6ReH4fsi37zPCAAMM9GMgTprfCenTen6s4P0UXF3VlQEGGCjHQIohPbY5Hh3HaTlOtbW2ZoABBkZn4ORuSD+bzzTU6BrKgGm4y0vUWq0ZYKATA3E2OpWPCOfxyDjv/97/GWCAAQYY2LWBG89Ib9N6LPeuYXbdMP4+gwwwwEDqBlJYOC5WbD/86Wvh3MQUAwwwwAADYzFw6xnpbUr3GDZAxwLUdrDIAAMJGxjzc9I9Ts0kWOqTYLafYQYYyNXA5G317EY0//S/07q6yHWn7ZcOzQADDDAwhIG4t3tsH8I5+0PY9zc4Y4ABBrY38CmVL/2fx7BtX1Qg1Y4BBhhgoDUQzxgfw4dwzmRr0mcWGGCAgVEbuPv4tTarW+F91A3n8teEL391UNS3GCjLwK4Xj7MgXFneHF+0NwMMMJC2gXsfv9aG9EldHWngtBtY+2k/BhhgYPcG/vSPv+7kRHpMDlitffftrw9qAwYYYICBzQzcs7J7G9Kt8A7TZpjUS70YYICBVQZev3szSFCPS9pjRfmYGFi1Lf6dUwYYYIABBsZrIE6Wt5n83s8ab7yNp220DQMMMJCOgS9+OLr68Y+L3oJ6nDX3GLV0POi72ooBBhhgYJWBOFl+bzhv/9EK7/CswuPf2WCAAQY2MxBB/bvfvu8sqMdr/eXff7+K19UWm7WFeqkXAwwwwMBYDbRZfOXnaVOdjnXjbZeOxQADDDCQooEI1nFZ+qYfcSY+Lpt3xpz7FN3bZm4ZYICBNQw01fnKcN5+wwrvaxTSKuPO4DDAAAMMbGEgnqH+5c8nV3GpeqzAvvxf3Fse34/F35wt935scMsAAwwwUISBkzaLr/xs8bgiIBhcbzG4dpDUNxhggAEGGGCAAQYYYKBLA0/ODl+uDOcfv7GYHXT5R70WxAwwwAADDDDAAAMMMMAAAwzcNfDgonFtULd43N3iAaUmDDDAAAMMMMAAAwwwwAADXRpoM/iDny0eB16X8LwWTwwwwAADDDDAAAMMMMDAkoF1Fo1r07vF45aK5/5l97AzwAADDDDAAAMMMMAAAwx0a+DhRePakG7xOCHdLBcDDDDAAAMMMMAAAwwwwEB/BiZ1ddRm8LU+a4z+GkNt1ZYBBhhggAEGGGCAAQYYKNvA5G31bK1w3v7QtKnOoSkbjfbX/gwwwAADDDDAAAMMMMBADwaa6rLN3mt/njTzVxqjh8bo9h4G94SoJwMMMMAAAwwwwAADDDCQmIFJXS3WDuftD07P5jMhXUhngAEGGGCAAQYYYIABBhhgoGsD8+M2e6//eTE70BBdN4TXY4oBBhhggAEGGGCAAQYYKN1ALNa+fji/8ZPuS9d5Su889l8fYIABBhhggAEGGGCAga4N3Ijdm/2v+9Jh7Bqj12OKAQYYYIABBhhggAEGSjaw1f3obZR3X7rOU3Lnse/8M8AAAwwwwAADDDDAQPcGtrkfvU3p7ku3SmJiqyR234EclNSUAQYYYIABBhhggAEGujOw8fPR23zefnZfeneNAbZaMsAAAwwwwAADDDDAAAMFG9jm+ehtOG8/uy+9YEDOoruSggEGGGCAAQYYYIABBhjozkBTnbZZe+vPsTS8mR5BnQEGGGCAAQYYYIABBhhggIHHGZjU1dHW4fzmL06b6lJjPK4x1E/9GGCAAQYYYIABBhhggIGyDezXL57ezNpb//+0qU5hKhuT9tf+DDDAAAMMMMAAAwwwwMAjDDTV+dahfPkX45S8xnhEY7iHo7t7ONRSLRlggAEGGGCAAQYYYCBBA7He23LW3vrrOCUvpAvpDDDAAAMMMMAAAwwwwAADDGxnINZ72zqU3/eLHsW2XUMArG4MMMAAAwwwwAADDDDAQOEGunj02nJQf3J2+BKswmEleEkJs8wywAADDDDAAAMMMMDACAycLGfsR389eVs9G8GOufdCUGaAAQYYYIABBhhggAEGGEjLwNl89uhQft8LTOvqQlA3C8UAAwwwwAADDDDAAAMMMMDA+gbuy9ed/FusRqch1m8ItVIrBhhggAEGGGCAAQYYYKBwA0112kkgv+9FXPJeOC6X1KR1SY320l4MMMAAAwwwwAADDOzcQDzS/L583dm/ueRdUDcTyAADDDDAAAMMMMAAAwwwsJ6BvcXsoLNAft8LueR9vYYAVp0YYIABBhhggAEGGGCAgcIN9HmpexvYXfJeODKXy+z8chkHen2QAQYYYIABBhhggIE0DPR+qXsb1F3yngYIHVc7McAAAwwwwAADDDDAAAM7MtBUl22G7v3zk7PDlxp6Rw3tTLYz2QwwwAADDDDAAAMMMMBACgZOeg/n7R/Yr188FdKFdAYYYIABBhhggAEGGGCAAQZWGDibz9oMPcjnSV0tNMaKxjCrlcKslm3klAEGGGCAAQYYYIABBvoycDFIML/5R+IGeCFdSGeAAQYYYIABBhhggAEGGGDgtoF4KtrN/DzM/y9mB9OmutQYtxtDPdSDAQYYYIABBhhggAEGGCjbQNwiPkwwX/or07o6ga9sfNpf+zPAAAMMMMAAAwwwwAADNww01flSdB7uy/368LnGuNEY7ufo634Or8sWAwwwwAADDDDAAAMMJGFgsGejr4r+npkupJuoYYABBhhggAEGGGCAAQYYqK7ilvC9xexgVX4e5N89M11n1BkZYIABBhhggAEGGGCAAQauDQz3bPSViT8WkHPZRRKXXWgnB04GGGCAAQYYYIABBhhgoD8Dk7fVs5XZechvWECuv0bWgdSWAQYYYIABBhhggAEGGEjAwC4XjFueALCAXAJgXO3gagcGGGCAAQYYYIABBhhgoDcDO18wbjmoT5vq3OyOsM4AAwwwwAADDDDAAAMMMFCcgVgwbmwfMWtQXEOYheptFoolB3YGGGCAAQYYYIABBhhIx8D8eGwZ/Xp7Yrn5dIoIvLZigAEGGGCAAQYYYIABBhh4vIH9+sXTcYb0en6sgR/fwGqohgwwwAADDDDAAAMMMMBAMgZG8Ni1FVMEMXsAUjKQXKrudgUGGGCAAQYYYIABBhhg4JEGYiH1FRF5HP/scWxCuokaBhhggAEGGGCAAQYYYKAEA5O6WowjiX9mK5xN1xlL6Iz2kXMGGGCAAQYYYIABBhiYns1nn4nH4/lWzCYACywDDDDAAAMMMMAAAwwwwEDGBi7Gk8If2JK4Jj/jhnDPxiPv2WDDgZoBBhhggAEGGGCAAQZSNxCPIX8gGo/r286m63SpdzrbzzADDDDAAAMMMMAAAwysMJDOWfR2qsDZdJhXYHYlgisRGGCAAQYYYIABBhhgIGkDyZ1Fb4O6s+mCuqDOAAMMMMAAAwwwwAADDGRloKku9xazgzb3JvXZ2XSdMavOaLYz6dlOFh2PGGCAAQYYYIABBroxMD9OKpgvb6yz6TpCNx1BHdWRAQYYYIABBhhggAEGdmwg5bPobVh3Nn3HiJz9dfaXAQYYYIABBhhggAEGGOjIQOJn0dug7my6oG7GjwEGGGCAAQYYYIABBhhI2kAOZ9HbkO5sus6YdGc069jRrKN+oB8wwAADDDDAAAMMpGsg2RXd22C+/NnZ9HQxOpBoOwYYYIABBhhggAEGGCjcQHrPRV8O5ctfO5uuUxfeqZ2NdkUCAwwwwAADDDDAAAOJGsjuLHob2KdNdSqoCesMMMAAAwwwwAADDDDAAAMJGcjvLHob0vfrF08TagizXInOcjHmgM8AAwwwwAADDDDAAANdGYirwttMm+XnaV2ddFUsr6PjMcAAAwwwwAADDDDAAAMM9GUg1lbLMpjf2qnF7GDaVJd9FdHr6qAMMMAAAwwwwAADDDDAAANdGJi8rZ7dyrO5fjGt58ddFMxr6HgMMMAAAwwwwAADDDDAAAM9GTjJNZPf3a84m15XFz0V0r3k7iVngAEGGGCAAQYYYIABBhjY3kBTXcaaanfDbMb/Mj2bz4R0M14MMMAAAwwwwAADDDDAAAPjMzA/zjiOr961uAl/fI2hg2gTBhhggAEGGGCAAQYYYKBgA/k+cm11PH//nbgJv+CG3/7SC5etqB0DDDDAAAMMMMAAAwww0I+Bs/nsoSyb9fcnzfyVoG6WjgEGGGCAAQYYYIABBhhgYNcGynjk2kNTDB7J1s/sj1k1dWWAAQYYYIABBhhggAEGNjJQ3GJxq/K6ReTMmO16xszfZ5ABBhhggAEGGGCAgdINFLpY3KqgbhG50juE/femwAADDDDAAAMMMMAAAzszUO5icatCelxWAOTOQG50CYh20k4MMMAAAwwwwAADDDCQk4H9+vD5qqxa9L9P6/lxTg1tXxy4GGCAAQYYYIABBhhggIHRGzgpOog/tPPTpjqHePSInXm3AAcDDDDAAAMMMMAAAwykb6CpLvcWs4OHcmrR3/fsdAHdJA0DDDDAAAMMMMAAAwwwMIiB0p+Jvu7sg8vedchBOqSZz/RnPrWhNmSAAQYYYIABBhjY1kBTna6bUf1cPDu9ri4ENWGdAQYYYIABBhhggAEGGGCgcwMuc9983sFl7zpi5x1x2xk2v2d2lgEGGGCAAQYYYICBvAy4zH3zkB6/4bJ3QV1QZ4ABBhhggAEGGGCAAQY6NeAy9+0CevtbVnvXITvtkGZA85oB1Z7akwEGGGCAAQYYYGATAy5zb6P29p9d9i6kC+kMMMAAAwwwwAADDDDAQCcGXOa+fTi/+ZtPzg5fdtIgm8yw+FkzcgwwwAADDDDAAAMMMMBANgYmzfzVzZzp/x9ZgUldLQR1s2cMMMAAAwwwwAADDDDAAAMbG2iq873F7OCRsdSv36pAPJatqS43bgwzX9nMfGl7B2MGGGCAAQYYYIABBhjYxkDcRn0rX/qimwpMz+azbRrE7+jIDDDAAAMMMMAAAwwwwECZBuL26W4SqVe5twJxH4HOVWbn0u7anQEGGGCAAQYYYIABBjYy4HFr9+bqzv/RY9l0zI06plse3PLAAAMMMMAAAwwwwECJBi7ch955HL//BffrF0/dny6oC+oMMMAAAwwwwAADDDDAwCoD7kO/P0/39q/uT9cZV3VG/84GAwwwwAADDDDAAANlG3Afem9R/PMv7P70sjueA6/2Z4ABBhhggAEGGGCAgTsG3If++SDd93c9P12nvNMp3W9U4v1G9pl7BhhggAEGGGCAgatYv8x96H2n8IdeP56fXlcXgpqwzgADDDDAAAMMMMAAAwwUbKCpLt2H/lCAHuj70RAWkiu4M5oxNGvMAAMMMMAAAwwwwAADZ/PZQBHUn1mnApO6OjJrJqgzwAADDDDAAAMMMMAAAyUamB+vkxv9zMAVsJBciZ3RPnsTYoABBhhggAEGGGCgaAMWihs4eW/45ywk5wBV9AHKZV4u82KAAQYYYIABBhgoyYCF4jZMzLv48VhIrqnOBTVhnQEGGGCAAQYYYIABBhjI2EBTXe7XL57uInb6mxtWIBrKQnIZd8aSZgbtq5lwBhhggAEGGGCAAQbuNWAl9w2D8q5//HrFd5jvxWw20QQGAwwwwAADDDDAAAMMpGwgFg7fdeb097eogBXfHXhSPvDYdn4ZYIABBhhggAEGGLhr4MnZ4cst4qFfGUsFogHBvgtbTdSEAQYYYIABBhhggAEGEjRwMpasaTseUYFpXZ0kiM+l6m5XYIABBhhggAEGGGCAAQZaAx619ohUPMJfFdTNEpqoYYABBhhggAEGGGCAgUQNeNTaCFN2B5vk0WyJdsh25sxns6gMMMAAAwwwwAADDJRnQEDvIA2P9SU8Q728Du0grs0ZYIABBhhggAEGGEjXQFNd7i1mB2ONmLariwoI6ul2UAdXbccAAwwwwAADDDDAQDkGmurSs9C7CMEpvEYE9bq6cD+Ky98ZYIABBhhggAEGGGCAgREaENBTSNbdbmPMyEyb6lKHHGGHNDtazuyottbWDDDAAAMMMMAAA8sGBPRuw29KryaoC+gmaRhggAEGGGCAAQYYYGBEBgT0lCJ1P9sqqI+oQy7PoPnarCoDDDDAAAMMMMAAA0UZ2K8Pn/eT/LxqUhUQ1AV1s6cMMMAAAwwwwAADDDCwWwOTujpKKkja2H4rIKjvtkM6IKo/AwwwwAADDDDAAAPlGhDQ+827yb66oF7uQcEbgrZngAEGGGCAAQYYYGAHBmIx77P5LNkQacP7r4CgvoOO6T6jou4z8uanjzHAAAMMMMAAAwxcG7BIXP8BN5e/IKg7aHjjYIABBhhggAEGGGCAgR4NCOi5xOfh9uNDUD/XMXvsmM6gO4POAAMMMMAAAwwwwEB5BgT04YJtdn9pMTuYNpWg7sBZ3oFTm2tzBhhggAEGGGCAgT4MCOjZxebhd0hQd3Dq4+DkNbligAEGGGCAAQYYKM1AU53HFcvDhzp/Mb8KvA/qpy59d+k7AwwwwAADDDDAAAMMMLCFgaY631vMDvILi/ZopxWY1tWJDrlFhyxthtD+mhVngAEGGGCAAQYYYOCTAQF9pzk2+z8+aeavBHVBnQEGGGCAAQYYYIABBhhYy8BJ9iHRDu6+ApO6OtIh1+qQn2bPzCSqBQMMMMAAAwwwwAADRRmIE5y7T2+2oJgKTM/ms2lTXQrrwjoDDDDAAAMMMMAAAwwwcNtAnNgsJhza0fFU4MOz1AV1M6JFzYh6A7r9BqQe6sEAAwwwwAADDNww0FSX+/Xh8/GkNltSXgU8ok1ANUnBAAMMMMAAAwwwwAADYeDCI9bKi8Tj3OMI6lZ+d2B2YGaAAQYYYIABBhhgoFQDVnAfZ1Ytfaum9fzYpS43LnUp9QBlv705M8AAAwwwwAADDJRlwArupYfhMe+/BeWEdBM1DDDAAAMMMMAAAwyUYsACcWNOp7btYwU+LCh3XkrHtJ/ehBhggAEGGGCAAQYYKMxAU126//xjBPQ/SVTAfeoucSrrEiftrb0ZYIABBhhggIFCDEzqarG3mB0kkctspAosV+DJ2eFLs4qFzSoWcnDmmmsGGGCAAQYYYKA8A5Nm/mo58/haBZKrwPXl73V14SBW3kFMm2tzBhhggAEGGGCAgSwMNNVlrL+VXBizwSqwsgLvn6d+mkUHdabYpVwMMMAAAwwwwAADDJRjoKnO9+sXT1dmHd9QgZQr4PJ3M6kmahhggAEGGGCAAQYYSMWAy9tTTp+2fe0KuPzdQTmVg7LtZJUBBhhggAEGGCjUgMvb1853fjCXClj9vZzLg1wKpq0ZYIABBhhggAEGEjJg9fZcQqf92KoCsfjCNGapEuq0trXQ2VRGDS4YYIABBhhggIG8DTTVZdyeu1Ww8UsqkFUFLCqX98HOm5n2ZYABBhhggAEGGBi7gaY6j9tys8pZdkYFHluB60XlnFV3AB/7Adz2McoAAwwwwAADDGRmYH782Czj91Ug2wrEow3iHhCXlLuknAEGGGCAAQYYYIABBno14Ox5trnSjvVQAWfVHZB7PSCb/c5s9lt/0V8YYIABBhhgYFMDzp73EOO8ZPYVcK+6ICVMM8AAAwwwwAADDDDQoYG4ate959knSTvYdwWuV4Cvqwuzg5vODvp5ZhhggAEGGGCAAQYYuDZg5fa+Y5vXL64Ci9nBpPfY+joAAAV4SURBVJm/cpB1kGWAAQYYYIABBhhggIGNDDTV6d5idlBchrLDKjBEBeLSFAvLOShvdFDu8PIof5c9BhhggAEGGGAgKQMX+/Xh8yFyir+hAsVXYFJXR1OPa3N/kgDOAAMMMMAAAwwwwMCygeucYGG44kOjAuygAi6Bd0BePiD7mgkGGGCAAQYYYKBsA011Go913kE68SdVQAXaCni2elKXHJX9pmHQoP0ZYIABBhhggIF+DDTVuUvb24TkswqMpALRKadWge/noOfNRF0ZYIABBhhggAEGxmngIm6FHUkksRkqoAL3VcD96s6sW9CFAQYYYIABBhhgIHMD7X3nVm2/LxL5NxUYYQUWs4NpPT+2uFzmB+dxzuaaZdcuDDDAAAMMMMBAjwbi0cweqTbCDGaTVGCtCrRhvceDhFlaEwEMMMAAAwwwwAADDAxi4MSicGulID+kAuOvQHTmaV2dOHgOcvA0c2xSiAEGGGCAAQYYYKBLA8L5+COXLVSB7SogrAvpJmoYYIABBhhggAEGkjEgnG8Xe/yWCqRXAWE9mQNzlzOwXsuMPgMMMMAAAwwwkIYB4Ty9iGWLVaCjCrT3rF+vDim4mlVmgAEGGGCAAQYYYGCHBoTzjmKOl1GB9CsgrJtVTmNWWTtpJwYYYIABBhjIy8CHR6lZEC79SGUPVKC3Clw/Z72uLnY4g5jXgdcbqfZkgAEGGGCAAQYYuGvg4snZ4UuPUust1nhhFcivAvv14fNpU50K6y75YoABBhhggAEGGGCgGwOTulrESbH80oM9UgEVGKwCcenNpJm/mrpv3Qzw3RlgNVETBhhggAEGGGBgPQMnk7fVs8EG8f6QCqhAARVYzA6uL4VvqnMzqd3MpKqjOjLAAAMMMMAAA1kbcEl7ATHJLqrAKCoQs4DTujpxdj3rNxWz4uvNiquTOjHAAAMMMMDAsoGTuHV0FAN3G6ECKlBYBT6cXY97a8wCC+wMMMAAAwwwwAADxRpoqnMLwRWWheyuCoy9AnHv+rSeH0+tDL88k+prs+sMMMAAAwwwwECeBi5i7Sb3mo89qdg+FVCBvThQXS82J7B7Q87zDVm7alcGGGCAAQZKNfB+MeWT6dl8ZtivAiqgAklW4PpRbu5f90Ze6hu5/WafAQYYYICB9A0I5knmEButAiqwRgWcYXefWrH3qRmgpT9A04bakAEGGCjLgGC+xujej6iACmRVgfcrxM+Ppx7pVtYbngGO9maAAQYYYICB8Rpwj3lWicPOqIAKbF2BWHTuwzPYTz3Wzdl2Z9sZYIABBhhggIHBDDTVaazKHuPRrQezflEFVEAFcq9Ae5bdo928QQ/2Bj3eGX1nW7QNAwwwwAADXRpoqvNY4NhzzHNPFPZPBVSg1wq8X3xufiy0C+1COwMMMMAAAwwwsJGBD6H8ejX2xeyg10GrF1cBFVCBUivQhvZpU7k8vsuZZa/lTAUDDDDAAAMMpGygqS7fn9SZH1+fKRfKS40L9lsFVGDXFYh7iGJ2NC5dcrbd7PpGs+spD0Rsu4E0AwwwwEDhBmLc92H8dxS3S+56TOrvq4AKqIAKfKYCbXCf1h8vk78Q3gR4BhhggAEGGGAgSQMX7RnyWGxYIP/MINi3VEAFVCC1CsSlT9crydfXj387deY9yTdqZ04KP3NigK3fMsAAA5kaiPvH62rx4STLkUvWUxtp214VUAEV6LICi9nB9b3uZ/PZ9RvDh0vnhfhMBwFCrokOBhhggAEGhjfwMYRXJzeDuMefdTmo9VoqoAIqUFAF4g0kgnz8F8/TjDeX5UAfof462DfVpVl+AZ8BBhhggAEGcjXQjnnaz9P6ffCOsdH7546/HzO5NL2gwbJd7aQC/wUoFO2Jl+D0TQAAAABJRU5ErkJggg==;" vertex="1" parent="1">
          <mxGeometry x="-495.5" y="58" width="78" height="77.92" as="geometry" />
        </mxCell>
        <mxCell id="9kiI-FGZhQjWvuLCRh8d-155" value="LIINE Plattform" style="text;strokeColor=none;align=center;fillColor=none;html=1;verticalAlign=middle;whiteSpace=wrap;rounded=0;" vertex="1" parent="1">
          <mxGeometry x="-502" y="135.91999999999996" width="91" height="30" as="geometry" />
        </mxCell>
        <mxCell id="9kiI-FGZhQjWvuLCRh8d-156" value="User" style="sketch=0;outlineConnect=0;fontColor=#232F3E;gradientColor=none;fillColor=#232F3D;strokeColor=none;dashed=0;verticalLabelPosition=bottom;verticalAlign=top;align=center;html=1;fontSize=12;fontStyle=0;aspect=fixed;pointerEvents=1;shape=mxgraph.aws4.user;" vertex="1" parent="1">
          <mxGeometry x="-677" y="77.92000000000002" width="58" height="58" as="geometry" />
        </mxCell>
        <mxCell id="9kiI-FGZhQjWvuLCRh8d-159" value="" style="shape=image;verticalLabelPosition=bottom;labelBackgroundColor=default;verticalAlign=top;aspect=fixed;imageAspect=0;image=data:image/png,iVBORw0KGgoAAAANSUhEUgAAAW8AAAFACAYAAABzxv33AAAAAXNSR0IArs4c6QAAAARnQU1BAACxjwv8YQUAAAAJcEhZcwAADsMAAA7DAcdvqGQAAL0bSURBVHhe7L13nGTLVdj/PXVvx8lx49vwcn7KgLKEAGERJYJFEsH8MMYGfgSDMQJhEGAMtgn+ORAEAiMEkixkhMjKQhnpvaeX39scJ6dO91ad3x9Vt7unJ+7uzOzObn/30zsz3be7761bderUqRNEVZUuXbp06bKrMJ1PdOnSpUuXa5+u8O7SpUuXXUhXeHfp0qXLLqQrvLt06dJlF9IV3l26dOmyC+kK7y5dunTZhXSFd5cuXbrsQrrCu0uXLl12IV3h3aVLly67kK7w7tKlS5ddSFd4d+nSpcsupCu8u3Tp0mUX0hXeXbp06bIL6QrvLl26dNmFdIV3ly5duuxCusK7S5cuXXYhXeHdpUuXLruQrvDu0qVLl11IV3h36dKlyy6kK7y7dOnSZRfSFd5dunTpsgvpCu8uXbp02YV0hXeXLl267EK6wrtLly5ddiFd4d2lS5cuu5Cu8O7SpUuXXYioqnY+2eXaRFVRBBFQBUURETpvoSD+teaxCiLdmXqXovj7nd13Ql8QEawqtu3+CxCJINkfzR++V4iEJ7vserrCexegCk6VhdQx23DMNlIm6inTDcu8tTQcWAUjhgilYKA3NgwVcgznI/pzhv6cYSA2FCODU8V0B/E1j6rigPnEMtNwTNUtZ2spF6op87WU2XqdRacsWkeiSqSGWIRSuN/D+Zi9pRyHewrsKUWMFWP64+4Ufr3QFd7XKA5wTlmyjk9PLPKJyRrHKwkNq1i8tuWyWye0NCrNNHRQYzACsQixEQbE8UBZuWOwzJ0jA/TlY2ITtDTaPqPLjtO8Z/iJ+EI14bNTVT47W+NcPSVVpeGURmJxNgWn5PJxEPAC6u+dqkUQjIi/n+GRN4ZypNzdV+DL9/VztL9ALF4r79733UlXeF9jWFWqqeORmQqfnJ7lkbmU+Qak6h/ZMFO80M5uXnYb/ThcPhglHB+ppd/WiVEKkWFPT4mDfWVuG+7l5r48w/kYI37Z3WX78fdMSFWZSxxPLNR5ZK7G0/MNzlRSEufCJO1AbHbXAePNZc7bUvz0G4wj2RweJnHae4MIBkPORBztK/Ki0SLPHykwWIiJurd819EV3tcIVpXEKScWG/zRUzOcWFgikRRHhGJwgGCaw5c2Ab5ZBEfeWQQFFYxAQwwmisgb5bnDZV65d4CbynnKscEAkbmEL+iyKVywUzccTFYTPnC+ykcml5hRi7VKHPY2VBWDoGTCO9DsBOaSOkCweqMiKJBD2FuI+JZbBrh/qETeSHfi3kV0hfc1gFXlQi3h7c9M8NnpKnWnOL+eRdUEzaq1WQVt6vQloQi2qZ6pgBLhv8H4142wpxRxb3+eV471crSvSCa/u3byK8MFoTxTT/jIxUU+MbnI6WqCS5REhIYRYjWIurZbm/3mms94Mm17tXuyTscQwYoDlJwTrxoYuHO4zBuOjnCwXOhubO8SusL7KqLBjvm52SpveXKC+XoDCziMF95E0DY8t0J4Q8vGmb1dJLOZCmrIzoC8U+4cLPPy/QPcM1BgKI6ay/Ium0dVSRSeWWzwickqH72wwFyjgTMOUTAOrBGsGGJ/49Hm/dEguE342S6wO8VsdkfbtPROjPdEUlGMU4wTxBisgf5inu8/OswDQyXypvOzu1xrdIX3VaRuHX92Ypa/OreAs4rTNAzaCK8beVy2sdTxftps4JthtRvtN7VAwoYX4j0c/NB1iEQYY+jLxbxqT5nX7OulFBu/Ibb8o7p04M0jcGKpzp+cmOXYkmOxXsM6BTHNCdgouCho1m61u0SH8M4Ea3uvaIl7sGt2DAVU/HEmu+cIGgnOQV+pwNft6eGrDwyQ65rMrmm6wvsqoMH964+fmeGjF5ewwdPAOYdmWrE3S/vfM7na9hn+hVWeuxzE/xd+tKnkfvnubaUQRcJoIeZFo728eKyHfcW4O8BXQYFq6nh0rsaHLyzxT9MV6tb5Cbl5f9uHnaIoiK5+P5UgsHUVO/cGwlvbj2n/0x+braT8nBEBjmIU85oDfXzdwUHKsVn9nLpcdbrCe4dxwVTye8em+eD5RcR5QW0zz5E2D4HmjVlr9GyV8GZ1dzHFhecVxXmNTSIMMUWT46v39/Jle8v05gyRdG3iVpXUKedrlj86McMjM1XU+pVMEoKljAaJuWLYOQga8QqawlvaHp2sJ7w7Bb6G72vvY0KwmSEIUWT4psMDfM3+fu9SeIPf22uRrvDeQVSh4ZQ/PDbL355bBHWgDidCahSnEPkxtTFBum/q2Msl+3DxWiFYUCHWPLgIJGK0BC/dW+Qr9vbRl4tuSAGuYVI+X0l45+lZPjFbp5IqsXVEwQKdxF54R+la4rfdULYaXgC3pvaMdim9XHi35oI1hDetVZ2X5N4nXBAQQySGNxwd5Mv39RB3V1jXHF3hvYOkzvHBC0v83lOzJDYbrIoTwYaRJpsQyJL9t2N3Ljup7BwF76cAIoqg7ClFvPamQV4w2kspCgEiNwAKTNdTPnxhgb86M8+MdSSZmcmpN0SIf6iCBNP2ytbZzM3MhHfr71WFt1hAWvsYzWOzn5nnisMbarLXgv+4tj66N2f4qXvGuK235XXU5dqgK7x3CKvKw7M1fuOJGZaq9WZeCpVgb9zEwBCubPl6+be6Q2RkA9yLCBTFoBRyMQcLMd9x6zC39XuXs+tVE882Iz89VeGtx2aYS1Osc1jFb0aqF7USjoXMUnKFG73tpo4V3ibOz+nifF6bYAZp3fd2QU9YE8jKDdDsOwREHQN54c0P7GdPKX9l595lS+kK7x1iKXX8x4fO8+RcPSyQvcR2rBTcnTckmJ39a6oY45e2GjY62wVkc5iG9yz7Gx9yv20oxBj6czFfMlrgyw72s7ecI77OBHiiyonFOu89Pc8/TdeoOHDZ5gWZ0PP3J4hDCHlKVtzsS8KvgHzKMSjkC15I+y9ARH0eHHywj03bJw3ahHS26ltdeCuZ+6gPD4sMvHxPL99z2xjxlZx+ly2lK7x3gMQ5/uj4NH9/epGGU2xzDIVhuEybCgSBl5lRFC+0I4Q4MhRin4QqVh/qnjOCU2hYRxKGpQ0h9fU0xVkbtMIg+Du/rn2QX+oA1TDYHZiQVyNG6SkJ33LzMM8bKlOIdn/0XqpK3SofmFjgz07MUksd6iSsO8IGoIb9geA3v1J4t5PNyHhtve25TD9XFFEvmHNRRD42xEBPbDjYU2S8GNMbCcXIr4AqqWMqSTm5mDBVd1RTS8OGVZ4X9f5ccd6Go3QI7+zbfbBQtrGZM8KP37OH+4eK1+1qarfRFd7bjAJPLdT4hYcvUGk4L1RjP75NcArwwjmwbFyEQYQSR0I+jrm7L8dzBgsc6c0zkIvozUfkm8ml/CCtW0fVKouJZaaecrzS4KnFBk8u1FhstJbxzgRh41pbWhomE9i8mSXbGGsOfYmaXslRZLh3oMC3HB3gUE8eaX38rkHDiuXpxQZ/eGyOJxcaWNfas2gd1/LgkMw5v9WYzeMyJJglCOkPsmMlrKY0ZH/cU4q5d6jIXf0F9hZjhos5emNDPhihmwnK8JOoAKlT5hLLuWrKRycqfOj8IolzOCTMLUF4Zyfc+oTmcxHSFN4g7O3N86b7xhnMx7vuHl6PdIX3NpOq8muPX+QzExVccAl0xgdmyAbC2+vZhnwEzxkr89X7erilNx+0MoWgR3Xawb05pfWp2WdXU8ej8w0+P1Pl0cUaJ+t1UqdEVslZQ+QEK5AGRWzTXSMT3uE0Whtl2RNCXz7iG4/088LRMv05Hzm6G9CQiveDFxd454lFKmlIFOVfxaBeEDblc5tHSBB64dBl6x0BnwRMExwRqcSoCiKGosQcKMfcPZDj+WNFbun1piffvv6+bkb7bQl14eRSgz8+McHnpyoYG2FNMPXQ3vmyKTwT3v693k1UMLHhDUeHePW+vu7m5TVAV3hvI1aVh2aq/MdHLpJYb59GvEnDkA3o5fjkU2HpLYb+cpF/caiX5wyVyG+B6SFVbwivWsdUI+X95xf4yMQSNSfYxGKNkApEmXdgYFPdpO0QEb+M92Yh730SGeWOvjz/+o5RhvLxFV/LdmNVma6n/NYTEzw+38C5cG80BNUg3t1TgnaqAm3Jw7zy7f8RptNMpmt4u2ARUWKTpxwV+KLhAl+6t8x4KSZvfPKwrdgz8CYfx1+dmeOdJ6ZIw1TSvGXLbq9p8yH0PofZdQwXYn71efvoiUxzsu5ydegK722kah2/8dhFPjtV80mJvFm4SXvfz26CUYPDkY8N/XHE997qc03k2vJubwXeNiukTplpWB6erfKJ6QoPzdeoOiVKHehKl79lS/Rlr6yPiDf/GIHBguG1Bwd42Z4+ciHn+LWEVcU65QMXF3nXyVnmEod1XvxqU+vO0JZpYYXw9vesadTKrlM1WJmVQhRxuDfi+cM9PHekhz1Fn2OdUClnK1Ggllr+75kZ3nVy1mewcc6f2DIp4M+69Xv2mxAB33xkkK+6qb8bXXuV6QrvbUKBc9WEn/z8OSqJ19YI+tpaqAhGI4xAKQ8/fPsoDwyVVjiEbTW+C/i80qcrCX98eobjFWWplpLYtDmwvcD3f4ZfYRNCfLkQUiKUHMLzR8p8260jDOSja0YLt86bSf7o+CQfmaigTnFh8zFj+ZBZS3iLF95ecfV6q/jnjVpK+YixnOG1Nw3y7BE/Oe9UvphUlT8+Ps17j8/gYoM610yCtpLl1y4Ch8o53vTAXnrjrvZ9NekK720icY7fOz7LX51fxFlHrGGJvRphAPghFBNHEd9wqJevO9i3JUvmS8WqcnIp4YOTVd5/YYFqalGrpE37elhGZz1nk10oE+KChDBxZV9Pnm+/eYgHBktXvSCAVeWJ+TpveXqKE5UGzrGO0G4+u0J4I97DW9sEN6pE4ncx7hzM81UHe7mzv3TVApoWE8svPnSepxdqPkBMg/D283gb4Y+QA1wUYon4t/eM8cBw/pqZdG9EusJ7G1BVzlRTfuLhC1TrFpwNPiNrIKBiUYUcBZ410sOP3zV0VZelWe7pc7WE95yZ49NTVeYTG1LV+kFuOoX3mhfo6RRSqoIxUIyE197Uz1fs76doro4wq6WOf7xY4W3HZph1Fht8tMncINcV3pkhO8i6ILzB15UUFSKBm3tzfOWBPp43WiIfmW0xjWwWBU4s1vnFBy8w1/B9j8ysJ83/2i4qZH1XsCLcOdjDv793kNLVnnFvYLrCextQhb86P8fvPT1DLhES055cfznqxzpWLEaFkuT4iXvHuWugcE3kk/BluGCqnvKnJ+f5+OQiSfBZzq7J0OZRdglkdncRiATuG+jh39w5QjnyNTd3gtT5a/ntx6f4+MQiDXVY4zckxa1lSlhJuxBWEdACoMQC5Qi+69YBnj1cpGh27to2wiq8/Zlp/urEHKilFkVoCAJqzUbZxOydVlGwBqI4z8/fN8Lt/d2oy6vFdptTb0h8KHwVo5nzVeeGUIus45vg0f2i8TJ3XCOCG3w9y5wR9hRz/D+3DvPjd43znEFvo21XzrLhfsmo4pySOuHzM3V+7sFpHplrkGxnJGggVeVMNeHND0/wkYklEgWHj1L05o/Od6xBuPhM1IkahJj+OMdrDvTwS88Z44VjJXp2cFLaDILysr19DERx21S81vl5l0g1FhGHdSkPzlY3azHrsg10hfc2UEkdx+a9h0karb9JCX7cGKAnjnjdocGrai5ZCxFv3nhgqMSP3j3Ov7x1mNHgGWGaJpTNn3f7gi/bprPqOLlU4z9+YYKPTlRouE203WWSqvLwTJV/9/nzPDxXIVXnBbf4aRTXyt/SSVMfzWYsCb+Ir/mZj4Tb+iN+4dlDvP5IH+NF7xZ5tUwka5EFAL3ipn6f9TDTusO+RjsqiiNFTYqSYNTy2FwNu1Yjddl2usJ7i1FVPju5wEJicUZoRGFQbDBuxRnuHCjSn7+2k98bgbwRXjLWyy/cu5fX7O2nbGJiDEb9Jt2lo8HukuKoUXd13vLkBL//1BRLydomp8vBqZKq8t6zc/zWkxdopHVEGygpzlgf4LTKF2YCu/lSm6atoSpOJNAbG773tiF++t4B9hUN8Ra7eG41kcCL95cplUCjoF2r84E5wTuq/ZoBn0MFy/HFOjONtO3TuuwkXeG9xTjgE5NLpF6N6VRgVuCFhWKM8rLx3l2T+CcSYTQf8W1HB/nxe0a4vS+HEee3ZS/zGiRkxQOoupQPnFvkvz02wWQtXeZffrmoQtUqbz0+w9tOTDPf8PsMrQIJUbs63fn2FSigJsK6HEYivniszC8/ay8vHeuhFPn0qtc6IsJALuLO/nLYVFf8GmQVNAoPgzhlKU35zNTiGhu5XbabrvDeQpwqcw3H8UqKDULBOC+c10aJVBnPF3jWUIl4FxV+NeIjPu8YKPKj9+/h9TcP0hMHYdgp/tY2+3tUg6+xFw6qEakqn5uu84sPX2SilpJegR3cqbJkHf/50Un++swC1mpI7hIBOUQj7/3R/BdEeNsELJlFIVtJBfPCWDnix+4c5V/eMspwPsZkx+0SIhFeNNIf7pEL/o0u5G/IJuNsBWGAGCTCqvCxqcqywLMuO8fukRS7hIl6StX5zUch5DDpFGQdmDjmgZGydx/bhcRG6ImEV+8f4Mfv2sO9A4UVdvumcrvmYmT5ixrCy1OUM0t1fvbBc3xmcvGyNjKtKicrDX710Qt8YbaKpg5xPphGQz51zXy0V8Hnj8lOrPX9eQMvGinyU3cO8pzhAsVIiK7B/YqNiATuH+phIOeDpYKXeudhy+6RhqY4U3PMJm5LVkZdLo3Ve2uXy0Q4UWlQD+5nmxnGIkIcx9w7WFhjwOwOJHil3NVf5EfuHufL9vZSjo2P2xNw0srtkgnNtQV5hl/GK8J8zfHfH5viYxeXqNvN63qJU87XUv7TExM8OlcPQibbCA0t3pxd/S+dtl6vRTsE6w1jaunLRbz+8BA/dOc4h3t8sMpuMJOshojQExnu6S9h8H7pm7HUC5CmMFm3nS912QG6wnsrEXh6odHctFtfMHkEoWDgQDnX+dKuxBihJxfxHbcM88N3jTFeyvnKLsHUoPg6t7op24JftjgRakaYx/A/nprnXaeXsG2FJtbCqvK52Ro//fAE5yuK1ZCMyfgNt5UZtjOxHVYJPlgSUSVSMDhi47htsMRP3jXOVx3oJxafPGr3ozxrqOxD9LPryWawtRpahMQ5Ti3Vs9mvyw7SFd5biCocW2wgTjHewXvNfm8ym3EcMZATxgrxptJ87hYiEe4fLPILz9rLC8fLRCGKx9uKO4/eCEWcQ9SSuoR3n5zld56eoWbX3k9oOOWDFyv82mMTLNQTcDZ4UWhI5BpuUJNMSjlULGkIrNKQXdEE88LL9vTxM/fs5Y7+4nUXGn5TT47CJbi3g2+gE5Wux8nVoCu8twhVZSm1TFQaXkC0rbmXLaeDjDDq065GAnf058hfh3fCiNAbG77/lj183y3j9BhDrGCc38iVLAR9HVR9Uq9M5iuKVcs/XJjn175wnor1GQDbaTjHBy8s8rtPzmLT4IXo8Ol2NfPfXmsWUYwokToiG0S8EfI5w7+8Yx/fdcseSrFPHnY9IcBoIaIQL3+u/dGJiJ/cTiwlqx/QZVu5DkXG1cEqnFlq+FJjwf1vI7LERXf3F9cYHrsfI75E18v39PJjd45zc0+eQigz0Z4vfK0l+grBEXJpp87x8HyD33p8gvm0tWHWsI73nV7iLU/N0LAJOIe4LE/J8i9o/8rs0UyepX50SKQc7svz43fv40VjvRSucb/ty0XCRHuoGPsJljY71zo44EylQTXtNEF12W66wnurEDhbS9BIcOJDHAiaY7sg904NQhr7qjWxwO19xY3Nv7sYCWaUewYL/Pg949w2UCCKQta9cN3SFm2/LtlBmpJowmenq/z8QxeYrFuq1vHnpxd4+/FZUptp7MFzIgjuFZpk+5eGjVUbPF2iGI4O5PnRu/dw14A3k+zWTcnNYES4u69IHsKE12laWo6GfYelxHKhlqxYAXXZXrrCews5V0+b22AaBPcKghBJRFFjGM3nGNhFZcGuhEiE4XzET9wzzmsODRIZkMwWnmm9a8sKyNpUgi+yKilwspLwK49d5PePT/KnZyeoSx1frXF94QP+RrW+1nqTl4BGhlfvH+Sn797PaCF33dm3V0WVW/oKGHVNV1dCKti1yFrlbDVZsf3bZXvpCu8twimcryY0HGjo+qvJbvCDJJ9AwRn2RNd+ObCtREQoGuGfH+znB24foa8ALrJYQ/C13hhRg6hpVVxXODGf8A9nFtEkFAkVn49jsxiFyBnyDgaM8L1HRviOw0OUb6ByXyLCwZ4CJeP3JMKTnYctI1NSJmp2V7u67ka6wnuLsKrMZcVps1X6GjggjSwNk1Iubzg+rjskRGZ+yWgvP3ffTewtlryNdVleWVlVa/YZGtWHaKtBmnZsbQbaZFZpVW++ak9f2zq6/SssoMQmYqhQ5t/dc4BX7ekLZpK2L78B6M3HjOR8dfhLufTz1TSr0tllh+gK7y1AFawK9RRynRtxqyCI9xsWR3/+evETvnRykWFfKcdP3DnG/YMlTNYQywR4U9S24UVLc4Js31doPzSTQKtIomW2djFEERzqK/Ijd49wa19h10a7XilGYCAX03I66Wz7FlmbqwozdUfX5L2z3Jg9dMtRnCp125IRa8ljCUVc806IbcxAnLuu/LsvlUiEm8o5fvSuMR4YLnv/eOODegQQaZVe60RY9el1acpxBRO8KUQMR/sL/Lt7x7ilN39N5dzeaYwIvbkIDdsKm23gJes3ervsHF3hvQWICFaVulM2itzO9EgrgCnQn7s+IiuvBCM+N8oP3TnKaw70k4vE+1oDiIZkSVcoUDuSHYoPBCeSiOeMlPnRu/bSH5tdmZtkKxGgN58LrdOc6tZFUGrWkTq3rrmwy9bSFd5bhFWo2c3VAlPARoKJUkrRGl4pNxgiQikSvuXwMK+7aZCeOArdc3MCZDNICI4SBVFHZOCLRkr869tGGcrdOBuT6yEI5XwMYtDNSgcBjaNgNun25Z1is7enywY0rKNuHbbdeXk1gizSoLEU4+4efYYJya2+dv8Q33bzKJIv4iiGNLGdR18aTRt32BqNYuErDvbxr+4YpSc2N7Tpqh0RKBdiGvmIRhSy5m4kktWnI3BhEu6yM3SF9xbRcL5Cy6bi74K9VVEKN/gyfTVyRnjJWIkfuLWPoXx+SwRrJnwEKMcRrzs8xDfeNEj+UnN53ADkY4PNGdJIcWZD0Y0CtdR208LuMF3hvQUosJRarLqmj+Ba3TgTFBps4/moKzpWI2eELxkt8q9u66ccbY1mrCLkIuHrDg3ytQf6KUWyJZ97vZGPjc/6qIrZpECup7Zbz3KH6QrvLUBVqbvgTSx0ZINeDW87kVDIoCs+VicSuH8wz1fs69mSABAD3NJf5Ktu6ieW7hJ/NRSfsiEXReSsEoVtnI3a36r6vD5ddoyu8N4CNFQj91a/UMdxg87uBFzq8OEQXVYjsY7PTFT5i9MLWxIAYhEenqvztuOzNLpOyauiquSMX5FEWfbHZWFOK1HAOkejK713lK7w3iISF9wYQrWVdUVNeFHEB0V0WUnqlFNLKX/4+CzOrV7R/ZIRBRx/eWaRf7iwQGMjv84bEFV8xkcRLx5UNww6A58fwm0ym2aXraErvLcIxbufraehtOPDvLubZavhFJ5crPNrj00yb13Q+zbXrmsT2tt5jf4tx6f4wMTCZdXEvN4x4ktBh7+alaHWRTW05WYO7rIVdIX3FpEJb7OJAgMZIr4IbpcWCswnlt9+coa5uiUVRZtRlldCVhnea98NJ/zeiWmeWKh1N9o6aKbRDa22KdTn7Nns4V2unK7w3iKMbODfvQqqV65PXk84VSZrKb/y4CQTCynW+kqThLa6UlT97puoIGqoJxH/+bEZTiwm3bwcq+DrCAGh9ud6iPgEvBse2GXL6ArvLSLG2wY3UXwk4HAiXaERUGAxVX7nqVlOLqWhWLAvbLEFcruJ4m3fRn1dzMVGwm8+OslELe36Ka+Ck9XqfbbwxUYcSHqpukuXK6QrvLcAQciLj9zb1PDXzOYtpBp2Lm9gFJ9a4H89Oc3npqok6rChMMKyjIEdSKhskz02JLhxajAGGPWbbGerdX7j0UmW2sqp3cjYpgkkiAdp/rcGihMXhEm3/XaKrvDeAkSgGBmfpU42rgZDaHiJIhK3tnC6UahbxzvPzPPZ6RpN8SqbN5VI22Oz72kGU6l38Hxqsc5/e3KK+eTGTq4k4n22CbVCN9WZ/UxILtrkJNplS+gK761AlWJkiESaaUbXQ1CMCCaKSG5kSRG0vPdPLPGeM4shP4Y2tbe1KuEs07TDfBkboRAJ+Thqvn+z2xAqYHF8ZrrK/zk9R3oD3xMJbppBfoety000ojjiTRzWZevoCu8tQETIR0Ikxmes6zxgGZlg8H5rja3yYd6FWKd8brrKO48v4FJf/NeJ4ozDisWJw8k6mRrFN6NBeOXePr7zlmFyOMQoGOdzEGx0P8JcqyqodXzg3Cx/dWbmhjWfiEjTbOWMLxK9LtkcagyR6YqTnaTb2ltELEJsIsQYnwVvPZERgkVElYZ1rQoyNxBWleOLDf7H49MsNKx3s8xK2Ipb/mhDOjptJHDvQIlvPjzAK/b28XWHB4hzDicJokkoOrc+fsL1wrpi4R0nF/j0dPWG3UxOnCXVtDmxbYSRiLwUiTezzOmyZXSF9xaRM0I+Z4LFlrWFt4qvv2jzqBpqdlOL0usK65Sl1PHfHp+gkvpkXhL840V8gi9tX8KYLBG3t4X4oB2DwXDvYJEfumuE3jgiEuGrDwzyVfuGyRHyUW8kgNpfFF/xsuZS/r/HL3B8sX5DmlAq1qHWEaOYNp/vVQkv5U3cTfK1w3SF9xbhc1GHAgLr9HUgBIvEpKnzBRxuIBSoO+V/PTHJ+ZojzdJ4iQS3sxUlb5qTYWbnVkAiw+GeIt91ywjluFVIIRbhaw8M8dLxATQKQVDZ52nbY1W8B5B1ULGW//H0JAvJjZctr5amaJpicc2CDBuJ5ULcFd47TVd4bwGqPqS4EJkNd9s1qx6Pw9mEheTGqvxXSx3vPDnLp6frJGp8Gi+hUwXuEBf+70yGRiKMF2N+8t4R9pWW1wAVEcqR8J03j3H3YBlpZm3U4Ai0jvTOqs+LwTnDiSXHrz8+Qf0GSrjkVFmyFqspWWKCbOd3zb6tSjGKEG7c/ZurQVd4bwneeyRv1l1gegQQxUUpqg0WkxsnOMQqvP/8Au89s0giBusV3aBxtx3YpiH7VUpLaBgj9OQMP3jrIAM5s2piLyNCOTb80G17ubWviIjzD2z4fX1biqogksOm8Oi85R2nZm4Y84kCs2ppxGBcSmy9SWs9f3tEyEeZMFnjmC5bTld4bxEGyBmvuaypoTRRInHkXUraSG6Y7v74XJV3n54L1+vwwe+Zc2C2V+CDnXwQk/GPgIiQN4bvvXWYW/sKROu0swDD+ZgfuH2UsXIRMRGYCAnBVOshgKpfEdm0wd+cnePDFxZuiA1Mp0rFhaIiqqjaddM4+L4uRGnjhi/evNN0hfcWICJEAmXjtZD1ELxy4lJHZCLq1uGuc6nggDPVhN984mIwE2VpRjMVuz0bY0vPzjIv+t/9pvA3HxrguUOlTQkKAfYX8/zEXWP05QqIyyMu7zeM17lPmplYxCJisE74o+MzPLVYX1OIXS8oUEkseTGoaHN1tB5GlF6jbalku+wEXeG9RRgRBvMREjbe1iJ7zalfvi8mWeql6xOnsJQ4fvfpWaYbSqpeuyNkzFi9rYSQ5giRsL1rDK/e28tX7O8jH22+2xqB/cUcbzg8SIEYIRf8J1b73tVJFZZSx28/NcWFanJdV4xRYDFJwdlgtlqd7L5pWGn253OrmrC6bB+bHwVd1sWIMFrMhaV8SNazJt5GrsB8vbEJT+TdiaqSOMfbjs3xhZkaqiF1gODbJ0ufmw36TBEPphLflEokwj2DRb7pyOBlRfHFRvjisRLfdLQHYyS4IfoPEtq+t42m50vAqnJiqcHvPuOr8Fyv+xSJcywkDVQdRkzHjsNyfB/3qXYH892aUDtNV3hvEc45hvMRGK9RS5bUZxUyG6JDWEiVpUbaech1gVX46MQSH70wHza9gDavkZawbn+XwUh7iLvhcG+BH7htZFPePGuRj4QvO9DDC/fnIKKZnGpZROya8lgAg1N4eKbG/z21eN1OuPNJypJ1vnWyW7aGWM76uQiM5FvlG7rsDGtLmC6XhBFhrBBhU78Btz5e/ayqMGsKnK2ma5gPdi8KPDJX5XefmaLWrO/ZusbOtCUCRETkbRGj3l0PYxgplfiB20fojzfeaNyIfCR899EB7hzIE7UWAcTrROA3CVXurMK7Ty3w8Ynqdef/raqcrTawLkY02oRwkKYXykgx3kQjdtlKNr4/XTaFF94xkXh1ZS0N0Wsr3m9WEawIp2vXn8dJ3Tr+6PgM1vnJrCm62zTdTHhmf6uBNE7QyKcXHSiW+f5bBzhQija1QbkRAuSN8K9uHWUgLPMVcGbzckfV+0C/7fgMc43ry0dfgXNVB64ELg/BZNJ+jzJExKd1EME5GM7FKybkLttLV3hvESIwlI/pi3KhluXaArwda5WTS8l1E52mCoup4zcfn+TUUhKKKmyMAKhFJEXVUcxFvHZfnnsG8+u6BF4qkQh7izE/fOcYQ4UYEXCZR8Umv8bhmK6n/PpjE8w2rp8NZyPCqYrDuSxSOEQLr3OB6iz5SBgtxVsywXbZPF3hvYXEIuwt5iC4mm2EESF1jhOLjetmCe5U+eCFBT47U/WFJjbyMwso3jXFYMjl8rx0rIcv29e/pYI7w4hwV3+R1x0eQCLBBQG+WTRsYD6+2OAvzs6TXieunlaVU1XrI4YR/P9rN4yGVdRQPqbnEjyAumwN3RbfSgT2lvJNN7eNyJSa6cRRsetEsO0SrFMenq3zpydnSdX7cwNZeQX/b61IPRFUBIzhnoECr71pgNw2anJG4EVj3vVQTciNssrXZefb/kC8Gcg6eN+ZCp+YrGJ3uQBXVapWmWlYnK5SkCLrrB2auBHYU+x6mlwNNidlumwKEWFvKRdyY3T2/pWohoz3cY65xO7qCD4FZhLHW55eZCkF53x9zs4xv/YlKmIce8spP3DrAIO57e+apdjwjYeGeNZA76YnXMguRMEJLjH88TMVLtTdrr9/i6nDoojYZird9kvqnN/8RCaMF3x8Q5ed5RJ6bJcNUeVAKcbv42yuM4sIqVMWkt2d17thlf/59Ayn6+kyN7rNBsOY4G3yfTfvpTfeGWEgQCkSvv+2QYbzEZt2dlP1m3nB5XOy7vj1J2eoud3rQCgizDdS0lDAYvmLKwV3hhHDgXKu8+kuO0BXeG8xw8WIfLR5Pc6pUkst52vpyqXqLiFV5a/OzfHQTIXYpuvnfw5kXjcighGhYAzffesIt/cXdjSpfyTCcCHie28dpmCyvCqbQBUVwRmHk5Tji3Xec2aeZJeq36rKVMM2S6Cx7iopoEpsxJtNNtVoXbaSzcqYLptAFfpzhry0XKzWIxscqU05Xkk6Xt0dOFXOVBq86+wM2JTYJhi3cYGJdrt3LMJzR8q8Yk/vtmxQbkQk8OzhEq850L+5zJCEbIiiKBYkwbmE952Z5cnF+q7cfFbg5FJCktrWvdugE4tAPjIM5Mzq+xhdtpWu8N5CIiP0x8YnqFqjL2vbA/yOjwqcWGrsugHgVJltWP7r4xdZTC1p5EhiixrnzSXtF7vsolsYEe4YKPA9t44QBaGu6sPPs4d1itUrfLjWo/2zs+8zwNcdGuC5I+VN5+hQHCoO8JuzNQv//clppup2V4bPn6mlOOfWjQ5uR9WnHujPx50vddkBNneXumyaUmQ4XM55QdT54hpYhWOLdaq7zGaqwLtOzXK60kAtOAf2UjRnVYaLEa8/MkjOQF2VxdQxnzjmEsd0wzFZt1xsWM7XLOeqlrM1y+lKysnssZQ0fz+RPdqeO11JOVNNOVtLOV9PudiwTNYt0w3LbMMynzgWU6UWzB3fcHiQPaXc5mzuzUlJEOu9Ty5UU95+ao42/XVXoArPzFeCyWSTPTdk0uzPmesmTmE3Ibrb1L1rHOeU956Y5c9OzVEL2mk7Smspmu3nizEUcjE/fecId/YXr4rpYCM0aMUEbdmq8uGJBf7b05PYkLBfFFTbwhV1PS9hMMbQH0F/IYd1Dhvc7xyKMQYxoaoN/jODcwOqtG2ESlPYZN4tLY3EJ01q/hR8hkLwBTGcxVkfZBMBsUAkhoq1TF+i9iwhU6EYIRdFvOHoEK/a24uvapqdw+Y3sncSp8pELeWHPn2alJCGt+Pasxww2XyF8e38xaM9/Mjd48uO7bIzdIX3FqOqPDFb45ceusCSaDNIJWvmduHdbHgjxHGOb72pl9fs79/RDbvsvDKhYtVvWHmfbD/B1KyymDgWU8eitVRSy2yS8pcXpjhfTRGNiZwXmdoRlLPRlRhj0NX8igkCJAhc8B+21uc1367L/lqGBiErqmhIqOQInxve0poKltvlN434zeqRYp7XHOhjMB/RExl6cr48W29sKBhDbLywj8L+SKa5dt6PnSB1ymemlviNp2aoJQmECkbttAtvhxfeORG+9cgQX3XTwJr3pcv20RXe28BS4vjJT5/mgrXgfBY9DYKoXXiTDVIREMOXjJT4N7ePkN+s0fUS8XZe8KLZa89WvcBOnFJJlQv1hAu1hIlawkQ9YbKSMJtAqjms5HCxpaopiUsQWwOniOYwGq0lM7eNzq7bmYZ3LQEYYXBt7pzaJrzb6fz8zSF+dYAhjg1xFBEb47/ApRjnGIyV8WLEnlKOfeU8e0sFRvIx5cgL9VjErwKMgeCOGElLwG81qVP+9OQM//fcEvUgvDvTgDWzL4YJzxkoGMPP3buH2weKy47tsjN0hfc20HDKrzx0nocXaogVX+zLq33L5VumUIpBMBztyfMz94/RE11+RZJMODf/D1+YqDJVTzlfbXCxmnC26gX0fOKoOGExVSpWqDtQLEaszzVC8PuVHGgOp4Y0VtRYclYR2/YlVxHfjTd3HgafFAxpm0g399aNEeMnY0Bw/uNd6r9KQjX7MGGoMd40I0pelJ7I0BsLpUjoj2PGSzn2lfLsLebZV8wxXIiIje9E3s0ys274/PCXS806/uOjEzw0U/VPKCvMJgThna1W1MBYIcevPns/vTsQUNVlJV3hvQ04hd9+coK/u7hAZMFmOaw7hTf+OcFgiOnPG3752eOMFjYdLhI0er/IrVhlrmFZSCzTtQbnG44zlYTTSw0u1BpUUkcuziECaWpJrQ3CyycgUi+qm2po+AsBb8sO0s67yIHxb7omuJRunInWpuDeStqEqG+3rC1btAvw7BkJlYVoE/KRMb4gggg2TenPR+wv5zhQynGwnGNvKc9AztCfj+iPI3Ihj9SlXJaqspA63vjQBOcW600lw3fYtjYNvxoxPjWAgQcGSvzUvWPbtlLssj5d4b1NvPfsHL93bArFYaz4iuQdw0rJRpqAEQzKT987zn2D5RVuQE5b1XecU1JVqonl3GKVY/MVHl10HKsqtRAiY52jWqsh4kWw4os/qAtpTEUwJhPI7axiQ2jrIqt5cK98pssyOkdY1mCrSXTazDnOu1x6LTt4dKjDGMjFvmqTMUKk0Gvg1p4cd5ZzHB3IM96TJxcZYjEEZd1/dutrmkzUUn78s+epJc6b1iD0gexdrdS3BoMjwknMq/f28C9uG9y0a2WXraUrvLcBp8rnZ6v80mPnSTXB2LiVXrMN/6eC8TZExPG6fYN88+FhYmOwwUa9lDou1BIm65YzlQZT83WmqhWmazXqiSUVw6IUsJJp7MEXIxMCq8gP8FrX5Zpnumw/nfcmu1/tJiLxBnYAcgh9FiLToDcPI6UCI+UCe3oLjJdy7C/mGcnH5Ix4wS/eTfXjE0v85qOTfiXggllkVeHtN2OVCKTAd9/cz1ce7AmvddlpusJ7G1BVJuqWH/unM1RdDU3jNV3qFW/2sEYQcdxeLPCjd4+zkDgeXWjw0EKNJxdq1IM2rVbJWYu4FHUWg2DVkJq4beEdaLrVraFy3SCs1sFXa47NHnetkQl5AQoWDH6vQiJf7CPJGRo5oeiEvcTcOlTk3oESt/XlyIvhj4/N8tGLizgUVQl2eDqEtzfu+d9zRFLgJ+8b4r7B/BXZ27tcPl3hvU3UnfIrD0/wxPQ8dfEWzZUNHTq9ROF3JRYYiGExtdRFsSZ4Q1jFOK9lReqPFRxIiBIkapo0sqGUucFdCpd4eIvOi1vjg/xh7QevceC6r7TR+b2BFWnEs7/D8R1/tljjuGudTAMX73nqvVQEUIMzjjTL26LgHYMcZTEMxRELDaWWeHdNv5+hzf7osd5nX7zwVslRjgr86nNGGSvuTBKxLitZXR3scsVEAvcPFUHzYbNvNTQ8HKgFdVhVZhJHA1+xRZxDLBg1GISIKAwiA8QoMY5omRAKn7jjkkcu6StXiM0uV4jii0pYAWsEJ4IzXlrHThDnTXpqHTilai0XqgmVJA2h/p29KPvN+CRcIqQmhwrc3BcxkL/8gtBdrpy1pEqXK0SA+4aKpLEBMatu9DXRbEtRUfWbRqqKcQbjDJEDccGNRS2qPt+y4kCzKEKfIyV7LPu67O+NHldA50doVrhgBQ6wGELO6MyBuPOxGVQx6oidJXYWo5ZYLUZ9u2SfFRYsy9/aLp7WO05sKJ6cHdj2WnuBhmuBcHoa0sSrgjpF1aLOIqoYBePAWEFsiEHI2kIsSppN/cs/WAVR8e9V5YGhXNdccpXpCu8tQtVrNYnzqTU/O1vlAxPz2CjFSauqzNpkQyg8Ov5c4Xe7Fp1CcIfHlxFB/LodyPyRfRCSZN4RRolDWoBVT7CtSHO7612LluiNsOQ0IacJeU3IqSVqZhYJx7W3gwS7gmmlpAV89Rhv9Q3ul632867bwWzQdjqtU1ztHHeeztveeVbalOht3Sx0q2XX3YE3z7ngHW8BSyVJObFUp2ZdswzcNTOJ3SB0bd5XQBaxmIYSUieXUj5wYYnPLjSoaUKS1lF1iDNXHIHYjHBbheZYXG3EbpZwbpf79vbzU+M9IrKIRxXBmBhRh0qCaIOCE1JTwEZRq4qNZkLUC0SjXtir8xp6pGA0CJNwwnmXknd+cnTiNcQkMjQkDick2OA37etU+iCarNtrm6BzQSCjglEvrKwkiBrU+YIDVhN/rZkwv0aE1loTyObPTcNKKOtI7XqdDX1LwvRmKYghR8yh3hIvGu/l2UMFBnIRecFP0GucT5etoyu8L5EsWZECM42Uz05X+OzMEqcqKZPVCHERqbE400AlweCQNPapj66kpZvCse1Dsl+DL/dq6lb77W16JWQDq/PWZ9+RCbdmBF+LtYak0HIPVyPEuRyICyYeb4jNoeTyjp7YMqiCxCXiOCYfRZRinwe9EAk545NH5U32u1IwkBe/lxAH4WlCBGMkrdRPGqxLLvNvV+8fYVVoqNJAaDil4ZTU+ZVSopAi1K1STR0Nq9TThNTWWcKylBiSRkSKoFG2UexNDi4Fpy0/6M3i70HoS2v0i+w+rTDNLLsJIXpgFWEplyO8Ibxz+aJcw9NpZLFiyTkltjFQIDERfREczcGdgzHPGe/l5r4SUVsQ61qTS5fLpyu8N4mG4IULtZSnFxp8crrO56YWaWjYnVeLutbGoaD42PG22LkraelMMKLNP5rCMlvOrzI+XFu+DxM0RZF2H0LC53khEImgRrDWa2GdvWOVr/BIMz6Tchzx9TcNsbeUpydnKEWGshF6YqEYG+9jHD6pfanuz8v/HjzVlz23XgO2C7q1yb6odVx70qvme8PkgPjJ2jqlZpWKVZZSR8U6llLHRC3hXSdnqaThrqz73cuRMEFKMLtoZnpY4zj/2eF7mqccAr+k7TrauHTh3c7yz1PC/CAWJ4qo8d5PYTNTVIkAE0EujthTjHj2cA/3DxY4VM7TewUpH7qsTld4r4OXb14ze3B6ib85t8SxmqXSsD6BT4h4lBVBiT5BaCb5lKznXznLbpf6VKxqMuHdGiDZcZnwFny5MX++3lAh+GhNDWbgYs7nsV6q1/2rq8jNta/CmzZihC/f18e33jKGydzWwvv8Ka79CdcyGhJENR9hj+NtJ6b4y7PzOJtd4aWilPIFEKg3ktDM2prcBEBwzoG6ZZuq2WRMR7uqhu3xLR7Z2YSakRWNa0604Tw0KAEiEMXCQGx4wUiJL9/bz2ghDvlZugFiV0pXeK+CVa9pPTVX58HpJT43P8fZqiHVyNtfARBs0DRX23bLbMDZYF9xwBagWbFYAYmjMGVkG1J+cDj1lVHiyBAJ2NSSjwzDxRzDhRwDuYgeUUYKEf05Q9Uqf3Jqnnoj9Z4rzS/zP9a6DFVHFAmHe0v81N1jDOR9IebrGacwn6T84hfOc2IhwTZv9OaGlIhQiAzffnSQvBFmE8dULWVRhdlGynQtYa6ekiqI8cEziVOsenNRUBGC9u4FuQ3pDwS/utnp4Z2tFLLfs34YCfTkDLf2Gp411M89gyX2FCNykc+c2BXkl05XeAdSVayDSur47HSF95yZZ7JiSTWlEaWI5lG8q1RQhoKM9JbWzq63JcI7vKdpHln2oh+0vmyVdxM04rWhKPKDIjZCToRybDhQijlcynG4J+ZwT56+XBQ0YyEyftG9mFh+9nPnOFu3pJnZJPuyVYV3doIgqvSWivzI7UPcO1i8rMvdjSjwyFyV//jwRapppim70EE679hKIiMcKsW86Vn7Kcd+YzUr1WYV5huWE5WGrxhUTTlTTViyjsQ5EgdJ6nDqC0f4ycNr5BK+v12YLu+QgW26UcuFcfa7EqklJzlyUcSzRkt85b4e9pVzFIzX1rvuh5vnhhbefvPRazRfmK3zDxcqPL5QZbJaD37I4l/3Yi6Mx2xzDP9/+KOzy12x8A7Hq1jERV6nNgpqiIxB1WszUSiYWzSwrxxzuKfAoXLM/lKO/lxEb2zozUUUTMhsGBIddWIV3n1qlnecnMOqnxRYV3hnv3ltPxfBy8bK/Ivbxshd7yp3B4lT/uCpKf72fIUEkPYiaBuMLhNcFr/1yCCvOdC/qpeGH6LeDFGzjsXEMZ9a5hqWM5WE45UGpyo+za8TvzHubFaj0wffePOZ877amg+1N1lhCtkeWp45oo5YoREraQQlFQ4VDS8Y7eEl4/2MFrxXzw3WhS6LG1Z4O1Wm6paHZmp84Nwizyw0SELuKKcpommwUxtEg1/DCuEdZNh2CG+8FmcjJe8KQEoapRQiw2hcZCQfc6Sc40hPjv3lmP2lmFLsL0CCvdGFc92MNnOumvDzD11gopYs8znYSHgrXuW/rT/iTffspRhvPp3t9UTdOt744EWeWEwwmobJfx0Po9CQEtL5jhdj3njfXvYUNy7mmykdfuXVujFLqeP0UsKJpZTjSwlnqgnTjZSppE6qdUCJ0jxxkiONHW75Rs224k0oAEKkjsQ4kkiJHOTEp3zozUU8f7SXF431cktvgUK02jZsl4wbSnirKhaYrCa89+win5xcYjF1qPNxZZkW6Y8KQnqN1vFPh8T72yC8M9EYG9hfKnDfUJG7Bksc7slRigz5UHFFgjvWahrbZqlZxy994SKPzdeaARcrWEN4C1DMGX7wjlGeM1y6ovPYzVinfGqmyn95dBpr0+DTvnZbKN6ODd7/PBbh3oECP3n3nivKj+3L2CmKkKjSsMpCYnlyvsYXZio8PttgJoG6V1M6334JtFamrc9ZbfenjdCHTFBMvN99awITgUihEBn2FWK+5lA/zx3p8f18jRXjjcx1L7x9R/bVbZ6Yr/OxiSU+O11lIfF5RGjXLpvYDZeTTeHN6sI7e06yOonNI9b/3HYiEe4aKvEjd45Sinxe5qjpYrbiGy8Lq8o/Tlb4n09OUbVu7Q2uFcIbBEMkypfv7+Nbjw5RiJb7Bt9o1K3jD5+Z5W/OzeNod8VcSbvw1iDACgb+ze2jPH+kvOWTYJZeuJJa3npshg9dWOpQTNY52VVQCcmqkOASi894BesLcFpfpVl0apvXjFElztIeGLipv8ALxnp4/nAPowW/Cb6ZleSNwHU92tLgn3tyscF/fvQiv/SFi7z//CKzDUva5vrVjte8O5/diKCBND9QIGwitnSbziXgxh1QBc4lKan6bIPZgN4qwa1ANVX+5NgsjbU07jXxm0v7S3led2jwhrNzr0bOCN9weIB95by3uG3QJBq0ZPF/kFrlT47PUreX3gM3Igp1MWNjOFP1JpRmv20+ltN6ZpXXxPuo+26fpRbYZLBSeF923dks4p8WUoHEQEPh6fk6bz0+zb/9wjn+/Nw8Mw1Lw/n8Pzc616XwzlyqPj9b4z8/NskbH7rIP800SJzBiX+omObgaX+sKtE3wHdir0F439sguA2oCa5Syxq7pbGvh0OZTBo8uVC/ogXuWiROefuxRS7WbXMV0rz+zkc7AojiBL7+8AA9uVDl5QbHiNCbM7z2UL/vX7Tk3mrNmD2RNb1VOLeU8K5jsyR26++4iLCUOr+xGXrUinPKCC9485/xdVbFYTA+syX+xH2qgOxx6YE4zS6mfoM1xadBTozPjugUUGEmcfz+qRn+/UPn+ZPjs8w0fJ+9kYX4dSe8E6d8YbbGrzw6wX96ZILPTVeb5gBVb9/2s/16gyPa8OHFceioQZgh6qPNxCfhEAO5XMzBnjwv29PDi8d6iNUQqWtGI66JEM7X8v6JBdIt7qNOlTMVyz9ebCAq3h1xs9+hEBvhJXt6eOFYmfgSB+z1TCzCi0Z7eOFomThbjK3XPE3p5bP2iQofvljhfC3dcsFkVfmnqQrz1vo8MOudV+jWeSDCcEd/geeN9rKnWCY2MQYTPGWCCU+8gN/wQ1cjeMKAD0QSB8YJVn0JZ7WQS5R8CtPVlPeemefH/ukc7zq1wMWaxV7yqvH64LqweWcbkaeWGrz1mRmeWmhQt1nFdr8YUxzSvNSNL3kzGoSG/q94wW3whm4jwr5ijheN9fH84RJD+ZiiEY4vJrz5cxeoO9sc1I41+ntYjmIc/cUyv3DPOPtLuVUPvRxqVvmFB+c4OVOjETVIsUi7T/AaSGibvpzh5+7fy75SjqhrMlmGVeVsNeVND55jvhHudXabV2le3029X3ak3kf7jpEyP3X3CIVo69q2ZpU3fv4cj9YqRC4idsE7CdpmEY8fNZBTJY0K/Js7h3j+cJGahfO1hE9MzvPxyUVmEodzFiHCqU8P4cdE5uK4Ps0jsje1k51bOBlvX/e6lwjEJqIvNrxqXy//bF8f5djvC90oRG9605ve1PnkbiELTDi1lPCO43P8yYk5zlZSGiHk25PdTd85N3tvNyO8CcvFnDH0xTF39Rd55d5+vuHgIF930yD3DJQYynsf69gYSrHhczN1JtLU+9lm37HGV/ntICUm4kgp4lBPfnPntQHWKR+8UOXD55fA1UmNH3IbWVolzFY5I3zb0SEeGC51BfcqGBH6Yu8R9PBcrRk8s35Lqb/b4jP4TdaV8WLE4fLW5M1W4NhCg788tYA6fMbGLIS2+fFBSmbvUb82Lxdi/vmhAfpzEYUIRooxdw+UeOmeAe7sLzJcKCBE3nMLv/q8ZNqGQvOx/HTC697DSkOEa9U5Hl+o80+zFRRlrOBrdG5Fm13r7FrhbVVZSpW/O7PE/3p0hicXalRdK21+i5bQ3uztFHzP6bz/2Z8RPriiEMeMl3K8el8f/+KWYb50bx93D5QYKcQUIp+Aqd0OKEAKfHK+goprpkJd7byyjSwRJULoi+DZI71bollUU+X3n5xlOk1wUsP5hNWdh60gwl/Ts4ZKvP7mYZ+josuqiAiHego8vVjnYs07oq41N2atKOLzZvu+IUzVLS8e77ki18EMVeWjF5Z4aLpGpF4Iaia41/p44x1IXjjiTX5RlgM9bIAWI8PeYo77B8u8eLyH542UEYHpxGIlaM6rTFzZVzaVheaLnZv6HUjzP39u4rB4k+hcLeXhRctnZmscKsUM5CLkOvdM2XXCO9O2PzVR4befnOVjExVqmm2/ZPfWC2xvlMh+z0bO2jcz61QmdFDf+wARH3IccjTsKeX5sv39/PPDQ7z2YB/3DxbpyUVeWLO21u43tIQPX1wgsRZf2Gx1mueioCbPkiovG+shf4XueE6VP3lqms/P1qgZSxplS16v+a3EP+dXAUIRw3ffPsyeUrzmdXbxREYYyhk+NrnoI1Y32mKSLPeCF2uLCdRtyrOGe1a9M5dCqvB/Ts1xtpZgJZgfsv7dxI+RprIhYCLhO48OM15c/X575cQL88F8xLOGSrx0Ty/3DJQoGsNU3dKw3u/cKGFMZT1NvJegOO8uuM7kptkvHS84o0ROyIdKgrMN5aOTVU5VGhzpydMThfRZq5z7bmdXCW+nyumlhD96aoo/PzHPdOJIUV80NZgwPFkv6BTemUhcnTBuiDUK9mv1s7soY7kyzx4p881HBviOm4e4d7DAaCEiH7SRzWJE+PxMhel6suFgFpFQOxAaquwr+rwkl/J97VinHFus8/bjc1TUYrOBpNry2V2BAH7iion46oN9vGhfmcisf+5dfMsNF2LqzvHk/NLqdoBleHu34DfsFMO5uuO+wSKD+Xgzi6M1uVhNecfJOer+Vgc6hbcnWy2qEfrLhm84MERxk/1cRCgYYU8x5tnDJV65p5f95QJ1K9RSvzfpyDbsw2QlBFW689M8y75VsuHscwpFzis4hCRdqt5L62zF8onJJWID+0p58tdhtOauEN5OffL8951e5LefnOb4Yp0k3HQRDSn5MzJBHQS30CbVs9fo7BLNZxRQAzYyGGMYLxb4jiMjfPvNg7xwrMT+sk9p2dLOLw0Tijg8OldDtdlzV9L++aoYDPOp5SXjvZcdwOEUfv/pGY5XGlhxvlmUZqjb6lfkxYnBcLAn4rtvH6YY+SVpl40RhCM9eT41u8RS4jXQ1WhNneJ7SXA1TIE56/jikfJlmwBUlT8/s8gXZqu4sNnXci9qV3DaCwp7Yf3AUJGXjPZekoksE/5GhLwRburJ8SXjJV60p4diTjiRWpzmyKUROIOakEgrGw7tj07Cc80eG8bQsr4rAI6GdTwyV+fzU1UO9+QYyHsXx81MQruBa154J055erHOW56Z5h/OL1G1zmuMtN3cFTcjdMbm0x0dY42eEYlQiCNG8jEvGCvzukODvP7wILf15SlnRQRWfNeloUB/HPGBC4ttKUQ3gUAaxTxnqEhffOlVu60qn5he4v+cWfCuVVmQhfpuv7rg9hOHIORNxLfdPMAt/YXLnjxuRCSEvvfkDJ+ZquCchL65Whsu66QAOIQz1ZQjvXn2F+NL7n+qymKq/MEzcywkWRBNu+Bu/9ogRAMxEd940wAHey5/0zQT4rHxPvC39xd42WgvB4sRRiMqdWjg86w0Yy38qfg2ynSt5gdmPyQsIToF93IXSKew2HB8ZrLGkir7yjHF6PqIS7hm175OvWvTBycWefMjF/jsVJWGdZgQDJB1ftX1XJJaAyHrrv4p/1z2agSUczGj5TxfNl7m5x7Yw/fdOsLzh0v0BqG9VUQiHOzJc0tfKQt12BTOKbXU8fh8KJRwCSg+1e17Ts17P/e1cswGmm0VfhaiiBeMFPnisZ4tbYsbhdgILx7t53nDPcRGUPHBYH7hH5b7nW8KYskoGAvvPrlA5TIiLxU4UbHMJGu8d43baQQG8hEPDJW21I8/ZwwjhZiX7e3jX983zE88Z4Tnj5bozUfkjN9T8l/nvOIQ/m62UvtFhAG8rL96gdA6JphRZhPHu8/M8cuPTXK2klK/DnzDr0nhbVWZaqT8tyem+L2nZqkm/j4Z428ETaEd3hAEuH8s+yigtYyTUOUj68YSKsrc3Jfju44O8KZ7x/j2W0cYKcbN+nvbgSB80WgPsuxL1hrCLZIk5R8nvUvUpeBU+fjEEscXG+G9WRuu/E5ttpcJ9VyEnnyOrzrcf11oK1cLg/D1Nw1Rik0YdL5IRpYqdT1UlGcW63x8onLJgTuK8KmpCmm6Ruh61gU6uoKI8Nyx0pb6mbdjgsvpkf48P3T3GD9//15ef/Mw4+UcuSj4YUkWcm99vdI2z61lp9wpwGmTDyEBlhNFrXByPuXfPzTBn59ZIHW+xN1uZeOes8OkqjwyV+dnPn+eT0wukKhF1SeRaovD8jcmC5YMN7j1IFxa9vBRkT6ta4QaQy6OuKO/yL+5a4w3PesAL9vbz0jh0pell4dy10CRQs743ZZIN3UnEut4dKbGqaVk04NYVTlfbfD241M4TdHQns3uvsrnKIJVnwq3QI6XjhQ52pvfEjfFrUJDaPRqq671XrtaGIGb+wq8fLxMZHzJOH8LNmpUf68slreenOFsNbmk66pbyyen5nGahPtOm5hrHyNtHVCVYj7muYOFbVNg2olFOFDK8dX7+/lPzz7I648Mc7CnSGwijBiMhOQSG1x2S4C3BHwzllkU1RR1CbV6jXcen+bXHpvkYn3rI1l3imsqwrJhHX91dp53nJyjkarP7Wec7+AdnVyCd4SiuI6EOM3E78ZvEAkm/PRL2Fv787z+0ACHe/IUjE/Ws9M0nPJTD57l5FLDdx7f05odbwVBu4gk4qsP9PL6o0ObWs6mTvnDYxf46zNzWHI+arMdJQzc7LPErw1UiIg43JvjZ581Sjne+TbK0JBF0aqSKlQSx4lKlQsLDSYaKXNpgjTCsI0jyoU8I4WYg+WIQz0FenJxM7FX9llXi6XU8nMPnebYQopqlru7JXbWQgCNhFfv7+M7j2zOxz51ysenFvmtJ6ZIkuzzfUj7WhhjUOcY7cnzSw/sZeAy9leuBFW/8q5a5fNzVf7sxBwTFYtzXi3zcUWhDzfrs3bi+7CnrW3FBUOVlwVGYgbywg/cPsbdg8VdZxK8JoS3Ksw0LH96YoaPXlgMdfq8E74aX6l6s8LbdzR/rP/VHxcZ4a7BEl863sOzhooUI7mqN0tV+etz87z1+DQNF3wQXFbtZhVC3gijcLg3z888ML6pitwnlur8wkMnmWuA07ZgnGVf1N7ZPcZEFKXIG27u5RX7yjuudav6Tb3UKedrKU8uJDw67/13L9QSarZCTyMilYhKpAhRiBgMnkBicVKnlBPGC0WOlorc0V/i5v4Ce4u5pllso/bbaqxTPjSxwP98YhrrfKy3riNMm3dGfaKzwWLMT989zpHeQuehK6g75dcfn+AzkxVS6+3HoVlX0N4OOSO8bLTI994xvkMr0dVJnTKfOD49VeX956ocX6qT4oKrYaaYeZaLMd9q/rX2idGngPCyI5gHgcFCzNccHOBle3opxWvHXlxrXHXhnaqymDj+6+NTPDpTAeez1aUGTIieEsQL8HZClBiACzeFkOY107zjsMs9XIj55iODvGDEC6GrKbTbWUws//ZzZ5mop8H+s5bwlqZ2bBByovzsA+Pc2p9fd3AlTvnFh8/y6FyNtPnB61R3yRCBfMSdxTI/fd8wxW2ye65F6pRE4UI14S/OVPjoVELqHGiCkRRHgpBSSiIshiSKcfjyWZFTBIuaFGcaOFHEGIyNEGI0Z3j+YJnXHehnTzHni1rs8MxUt45f+sIEj83U0JDfb61bkglbxXeDOI64sy/Pv797fN2ALVVlquF442cnmWpUm3tFa+G7kSDiKBnDf3jWfg735DsP23E0KyzhlL8+s8B7z80xlySh6ETs2wffNl5MO38dy1zYW8IbBBNkSZZPXcKK/NX7+/n6QwOUoiv3KtsJrqqroHXKhVrKrzxygafmG8029ikhfaInkZaQXob4R7a55o/wt89EYNQwWDB829FhvuPmIW7pzRNdYzkPjAjPVBqcWEoxncrwMrJz9lnWHFBX5Xkja1eucao8NFvhvWfmSLJNmUwCrNaebagRCkXhR+8YZSS/c8tmVV8G43MzFf7wmRn+7OQSz8xbsII4CXZLS6QWBBrGYcXHcOdshDiDFUgiR2pSJNusQnBEoBHOGk4tWt5/scoT8yn9sWG8FHkFYWcuM9i/83x8YonE2TV9v6F1q9Js8amwaJWb+/LsXSPqkWCB+8hEhU+dT3GyenGRZc+INy5GYrmjv8irDwyu2bd2Ej++vXC9vT/PC0bLlGPh6cU61gmRRm1lCoMLbPberL+HJ4JqByHXvn/Zv2gVnpivc66a8MBQmdwuCOq5asLbqvLofI1ffuScT+uo3rcBWhYSb58KbR9uTPOBF+qCXyrHquSM4mIoFQ2vGhvgh+8e4/b+AgWzcwLoUhCgrvDpqRoSVg1rk73qUIGz9YQvGe2hfw2bZN0p//OpibAhI/g0ts1u3fZz+XsFv3/68qEeXrb30oIzrgSryulKwu8dn+ZdJ+c5X0lI8MVzcT7fB1gfSo1DFVLBe8SEkagCThzOWJ9FMnQbh/jIKxWM85O9A6arlk9P1ThZSTlQjumJd8b/V0Qox4bJesLTi7XQn1fei3ZM+562CBdrdV401rfm/VlMHf/z6VmqdcGSbDwxSeQFmbF86b4B7u4vrtqvriYiQjky3Nlf4kVjfcw1lMmakGooDo4N6o0/72aLNi/DP9MulrNrzJ45V7E8tVDnroEiPfHGZsmrydrrrm3EqvL0Qp3/8vgF5hu2GfXl8GHuOJphr01zYHYnsocBNc5rFUYxxpCXPA/09PLmew7ybTcP0pflG7lG219EuKe/QL/x5Z/WMX0C+HBg9Y+GOh6crTY1h3YSp3zo4gJPLlRDzpKsc7Z+W/47vkHFaymlGF53ZJB45UdvORrO9/3nFvj5hy7wqYtVkmA6883h0Mh5MwjW57bJhqgGLyIBaxxWUhCLUZ/MCwVVwTiDuDBkRTFYjPrJILEpn5pc4j88eIG/PbdAw21kYNgaYoFvPDxEfz4OueE7PD4C7bdA/OmTWsuTi3U+cHGOxHVsQIc2fXS+zvlaQmq8e+hq16R+mwVrDIkI9chg8xH3D5U7D71myAJ+xosx33/HMP/+gWHGeyKIFDEacqRYRNwqG7O+z2vbIjT76VdoPqL1sfk6/+WxSRbSnekLl8vK3rLNpKo8OFvjlx6dYL4RNiazF9saU/AtvJ788IMRDMqe3hzfcdsQ//b+cQ6UcuRDQpprncFcxMv39DRNROvh7f/hpyqfnqm0TCJtx9Ss46/PzbX5lTQlYevvVfED4+sPDTK8A26TTmG2kfJ7T03x+8/MMNfwifWbg4tQQAOvSYexF7qtL4jhz9Avg5etyNQgGoeH185V8YJM/YZXlsHPqmU+SfnDYzP87tPTzDZSnwt+GzEi9OdjvuHQcCiw62lde4vmZWswI6gP2vrb84tU7UqXSOuUz0wvoS7BmSQk/+j81NbnStDscy7i/t5eDpQuP6Jyp4hCDpVb+/L84gPDvP5wH0OFqLU4XyuTqBCUlHBEiP1ovaY0UI4vNfj5hy5yprJ5t9ydZkeFd+KUk0sJ/+Xxiyw1B0jbKYQ2au9UqyHgB7W19OULvGCsl597YC8v3euz7l3rHa+dyAiv2NdHHIWyWeug+NJQNvJbL4/N1zlVaSw7xip8crLCyaVaywVxGW2tm20GIyE9rTBQiHnxeN+abb9VpKpM1FLe/NAEHwoeRtmprv/d0qalhuto7zDSeUzr2OWfGyaJ8KTik3998MIi/+GhCS7W/KbYtqLKC8d6GCnEfpM9u5z1GyDcO+HUUoNPTC6uqBxZsY7PzVaDiS0JwS6rX4tRIXIQK+QcfO3eAXIbn8A1gYhgBPrzEV97sJ9femA/tw8VKeZyGAXn/N5IODqYQNZ6ZPiJLlXldDXh1x+bZCFpKxN4DbFjwtupMtNI+S+Pn6eWJMs1m2awzeqPzO6kbSE4sRFGygW+75YhfvCOUfq2OIx9pxBgMB9xoLew8aAVv5mbbV41rOXdJ2eabanARN3yzuNzyyPHVnQ83+Ai4jWU8HJsIr750NC2BytZp5yvpPzqwxOcW0qxuryCj2rWIdou7EofHWh73dLmkz446Vwl5T89NMHZpWRbI/BMKNrwnTcPkzfeDg921fPNyM5XMagT/s/JGS5W0+ZbVJW/PjPPfMPhxG/Vek10Jf45r3kKyr5yxM29uV05jmIRRvMR//6uPXz70SEKsU9nixKSV7U3a3vfautr7X0OJbWOs0sNfuuRi1TTlSucq82OCe+phuWXn7jIhXoSsumtnPNW4rUmVe9R4IiwcUQO4YuHy/zyAwd4wXB5S5LVX00KRnjBSGkT7eFbJHYQhb27pyrKhZpf2inwoYtLTKYWg9+F99GlKzULUEQdomnwlfdRny8e2157pwMu1lP+6yOTnKrUaGiaGUVatAvdbRgvfsuzNVab362+hqJ1KWeqDf7rI5NM1NPl57bFiAj3D5d41kjR3yaNOg9Zgap6m5NETDXyfOCCD5tXhfnE8YELS1iriItA8+sM8+CHow4jjnsHcpR22C10K8k2NF+1r583PXCQOwYLREaIXN5vyDbHQehY4X6vrjk6EEuiKY/MVvidxyeYbyb2ujZY665uKXXr+OPj05xdqPsdAXwAjm/AtgMz6SU07VLtgiePMuyU77p5lO+/Yy8Duei6KMNlBF483kNxM3fDF1vx1VAU5moNvjBTBYSlxPIPk4uoSZHg0+pZ2UaabVYJOCNoTvjy/dsbjKPAXCPlVx+d5HQtba6imtpkpybc2SWu8LEW7d/rfwoW5Uzd8iuPTDLXaGm220FkhK/Y10teopCbenMoDtWED15YYK7h3QGfWqix6Pw1iEaoy1Y1q7WA17qdBPPd3p5tvf87gYgfT4d7CvzE3Qf46gP95E1Ctq7ZFG19wamSCnxiepF3n5whsZfwOdvMZsTFFZE4x5+fnuWTFxe9p1dwVhVWDtTVyAZeJHCgnOeH7trDy/f1UYzMdSG4CcvnoVzMF431sp7is1IQCdY5PnhujoZzvO3YDJMNS4IjDZrGam2s+E15lz1Eec5QkQcGtzfda+qUPz0+x7lKyCfRvll0FdDw6ETx5+bUcb7a4E+Pz5Fup/kEuKO/wCvHfc7uje6A4qMyk8jixDGfWP746UkaTvng+XlqjaTjHWt9on9ecNw1VOJI7/be/50kEqEnNrzuyCDffccgIwXvedZk2d6Ctq3HwkPV3xkxWIRU4e8vLPKRicVLmQa2lW0V3k6VRxfqvPfcLDZUeE8jUPE7/xt2k3BAJLC/lOfH797Ds4d7yJvd4UlyKRgjvHi8l1z7ta0lXdqwCk8sKR++UONjMw5rrde2yK1iMmmRfawRX4H7u48MUtzGydCq8oHzi3zoYoXUXSOJo5bPhMvwWpcjdcqHLi7ygQsL27pplRPhdYf76SvGa55TO756lHdlcwqfnq/z6ekKn5yu+5qka5H1qXApAkS5mJeM9wQ9/PpBgEJkeOm+AX7innHGCtHyfEDNy81cVNoe4DeWVJrm25oV/vDYFCcWa9vujbQZ1rnLV4YCS6njd56Zop6ETmagYfzA3QwKIMILRnv4mfv2sL+U20y/3p2ocqQ3z0A+8knxNUSOrjcQg/Rxqrz12DSL9SqxVfLOEAXhuFp7CSCqvoK4M3zRUA+j27hJqQpnKglvPzVLw6U+mCIrBnGN4iP7vDhrOOXtJ+c4U01b+1lbjAj0xYaXjPUE2bH+F4kqOevvoQOWUuV/PdnavCZMQKshEsRRUKD68zF392+cK2W3YoAjvXneeN8e7h5cJfhImrH1aypMGpTRpQTe+tQ06TWgfKwnGa6IxCl/dnqWc0v1oGX5pYixqwuUZYQJz0SGF+/p4/tuG2Ugt/FGzm5GgufBS/eUiQQfbZr5sa2J72mKo5YmIcta5uG6Ri9sw6jQKxFfe9PAmpF6W4FFecfpWRbTdKV2s0tYTOAdp+dbVZy2gdgIX3Own+FChAkZENdEjXc9CvffOaWaeHPUansH7WTeJxLs7c/uLzKW9995PTNWiPjXd4zywGgvGkWhITIjiNeuW4/V2kJwanhsPuUvTs3RTNR4ldgW4a3AVD3lgxPzy/wIjFPisE+5Fl4r9DarV+4Z4PtuGaIU+ayA1zsiwqv3DzCYj2hEjjRKUOO9QTai84hscK6FiAFN+fKDvewrxdvTEYKd+/PTFT49tYR1tnmmqg7VLP/6tWJFbNEpAFNVPj5Z43OztW2zfxsR+nOG1x0apBBn6WJX3sUswFswzXOU1Vz61yE7tif2PtIrtNHrkMgIQ7mIH751mC8e7gv7C5kymY2Y9sdKNJgA/+ZchcXEp2m4WmzLmK1b5Q+fmWEhsT6kGfVfpYJp1kxs0eFUQs4Ir9rTx3cd6adgdqf/9uVSjgwPDJWI1JHXhnfnW6MjXS4CoI7BUp6X7u3ZNvOFqpKo8pdnF7BWVw6Izo5wDSOAWuV9ZxZJtnHEGhGeN1JmNGjfWQMJq0XJhsclno4LizoV5e7BIuOlbKK4/jEC5Vj4/lv7edFY7/Jc/iHRXfOPjoc3pYE1wlRi+dPj89vaFzZiy4W3Ax6Zq/NPsw0gS3FqwgblGsuRtus3Arf2Ffi2o0MUjNn1rkuXihF4/kiZgkbE1o+0rW4CDUv0l46X2XsZRW03jQgXaimPLzTaUuBv03dtKyEaVZUn5upcrG+f66CE/NJffaCPXBQHvyzaM3JcGcZHpDoDUSHH80bKXN8GyZVEwR/8u24Z5nBPgchEIcLVt2+235HtObX2nrJweh8X8eGJOk/Oh2IqV4GtF95O+fBklar4rG4RWc2+DjqvV3zE3219Rf7fO8coRz709UbDiHDXQIH9PUWcFIPHyBYgWSpMIRJlf9HwVQcGtk9wB5PJ/z29SD319TA1CMHmWnOL5NF24s0nwdYnlgoN3n1+xucX3yYEeOFYD7f059GmNuhrOGbmnE6zzqZRwoQQ0R8J9622gXcDEBm/x/Rjd+/hSF8+q3XSpLOdm+2tEIW0ElXgQ5O1q9aFV5WrV8J0w0ckRdZ5HyZWydmhnZsCDrCU8gW+9egwg/nohuxQGaXI8LWH+iGKgqa0NW2h+HzmMcrLxnvo28ZNYFXlYi3l41MVr7VaRVwWzea12PU3h64tFMWqxUnKZyYbTNR9oZDtohAZXrm3F3J+vaLNFALtj8tBMWrIp0W+5sAgfVexvN3VRkQYKcR8+5EhSpGCZmZef79X+H7jIzJF/bGRq/P5qUXmku2byNdjS++cqvL3FxZZSFPEhZwZGnUY9bOls3/4YWuIxPAvjvRzW9/61WFuBETg3sEC46UI01ytXWFuYfXhwKJCXy7Hi/YMbu3N70BEeGKhSmrTkMB1+Z1vO3LFM9cqAsQaYVPhifn6ld2PDRDgi4ZL3FL2SZa8rL5cgd1CECKB8WLEl4yUbsjVbTsC3NFX4A1Hh72H1wZjTTW4D4QV2Vwj5QMXlrbgzlw6Wzp+K1b59GydtBlCmn28rKlhZfrX/QO9PH+ktKmiutc7AvTEhmcNF9u0gCvHALEo33RkmIFtXt1YVR6fWwStA76ai/MZ2zsP3R04RVSIU4N1licXG9uatAqgGBm+88ggZWMwssoK9jLQ8O+eoYje3O7KwLldRAJfNNrD/YNlDKDOrT1PduwPW6f840SFarrz2veWCu/z1YSFxDuzA2FLm6bpxD+7Uu+KjeG1hwbJm2u3cMJOY4BX7e0jirI2Was3bQ7BW2AOlCOeP+p9ybeTVJXTlQYiDicJhFJcrX6w2wiFa60PkDm7tP0pYwXllt4Ct/UVg2+2rBg/l4ofb/CqA6WtHfy7GBGhYAyvPTREzkShXTZ3bxVfPP1CtTMlwfazpffvVCWh7lyzg2UDNcvFkD3a+58BnjtS5s7+wrYGiuw2IiPsL+X5otEyvjtdXttk2nVmw3vpnl6Km6g6f6VUU+VszZEYB+JNJ+ArJWVVSzY3PK4tnFHiVFiYT6lts7YlIuQMfNWhftSEyNtlXhCXfg9jIzx7uMiRnnx3vLURG+HO/hLPG+5Zp11bEq3Ve31Vq9MdefV3gi0V3seWEupJEipUtH10lkGwAwFykfiNmVVev9ERlFeN95G7QjXZGB+MMF4u8PI9fdte3kxVOblYp+J8gJGK4iSUuMvY5nPYFiRMgqmjmipnFhvbumlJcGu7Z6jAs0eKV+x3JEDO+JSpa8qnGxrl5Xt8fqHVO6hXgJoPcSiORmp5ZmmXa94nK3UIGoPSFoMLIIqK9Y8gqBUox4ZDPbm2T+mSYUS4tTfPeCFqbiytt5myFqpQyOX46gMDlNcoWLyVKHC6uoiTGorzWdkIdSnb+0SHDnOt413FBI18JsYLS9vn792OAF91sJdi7srunRFhpGC4va/QtXWvwZGe/PpjJOu/gu+54gX6qSD7dpItFd4Xa7ZZaGEz5OKI/eU8g7nrP6/C5VI0wmsPDl5yaap2IS/AYD7mOcO+4MN2I8BEUsVJGoKP4/AI355JvOYguPZRHy9FKj5TuirM1OyOnL4R4ZbeAkd78sFzNAsiubRvjwS+/qZBStGWDvvrBiPCQN5wsJQjNpsPjlOU87vd5r2Q0OYUthLxCnjz1VwUcaTXd8guqyMiPG+kxOHe/BqtujGRwCvHexjeoeRDIkKtnqIuQiWPcRGRjTGhEHCT3aR2h+g7G1lEDFZgJq1dsgC9XEqx4VuPDlJoD+e+BAxwpLfAF41uXzqE6wHfTjHRsnZeu6OKeEfYuatQZefyesIaNDpdpzqveZXr74uj1Z7u0kbOCF8yWvbaVrZ83ySCL2Lxqn29OyK4M6RhEC3gyBPZPJEar7p2HrfmVH8t4jAkpCJUcsoSO7tJdaS3wANDxebfl9IPFHjecInclo746w8F+nNxmJQz27cGO/cq5dICSafs2wG29FYKFlW7LCgD8BGVzajK1lfWGwnnq40dFSq7lagtNPpS2dKbvEkia8ilMeJiNBSFENo6/KVfxjWBqE/oZI03n+wkiXNM11PkMvqBAqcrjWswf+O1hQA115miMRPkqzw0AjVEV7ydfOls6bguRa0qMO0/fUqiTJy3xLpT5cn5OvWrMGvtJhIHH59cakV3XQIKnK4m/MP5xR1NoFOQiHIqFK2vV2qN9zpZ2Qt2EQIOX2eyYKEkO7fRrsBHJpY4tnj5AvifZmpXxR95NyEinKsmHW3c2WuX92ABilfoEXY5bKnw9mks/WbOCrKN2Y7lxpKDqVD9vMtKVJWHZis8vXB5u9kSEkT97bkFZhp2R9pZVSmUDTZKUGqkUYKVlp66y+owtFAh0gjUkVdhMC5csgZ8OSgw27D83zOLpMvDJDaNANXU8fZj01dlib8bUFUWU8fxSopz6vNUbNDaqooRGCvufFrdLRXee5tlylZ2juVzVYuadZytdLWBtUgU3nlyjoa9NK07M7Fk75lpWD4zVbmkz7hcFOgv52jkE1yUoJIg4gsxZMnvO/vBtY5kEZYaEhsrjBZzO9OeCg/O1pishUo5nQdsklQdjy6mnKlcvTSm1zIqwvlqynxDsZeQNVKAvcWdW4VlbKnwvrnX18HbzA68hPqA9STh09PV1bX1GxwFnl6sX7GtUoOJ6i/OLFCz25sNj9CZD5RLiMZYHEYUg9v1BW5FQuIiBYtjT0+87ZOQqtKwjj8/NRMqEV0eGiaghXqDf5zcmUl8t6GqfG6mRt25Zn2djchk3c1XoQbolgrvw+WYQi5ew26yOorw6ekKC6mvt9OlhVPl/RfmqWuo/XiZqCrWKRcqDf7hnF96byciwk09RUpxyMne7A/b/MU7gYAxhiGJONRT2JSiciVY4MMTFc4upVdcsdxP4sLfn5vrjrcONBRM/7sLS17r3ux4U6WYizl0FaoRbanw3l/KUdhk3oxM+1OE+YblQ5NL25rgfrdhnWOylvKPFxd8XeFLmBDbWaZli/Dhi0tUd0D7LkaGvcWYCMGJoBKhW9vdrg4hwnKsJ0dxm/MMqCrV1PH+M/NEujWtpwLzqePvzs9te1bE3YRV5S9OzzHVaPj8S5scHyJCIRL2l/OdL207W9EfmgwXYg6Xcs0s3bLJKDAFPnRhkdol2nWvZxzC+8/Pk6QS3Cw3bsf18FqXcqaS8KnJ6ra7ueWM4UipB0lzGM2j6t0Fr/Q6riYaTA9OhL198fL6h9uAVXhwusaJSoOGtJfyvnxU/YV8fGJxRybx3YBV5WI15YMXFhEXBLcQ7vja7SP4qMxD5RxD+V3uKhgLfOl4D+3FOda+9BaqcGquwRdma92NlNBmVev49FQtlEG7cuFNCDNIVPnTY7PM1u22DlwjcHtfLxEFjMZ+w28TE/k1S5h3XIiwPNq3/ZHBC4njbU/NUUOxIbHXVtwxp8KJSoPHF6pXbIq5Hqhb5XefnGamkfgxoW2z3AYtnjPwqr29257sbTW2VHiLCPcPlThY9klMVUJvC5uTvhnaGyU8I5AKvPWZSabqdoPmuv5xqjw+V+fsksMFF8tlbpaX00BB+KgolYbjY+cqW6LJrYWqcstAEcn7IAZxhIowrVqAl3UdVwsFxZHGisnDrf35bZ38nMKHL1aYsDZESbS20K6kG4AvPlwR5R3Hp6k1C6fcmHhzySIPzzV84jTjtW6fez5r4faWzlaPfvP6QE981eqAbqnwJjirP3e45C9XgwAPNDucZGkVfaOI+uXHZN3yd+fmN2tuum6pWcc7T8+R5azLnOtawU6XhwSh0BDlAxMLLG5j7T0RYawY8yVjPRgU06zB6NmNBjJDRD7N88VDZUYLWQj19rCUWj50cQmfg9MiukXLcvHDL58I51PDY/O1bZ2ErmVUlc9NV3nfmQWcKg6Dqm9vv1WcPTppFfN+znCJwnYvwdZgy4W3AC8e66MkJmiLoehs24TVPLANVcWp8L4zCzyxUN+FQ3trcKo8sVDlmeoSDuenOKEpvC+bMHNmbm7n6gnvOT23rWaqnBG+dl8vZaMY9SkTdiuCr6BTNvC1+3rJbeOAdaq87+w8p5YaYZLzw1S1YwxdJgJEElGrpXx6pr6qeLreUeCphTr/44lJKjb10b9hKKw/mSmKwwn0YnjpWN+V3o7LZuuFtwhjxRyvOzxALGvtkHcmdm5dfsMp/9+T01yo7Uyu5GsNBT49s4i1FjU2szU0VylbgYSoyw9dXPKhwOt21stHQtTtXQM5RNqXobsTAe7qLzBWzILRth6nysV6yt+eW8CGHEHLuNKu0PbexDk+P1Nlupa2H3Hd4xSemq/z3x+bYqGh2JYRYGV7r4IAOVG++eggI4XtrQW7HqvL1iskNsLL9/V623fbdQlBjWwmqcpebPVIp3B+ocYfHJuiat22CZZrlZr1gQJBxAIW0Us0b2yw2aIAIszVGnz44vYGSBUi4SsPDBBF2iyFJiE74jVLW/O1n2ccwVfs79vmzHzCB88vMh9MWhr+61y8Zo/LIfMCM8YwU0v4y7Pz216P81rBqnK+lvJbj89ytuJw2raiVUVdW3hO1iQd/SASOFyKeMneXuL2imE7zLZ8swDlyPA1hwab5a+MyLJc3mvIFQgbBf80scRbnrhA3ekNI8CdKh84v8hE1Vs6RdUr3qHV2vrSst/xstj/DPsHkFXAXr3tVB2YmL8+vcC5arptm5eRCPcNlXnBnl5MWwzA5dZg3ClEgnoR+qwxwheN93DfUIlom87bKVyoJfzNmcUw/+qaE/dqfWAzaOhnqn5cJiifnK0zu0N5b64mTpXHFxr8h0cnOV1NSMRXRNLgDdCcENsbN5soQz9Q8a5Urzs0RKlZHPzqsC3Cm6B9v3Csl5fs6SMKqoMAsevUGNr+EheKFINV4cMXK/zvZyZZ2OZCr9cCPiBD+fuzi6gTjEZAbpmOpWGbt6koZE0nEGeFaRGMsxj1NfbWwn+WsOSUd59aINlGrwMBXntwmN5crk1gX9uCIjgdQDj/vtjw9QcHtzV9carKe07NsnQJ0Y9ZHzBGvPuikVa/WIfsGFVYaCiPz+9sbvKdxqryhbkav/XkBBO1Bmockt1koW10ZSLRWwiMLs+UmjPCK/b28rzRnm2bxDfLtglvwsV+002DDLdFHznTLq47Lj5b7otDsVgMf3tuid95cnJHcnJcVUQ4WUmYaKTerORy4EwrXgDvmtTZZIiixvFNNw9SzIdcC2JwZllDr0DEAIoVxydnlpisb5/mZUTYX8zxbUdHyRlf+Rw/pV+TZB6u2fnlRHj90UH2b6OtW4GZesqnppZadV7Dl61629ueFIGeWPi+20Y52pv3maU739BOeM1bMAWrjvefX9x0Po/dhKqSqvL+C0v82mMXmawnoBaj1gtrcaiu41XS1voC9OfhdTcNXBMtta3C24gwXoz5f44O0ZePUAkOguJdbVYnDJnga+kUPjVZ4ZceusAzCw3sZSSi3w2owscuLoV0nRI0P1n1FiltAxc4XIz48j19vGQ0jw/6i/0a3Dfimii+LSuJ5Y+enqVm1zn4ComM8KKxXl6xt5+cEW9G6zzoWiAT3KGPxkZ4+d5eXjreR7SNHia11PG/j8+wmPiCJqzm27/GIxJ4yVgvh3vyfMW+PkqFgu87mzhdUSVxKY/OLfHUfPW6sn1bVapW+d/H53nLM7MsWcFpGFESlES1q6xQw7gL7oAaxNVgIeb/vWMvI/l4W1dgm2WlZNhijAj3D5X5Z/v6MCJeqRSWzWir419XIFV4Yq7GLzx4jk9OegHX2dy7GVVYTB0fv1jBL5j9AGr5dft2yoZV+7I4F0W8Yt8gpTjiW46MM1iMQSIMBnFrT5KqPj2rUR8w80+zNT4/u72DNxb4hkNDHCwX8DGX6/eAHaFNCEr4W4MtFCPs7S3wTUeGtjWCzqry8FzNZ9dEml45rVXX8nbK5hARL7jHCjH//OgQBrhvsERfHGMkcwjIfq6kacdFaajj/RcXrpuIy8Qpk3XLf/rCFO87s0DD6bJkxKrO7/us1sDNNvOpEJz4zvt1h/q5va9wTQhudkJ4E3Znv/xAPy8Z6wkalyLZJsFaDaHLXcsSgUVt8FtPneOtx2ZYSq4fTxSrykcmlphPQxL4MKA6/4Ff5qrxHUpQ+vI5njXUAwrlKOIVe3txsUMlDhPB6gh+1WgwoEJVUv76wty2Dl4RoS9n+JG7xjhYyhOFEbNGD9gxovDwwiyckzEcLOf5ibtH6ctt7+aqU/j7cxUS581YarzWrJlHbQcaJnAngFhesbeXojFERhgpRDx7ICaKfMDJqoSn/evetqsS8eBslaV0e9MmbDdOFavKJ6Yq/MKDF3hkfokGDSwWpxZUcc6vbNr0pNbP0E+9+dGPMRXln+3v5WXbvPq6VHZEeIsIvXHEG24d5v6BYqj3ltk+2xpDTDilbDiFvhXC651G1FPD35yb41cfPc+xxfp1IcAbTvnI1BLWODBrC240bFgav6KJxHC0HLGvGGOCkv2S0TIDOT+offuuj6KY4Db26GyNj1yc39bBa0QYKcT84D0jHChfO1qMx690IjEcLub5sbtGGd2BJfKnJip8YaaOYEBa/b4d9YogBKGdGnBGGSzlePF4b8vbCHjNgX56IkGMWXuEB8GlKBZHQxLO1VMemavvWtu3U2UmsfzBsWl+64kJzjcSLEFByYSdit94y+rqrqiv669d1eefj0R5yVgP33homFJ70qZrgB07GxEox4YfvHOMw725tuRVwe832ECbpgLxb2qJkVYDW3U8Mlfhlx+b4H1n50nDbLsbUVUWUsfppUabe19roDYf2bSmENvwE/iagwNk5fMEv4R+/aHBsGm12ibMSlQgcqDO8I6TC0w3tndVExlhvJTj3943xqHeHLG5evZvWbY5qcSi3NST5yfuHWO8GG+rpuVUma6n/PGJORJtv1eCti+BsvsrwTVNLIIlEviWwyM+VD87VITRYsy9AwUi/Cq3PTd1R5cK3+NwKKnAe04t0dhlqZk1mEken6/zpgfP876zCyTq98tU1Zuf1F+r9+Ne+Q+Ct1aYBY0RjFqeO1Li+24do3gV++ha7JjwJmhdvTnDD94xyv6SH7TLCA2n2X/LHmF4KYDBacRMxfK/n17gNx+e4tRiQur8jdpNpAofOrdAoxHclNbbY1Tvahk5wSDc1l/k1t78siV9JMLzR8oc7s1h2MAPNUvAoy6kwoSZuuWDFxfXPoctIhZhtBDxxvv28qX7+sitGBx+QLUE6/agYfJCvBvYK/f18bP3jTNaiFb2zy1GgY9NVnxt0axvO8Bl4qTj+NC5DYYY4WhPnucOlVcMYoPygpEecpjwgW3G83bUu0TGGpG3EXlrOLWY8OT87iiTpkFpu1hL+N/HpnnzQxc4X/ERwxpWFeHApvxYj/YVZ4Rw30gv333zCKXIbPvq63LovO/bjhHhQE+ON943zoHyagLc/2i39a1sNv+MIDirfPbiIm/+zHn+/uwCFet2lRa+mFjef65CbEHsyislEzCoX+GBX9YKPHu4tCLHhohPDvaqfQOYzPSUtdiakrD1pFX481NzTIR6iduJEaEvNrzh5mG+7/YRBgsRkWlLHSvejODtj7LiAlompc7zDM9lP8Kv7R0p+9WbjISBQsT33D7CG24Zpi/e/sHqVJltWN59ct4rHdkLShiWbd/fdomZ8hKL8JV7+ikar223Y0S4eyDPSByFbIRZAyzHf4sgFnLOC2+s5XNT1VVH3bWEVfXRyNNVfvJz5/jLM/PUXMgFtMq1LiNrz46uo/g350S4d6jIj909zmgxt74CdBXZceFN6BYD+YgfumOYg+UcuWzDKLzuDCQRK1u4+af1D0mxUqcepcxJwh8cn+LND5/nkfkaNpT+upZRVR6db7CkBidu2YS1/MoVNYozSiNS0kiRCO4bKq46xHLG8JLxPm4ZCGW6wrKxeWx7h22uaHwkq0OpJY63n5hjG5MONhERckZ48VgvP3P/Xl443kMu8nZnEXCRwUnwWTdB2GR/QDA1BReRbHYLLSfiPTO88DfN9sx0fAPEkfKi8TI/e/8+XrbHJ5zqFIbbQeKUdxyfpZKkmbodstnRcYP8j+YZiS8td2dfkReP9ZJboyBET2x49cEeIiXYdFeiYZXnRLAiWAErlgdnqiQbSsCrQ7YheWKxzq8/foH//IWLLNX8BmTzlMW3m4RFR8dgamLCRCehLRCIjOF5I2X+5W2jFDsVy2uM6E1vetObOp/cCQToyxm+ZKzM0ws1JpIU8C6AzijWKMZ5raFzQe3f7QckYlAxOCOkwFTD8oGLVWYSx75ivO2eAleCA953epFjCz57nHehzGj7I/ihemOJ95F+znCRV+/vXzPKywgMFyI+OVnBqc+YFgUZB6srVs19BzVMVYVnjxQZyO9M+xkR+uOI54+Uub2/wGKiTCdQR3DGFzA2OD8JaYSKI4ksiIZo1DziYhCLmhTEYRCMZv0jwhm/iRcrFHKG+4aKfNctI3zVgQH6c2bNttxqnCrnqpa3PzNP3foJc3ma5NC/AxIik1W861YxF/E9N4+wr9QesbocI8JIMeYjkxVqm4nYDGHiKkoldRzuyXOgvPbnXw1cyEvynlPT/K8nLnK2luLUr0IdrSbLTnmtM5dMcBMGivhHZISXjpX53ttG6c9F16zGnXHVhDdBWMRGeN5ID2cbKWerSVNDFPUDL9tsaW0r+L+ynSbfwNkC0N85BU4uJXxsokIlddzWX2zzjb127kjdKn9ybJbFNG12QNXQ+7KLFbwWGdokUiUvwvfcOsKewtpLOgleHQ/OLjJTC4M3HNv+e9sz4TsgIsZa5clKnReP96wwzWwXEnLgjBVinj9a5kVjZVThYq1BbCFvDTHGu9K5hl+xqa9OrxIRIcTSIOdSYhVS4zCSo0AOQ4yJInpiePF4me+/fZQv3dvH3lIupBbYmWsEaDj4zSdmOVPxk7ZKZ1a/djXRa9oGsAZMHHFnX4HX3tS/YRk2I8JjCzXOVpPOl1q0BlXzCQVmU8tLxnu33Xy0EaqKIjSc8p5T8/zOk5N8Ya5G6rcGcGpanjjZvNd2SdlLyx6ZFS70ayOQi4RvuGmQbz48SPEatXF3clWFN6GD5Yxw70CJhlNOhw0Hv+TxvVYQNMywTbK7sOw20RR0qkrDOZ5cbPCJ6UUSVcaKOQphY2wnB+tqqCofm6zwkYmlpr7VDCJYcWrBH16VCOFgOcfX3DTgr2Wd64hEONpb4BNTFepZkEJnc7UT/JwFv+m1lDYYysOR3uKOduasT/TlDM8azPPisR5u6c0zlo8pRIbEOOI0pUweyYHNp5hIiGIhilN6JUfJ5CBvGSgUub2nyLOH83z5vjLfdKifl4yVGczHzUjPncQ65SOTVf7q7CJKiqoNq6EgebIuLbR+CT/UCP15ww/dPspwYTPVypXYCJ+YqCCSBf9s7nqrTnn+aA998c6svFYjdcpc4vjoxSq//8Qc/zhZoWqDF0lwIc7aJ9N5Omk27bInwi/BrDaUj/jWo0N82d4+CnG0433ichHdTqfeSyRxyt9dmOdtJ2aopz7Pru9uglHB78lLyAKWiZl22jWWDO+vqcaH6r/hyAj3DpQoRmblZukOkjjl5x46z9Nz9abG7S2emYBtvxYL4kuJxQiv3t/Pt90yvKnzT53ylqen+Nvz3nxCFlUWPtrf/uyPTPs1oI6iJBwpCj/5nFsp57aokstloOonL6eQOkfNOc4v1rm45DiXNpi0S9hEESdEEYzERcbzecb7Yg70FClFEVGwFWefdbWopI6ff2iCpxdrOJJsqdV5mEclW9wjITjrK/f18YYjQ5u694QYgh/99GnOLdWRKNp4Mw8Ab0L4rluH+fK9fdteq7MdVW86raSOB+dq/OnxBSarKc4Gk6oQjKutn6s2X7jOzEtS8NLdqzC+LY0RBnOGH75jlDvbVue7hWtKeBN2kR+Zr/FbT08xWUl9LgLnRbUGm6wlq+sXaF5Bx6UEISXZT8CI5eaePC/f289L9vRTjAyEQJWdwqlyupLypgcvUEl80Qm/Wdh2DkJbD8x0cy+83/zAAY72FTZlo1VVTlVS3vi5CyzZkGo268DNPDFhEPhpDiJw4ig6S59NeNmeIV5/18FNfd9O4ZfTvpk6hfF6r11NVOFPjk/zntOLpGHDXcPz4FMmNxEQTHPFqUbpzUX8wn37OLiOrbsTq8o7T8zyf07PXZIrbSQRd/QX+dkHxnbkvjv1A7VhlX+4sMDfX1jkVCVBrS/oopoZ/cVXsmkqOesQ8r5oU4j79wuCjYQXjJZ5w9F+xgrbH4i1HVx1s0kn3uaZ44uGS5yrW6brDtUIjLd/i2TNn7F2b/THLkeJmGson5+p8YmJRcQIA/mIUrRzy0NF+MRkhU9PVbHq3ZtWsOxUBDDk44i7B3tCYM7mzlVE6IkN5djwuflacwLM3i0iLVeUkFbWiGIQnBpSyXOmYbhroMxwYefaaCMkC+xa5XzWe+1q4SfsBm95epaaA4IHUQvjIyzDvUb83yISPCaVNxwe5oGh8iULmlIc8dGJJRK7+VWHosw0HM8dKTOQ314bsFVlom750MVF/vsTU3x0ospc3YezKzZEO3oJrCabmFcZ3B3497S0b9+/hVI+5rWHBviumwfoiXxagd3I+jseVwkjMFqI+ZHbx/iWQwMUciFyPriCtQZnNpeu/iBL+7gMv9hKVThbTXnr01P8zIPn+P2nJpiup9jgMredKMonJ5ZCfc/W883zXgMTF/iikZ5VzEXrExnhRXt6uKk3H97rG84L7jDJtY0FdQZ1BohJiZlPLO84Pb2iJbtsHgX+4tQc1TTrXz5Mu9nV2jRD/1v20688by2W+JLRS99ANCIc7MkxVowxG2xwdqI4Pj65tI56dPk4VVKnXKgm/O7TM/y7z5/nD47Ncq6W4tT5FaC4ZsoAh3gDaLY72Tb2M9rHvoQnmu0b3E3390f83P2jfM3BXmLjzUO7lWtO887INq1u7s1zR3+Bs/WEuVpY7i9bX7ajHQ9WEYmtvxXFKlTTlGNLDT58YYmzS3UiIwzmQ74QtnbpbZ13d/qzY9Mkmeze6OODoO0v5nntwT4GLtH9UUJGv54o4hMzdVBfpaejd0NY02T/mu+PDOerNYYLOQ735C9ZgNzoWFU+M7XEu07O0Wh35gdvwlLvAtreEdrvb2QivuPmYY72Xl7bRyH46qGZqt812uyqRKAmjheN9pDf7HvWIbNn16zy0HSd955c4G0n53hork4tlDz03TH0SQkeZc22aX+sZLVnDWDU51Z61YFevueWUfaUcjvmQbWdXNpUfBXIGeGegQJvvGuML9vfRynOhcRW3oSyTP0mi0bJHp2flj3RIfxFSB3MNpQPXmjwG4/N8jOfu8gHL1aYSx0N5xO6bwUO5VOTFRpZ+G44pVWnnKARI1573pNT9hcvzz4XifDCkRLPH8ps5WGJLmRdfI3uH+zxEvGeM3PMX0fZHHcCp0olVd51cp5G59KlecPXFkixwPNHSjx/5PLLr4kILx7vYTAfXdKAVxFO1OvMNGzoiJdHqkqSeY5cqPKmz07xG4/O8MGJJSaSBKs+xoMsGjSj6QO4OlnziXqj0/JjvSdRbIS95Rw/dPco33Z0mNFCfNnteK1xzWre7WRa+ANDeW7py3NiKWExaWBwvgZd8CgRWa4xejpv6mq4sKzyVsdGkjLvHJ+Yq/LRySVOLSaUjGE4HzU/6nK1kLpV/uxkCD8Pn7GaKFy+eaXkIsNrDwxwS0cuk0tD2FeM+fhkjcSFzcmm3VVXaaemIz2qsJQqdQfPGipd1gRyI2IV/u7MEh+bqGDDZttylk+amVaswXzYG0d8763DDF9hlfJIhOOLVU7XEhQTFIcNPk8cqbGUxXB3/6VNHi74Z1tVHp2v8c5Ts/zp8Xk+eL7CfJL6FK1iQ/bLEIjXXA0u/6yNvtWEfRz/NgnBbIae2PDVNw3wPbePcFNPjigcd72wK4R3hhFhrGh45d4eEMe5ap2a+mWnFybtGuT62uRysgROwdYGWBzOWZYSy+mlhI9eXORTUxUWU0chjihH3vXsUgfUVD3l7adnqYoLHW11JAxeowrGMlo0fMfR0eAdc3mIwFAhYqbhOLbo8Fultq2NpKO9HIggGs5ThJPVhFt68z66r+3ILqtzbCHhtx+bpo5Pb7ARWX8SIDaGV+7r4xV7L93W3YkADVU+M1MhtS3PrTWRELBvHFM14RV7ejfV91SVFDhTSfjo5CJveXqC956Z4+RiwlLaun4NHjReY16mqbT9vtYzyzFqMGKITIyKIRdF3DmQ5wfuGOFF472Uop33598JrjlXwc2gqiSqTDcsv3tsgscm6qQoabDVNi8oTOYS3tOqUyerWIyCO17oSxrEuIYIN9HMV1goRIbxYo4Xj5V4yXgPvTmfgU51fZfD1Cl/f2GR3zo2hZISuci7QYYTzuqhKgTPGh/WLibiRXt6+Fe3jm7av3c9llLl5x6c5PhiDSf1lj9x0x6btWBor+yaQgjx3X0FfvKevRQ2MZhvZBKn/PfHJvjkZIUUwXaolJ1DTwRQR059rvub+gu88b5xerYoj/TFWsKPfeYUC66E0boXimsNfyFM3paclPixu0Z59vDKYK3Mb94q1K3lE1MV/vb8PGdrjlqaoK7NZUCzlbH/DPUfEJSI7OmW5r1mT/dFjpatYRxKXCgwXIx4w039PGuwRE58IfTrlV2leWeICJEI5cjwguFeDpRyTNctc6nzlWBCh9JgM17ZPVsdqJMQn9n82wSvFjTUtMPbx+calkfnanzw4hJPzNWZbaQYEcohI13WPds187pV/uiZWabrFtFWzr+mbMz+DteY2e3jOM+r9/Vx9IpMJi0iIBfBZ2YrRE5xbq0VSvu+gXjTkoOZhiNvhNv7r7ViCtcOTpVPTlX4izPzYX9jY3xLOmKEvMnxusP93NJ/eZuUq5E3hgv1lGcqDnHeiLMm6rXigjMohsFCxP1DRQh906qSKkzUUz47XeO9Z+Z424lZPjKxxFQ9peEc2nndkm3i0CbAl/X65qGtI1bSzDwZzJyREUbLOb5ibw/fc2SQ23uL5MI+0fXMrtS8O3GqJAp/cWqWv75YYbGekLqsVmboBH6aD5WiZRXN27NMQ2++3x/fqvzja3Eqjsj53L8OiCM40pPjZXt6edZgid5cRD5USjDAscUGP/dPF6lbhxWvamdmmnZtQ4I5UnGoUcq5Ir94/x6fKMgfdsXUnfLmL1zgqZkKqZq2ACFtm7xsRxv46UaA3pzhjfft5XBPbsuEy/WCU2WqbvmZz59npu7zlmSt2j7YVht6ImBEuaunzL97YHxLVzdOlScXGvzswxdIkw0KdQTtNu+EJDLc0p/njfeNo0A1VY4vNvjQxSU+O13HWiXBIaKotEyPK5zClDYhHcaRalj1th/TQVsTiII4RxTFmNhQAO4bzvP6I8M+2IaW6el657oQ3hlO4Vy1wQcuVvjbMwtUnPVCUvHiVbN5PvMXXcnqwrsltAmRnjYSnHHkUp/xDXEkRolUKTjoyUfs6SlwX38P9w8VOdqX4+/PL/CWp2dwzq8K0M7Nq/CVzWWhopHyguE+fviOMQpZyZwtwAeNJLz5wXPMNrItX1YK72W0Ns0iY7h/qMxP3D3arOTTxWNV+cNjs/zt2XlsyNWducmti3jpVCwKv3D3fg6Vt07rzphPLP/h86c4VbHYNVLFQhgzIhgMaeQoieFL9/RxvJ5yZillqZZinENFSUWbpQqRttysq0mW5rjLxhMrhHf7WWko++Z3iJScE2IxxFHE88bLfOW+Xo70rFIX4AbguhLeZLvcCmerKe86Pc/n56rM1VPfIbzEhKaQbqfVmbx23i68WTb9a3BTVAmh5m028uxTDIKGjVQD7CvH1JzjQjXT/FfzPGgJbwQf7WhifvTOIZ57Ba5ia9FwytuOTfOXZxabmvdyTah1rp7gCaHh3BC++5YBXhkq4XQJ6R1ma7z54QlSZ0N7dfa1lYjQNJO9an8v33VkjPw2tGnDOn7n6fN88EINF4T3qucXhDf4fk44PbI8686n5/UvZDJZ/BtX+7wmG1zTKsLbGsGJEhHRbyLu7c/zmpv6ua0vj1lRgenGYZ2pd3diwqba/lLEv7x1iDfdM85Lx/soSEykEZHGCAYTKrR0PsB3Wgluh+0bLO0dT1XBObSZH6T1qgI2mFKsKo2Qy2Si1p5sv9XBs29ofnr4RYChYsyt/YVtuVE5I3zjkSH2luI2+/tqQ6F1dtm1qvqVwbvPz7OQdm7F3ZioQtUqf3JsxufiWEswduDbXIjwG+HfetPItk2GIvC80b5l93nVey6ZQtJWkQhQdbhQ4zJzw1ayLt1esmitx/p0nooAMYYSeb54uP//b+/NoyzJ7vrOz+/eiLfknlmVtXR1dVcv1a1uqVtoJI6EALFq2HwYkBkjkI0weA4tjG1mDIyPwBoQGIwMRoBhwIdtOJiDQNgeIWDYLeBYIOFudavVi3qt7tozsyr3t0Tc+5s/7o33Xr5cq+tldmVWfOq8ysx48Za4ce83bvzub+H9rz/CP73vMKfHKsH2vXb3m4rd0IQbAmsMVWu4dajCQ6en+P7XTfPlx4cZTcHG3rjuxK/bsDHruuMWr1PC4Ahh9/3PbI2iHK8Ldbvl0tIrRoCqEb7x1ARpx/bRLQi9MdLpNl7gQjvn/3nhKs18/V3EzUauyp+cX+aF5XbMgLk1/e2cGuGbbp8KeXbW7Hl9FBcQF+9K7x6pM1qxA/mMQfdLjRcFjQuRE9WELzs6zHtfe4h/ce84J4YSajY4LNzsHDizyWYUQQOzzYwPvzTPw1ebNHKP89F4ET1JgGiL7p1R90p1nIagXfPCRv2ocL+7DkSULz8xytefmKSeGCoSgi2QsEg6qP7b9sqPPn6ZJxdaMXoyHLdqvkasuwcatikelyp1tXzn6SneeriOvcb8GQeF3IfFwB/59Axtl6HG95Rl25he4TYC947VeO/rjlK7zkUE32Nfzz20fYgSPrPa4rH5Bp9aWOXCUjskfIvndE9koLhr6zt24hhTNJRDNKFQ+RunanzdyQmmqyn2FcRUHHRuGvHuJffKpWbO386t8mcXlpjJXEzwbvCqGOcR6fqESzQqhJbqFe+u0K3nOsVbQMWRJAljiWUsFaYrlruGa9w2UuHUcIXJSvA9j7t3XlhEm14LFxoZP/LpGWabeainqeHipFpcvAqk5xEkHDGcqqf8wOuPMFZ59fJ+v5pkXvm3T87x2NwqnnZsHbt194hnS2LJuvc9cIxb6mn/nhuiGhYJpfg9bncKl5s5Z5bbvLDS5sXVjMt5zoLzrLRzcA7jwftufpy9kIBOD1LtsY+H5jGEdLjWhAjgt986yhumhpiudvt3yXpuSvGmMxMPNsq/nlnhLy+v8OJKm6ZXrHoSzWgbwUlCxaXBbW9dU/V7Y/QzgI4ngok1LAnWeogVQI7UEm4bqnJyuMKJmjBdSxmrJIwmhnoxe9suki7iFD5ydoHfemkB72P+EokeOp3DXut1A+HuAIQE4c2Hh3jPvVMDdW/bD3hVfu/8Er/xwiLqHEoW74q2Fm8lzCaNgf/15ATvOLl1ql/vFWPCWspK7ljKPIuZY6bpeGmlxZnVnJeXQy6SNVMLCb94PKhHNLp8vgriLRpSWiCCikWNMG4STg9X+JJjw7zpcLEwv3XAW8lNLN695F5peeVyM+Oj5xb471damLYjFyWzBvHSTQESKWamvTOI4v/d6HKhH0cDTlzMUu+LLBXUqxVSYzDqqQjcUku4u55yfMRyYrjKkXollP0qIkbj4O0mmRIazvGDj13ixdU23veIN/03GEHEw+CP9lmFoUrKd9w9xpsPX3vO6f2KB15aafP+xy6xlIU7FYqalFslVoribYxwvGr44c85wWgM8NLC9KHB/bXlHLPNnJdXMp5fbvL8csZM2yFpBadKI8vJcgdFAe+e2Colboif2d24N0jhbSOhLYxYUpQktaQpfNn0EF98ZISJxJCakEiqZGeU4t2DRiF/eTXj8bkGn7rS4IlGEDJ1cSYTmysIly8MB4B2EmQFkR18J9zIFCJFPp++sZkAFfV448Aq49ZyKLFMVCqMVVPGagkTtWCSmUgMY6llyBrONzJ+/InLrOQej+uKd4EWn1TMrmPBgGiuOTZkeO9rj3K4dnCyt22GqtL2yk8/fZmH55rknRXp7p3SpuIdtb1mDQ+dPsRExbKcORYyz9V2zpWmYyn3zGeOq+02jQycD4uOoR5S8SbFNaJw49zAZBY67tptA2WjY+wdJ8EkksScQK8fqfHAVI37J2qMp4aktGe/Ikrx3oBgQxQyrzy33OQPzi7yfBOWmjm59+Ted6p7qIRCsAqocQgO/O6J9zWdLnGdb1HkTTExZ0BesbQrhooKFado7hgywnStwoVmm4W2Q0zw2V13JGsWY3tziysW5c2Ha7zn3iMksW5k0JZ177Lv6LUtew3eJX9+aYlfe34mpBjYJPBrM1RC8ikrYIzBC2TqUR/Pl3N4Y8iNglOsxlJp/Skf+v/upe/CPmiKxfzezxeAGANhjGG4kjKWGt4yWeHLjo8xnppOhr+D0C9eLUrx3oZCyGeaGc8uZ3x8psFjVxqo+uB65RNywIlDrcfgEF8k198be+LG6IbeMIkaEq+0rdA2QtVLKOoaRlwILsKvNZusO4S14k0chGEYgxXlH949yb1jVYasoW6EmrUYCQH2HVtrn+SEufv6bV3WfZFrpPtevZ/TOVcbfbaEAhrOK03nWXXKivOs5J6rmeM/nbnK1WaR5OkaBLzH5h3/JEdxJqykpE6xLng8ORviF0wxKej7iJ20yg6/1TUjhKyTKqFIitF4L2rhaD3hzYeGecPUELcNpQzZrVxQS66VUrx3SGEbVmC26fjE7CoPzzU4u6osOsglJ9cWiYDR7kLVq9e8PZ/bM2CKSonBQhqCKuJkHGLq1+6Rhu+/8XBbu1Wkp6SXxAr1Evx0rCo1Y6hZw6gxDKcJkgqVxFAzQsUaKiJUDBj1JCLhYSA1BmvDrXUVMHiSaKwK+4IneGwYPKIeUQkuoGJo2YRcwYmhpRJMD96R+1CGK48JljKFtg9pUxu5o+2hmTta3rOSeRq5J3ch3alHMbHmqY/53zutsdPTvYUAa5GTrKfPFb/cSOIdLrahzxg1WKMcH0o4PZryeUeGec14PZhE4ueXwj1YSvF+BRQ+4604E3vkSpM/vbTEOdcma3vIg4mxaNgbrYmLGe6abxVV+5UPr2KIdoNTtEc0ip+2JzDF2GK2Hka4KuQuePBoscYFIGFdwWoQbMFhFYZdE+MdXkxM+tim2vZYFVQMmbHMp3WcpDhjcBJzk6tbbxvu+Tv8iKYADUfUew41/l1EUXoBK1v7dG+F0m3/NVv7309iW90gGAl5RqaqlrceHuGt0zUO1VJqNlxMk1Ksd5VSvAeAi/bPl1fbPLvY5KmFFs8vt5ltOTLfDfa5Uei3nfd+u+sbbusUaB29gtkRUO1eNXbUVBrsqXXXxqrDSzD9IDkVpySekLpXLCtpDSfb+54XQhz+iEIpXZPQVnQugzv57hswuPbfG4Tgqvq1t07w+skat49UqdnoKdJ/USzZNUrxHiCFH26uwT76h+cW+e0zCzsT797+vm73ng2FTXWD8bHuZRvvtk5A95r+i8c1owooibpQaShmnVPxWK/YOGn1YsmMRQm52HdC//c6SEJUHFn3mHpm99tfdztIDOV/34PHOD1W1EQt2WturmiKXcZEH9VEhIoxtFyYoWxL31gqxpCJA00gVNWRELggUghYd//OuJNNFPsgIQJiyI2lbRPaJiE3CU4qtE2Vhq3StFXaJrkm4aZo757H/qboDOEhSCcnfX+/0U4g2M5wqpxbbZfC/SpSivcukXvlsflmN0BiB6gJBYGNUYzxGEIQTiIOyPEo4oJryM7f9SCzVpw2ftzMxICfzkNwKuQYMAmaglhPzSpG3Jr1iu3wCmdWilw4Ja8GpXjvAgrMtnIurOaY6Gq3tYxInCGmHK+kvGlqhLE0oVKtIJIipCAGYx3GZHEWXiz2dXVqI0+1gz20+oU6us30P24yiiMWFCOWRFKsqZCmVeq1KiP1CocqytsmR3jP3Uf44c85wbFqHRPXBvpNR/1otHmfW26Rb7Nvye5R2rx3AVXlb2cb/OyTs7TJQSWELG+mI0WotDV848kxvubEOG2nXG7lXGw4zq+2udhuMd9usbScM5sbcjHkXoOvuQDq15RXLrwSiuSixWk2YsLv8cuE7Vt0gXVPSXfjZsezDddt896P9B/uNbbdViacImAMQrFqE/OCCDCUGI7UKxyrpxyvJRyvGY4PVThStVStwUhIqvUTT87y+HyTLM86C7VbYYAjVfixN97GaLr9gnDJ4CnFexdQ4MMvLPKfX5qnlThMiDLfcryKhHwPP/zAUe4aqSHRJbHIdVHkA2/ljheWWzyz3OaZxTZnGzmrCiQJmYfMuZAcST0aTTbq4+8CVpJ1VxHVWEwh6nLxbPGdiyAdJQRjFBbTokZowVbH18tBFu/1gT50bofWVJ6BeB5io/e8riueRcMHx87CpdJHl0vnQi3HSppQTSwJSlXglopw92jC3WPBE2Q4sZiicG9xXntOVq7Kb5+5ykfPL9NqZ/FCsfXZFKAuOf/qdbdw3+TQlheXkt2hFO9dIPPKzzxxlb+bWyGzGfhYOqx/xx4hM0Y4VKvwo68/yuQ2aVV7Z85NpyxmngXnudLKOdvIudDIubja5uJqi0YWTq9EdzrNuwO3OPNOXdSXGOQCIEkYkD74VwuCI9TeVEClSO0ZLxCbHN8r5Vo65SA/97oR0CItgQqojVGIBuMdRsJFr6jLqBp93GM2eREwNhSaNoQLr6AhT7p4HIoV5Vi9yq3DdY7XEk7ULIerlomKZSwxDCUhYGqnepp5z6fmV/mpp+dotfIdiTdAlZyvv3WCv3/n4VK8XwVK8d4Fmk7514/McHa5hTN5HKQbD4ei06uBe8fqvPf+wwwnW4t3P2GCHUU0bhOEtvPMtnMuNjJmWjmXm54LKy2WMs+qC5GDTa+0Ys6OlJA7Q4HcgPdgVbA+2O1dDEjRKD7x0zufu9HxvVKupVMO8nOvmyjeTjxWDeItxhsMBotD1OMM5AIUFXNEYkozwVphSJThxDJshRFrmKpYjtUtx+sVjtYSjtYShpKuaaNz/CLIK/CzVlWuZjn//O/O0sx2diYFsOq4f6LK97/+1tLr5FWgFO9d4GIj470PX6aRObwJBbE2a2WRbvzwlx0b4dvvOkQ6wIFQpBaFMLid9+QavGGcQtM5rrYdl5s5l1baXFrNuNDOmXFCK2YLNBi8z8mdwzkfCldoCLMPsr/JwV0PhWlhOza5KL5qCDgcmVWqnhDRKQmSWioGKgJePc47alY4XE04Uq1wtFbhlnqFE/WU8dRQsTFFgEioIhPbuihofa0CvR25V/71py/ywsLOFyGtKoeqhh9740nG0t4EZSV7QSneA0aBj11Y4pefvUrmg/+sJ9QO3AhjDF49YoT33HOItx0e2fWcxuGUd8uoaSfkP1xknCqZV1ZyZTkmYVrJcxrOseo8S5lnJRM+NdfgcivHr8l/ssmBbkEQpvUbi9wra0Vh7Z7h8rKedd269z3iU/2fKT276QbR6TvFC5hU+LzJOocrlpHEMFKxjBSz6cQwmlqGE0va8SkPZhLTe16uwfRxvXiFX3nuCn96foEiF+W6NuzDoIyklh/8nFu4tZ7uLKahZGCU4r0L/PzTs/z1pRWcEjL09e/QgzHB+8NY4cc/5zgn6yn2BhkF2pMCNQhbMajBoTx2tclPPDlH2xfJzqPgblTceQMkekNMVCyq4U7AaVBQj4IRjIn5wiUG2/RE0ysaZrb9b1w8F5+RsHNHCJtFFkCITpphdpsaoWIEa4TnllrhDqP7luvoXZwUKW4VDGIMr5uo8j33HaZupVOYYrP2vBHwCh+7vMx//OwsuW4v3ACCp5JYvu+1x3hwIiyyl+wdpXgPmJZT3vvoJV5ebgYZ27Z5lbRSYTw1/PQbju2rEmJOld89u8SHzyzgnQ/CJDHn9CYl4taIVxTv777vCPeP14JHDSEFa1FE12u8K4ii7TW8cCcz4yCQYXZuJFx1jAR3SYPGJFnBcyOR4I3hFX712Tn+/OJSuJBsgaKIhLsrUQE1WEmYSBJ+8A3THKnaG+ZCvB1elWcWW/z4k7MstbJt25bYvgbh3XdP85W3DJcz7z1m/yjFPsCrspA5ljWkDdVCobbAGEu7nXFqZGjfZWEzInzlsWHuGqnGTOAbRAltgsaFz1Xn+c0Xr7CYBxvwsBXGUsN4xTJZsRyqWqZrKdOVhCPVhGO1hGPVhOP1hFu2eRyvhf2P1izTVct0LeFwLWWqEmb7Y6lhNDEM2TDjFuAvLy3xFxeXdxwY640LpjHxIEJFDN985zhHavtHuAPCZNVSuZbK9SKoV86uxLJvJXtKKd4DZiELOaDV9LjV9e8UKdwErbHcMWS3FfobDQFGE8P33XeIw7U0ijfxiLc4mPiURl+VMysZP/3UDM041RUJpobuI8yK1zxkB48N9jPxohNyxKx9zLVyfufF+Y79fycUM24vgk+E1xxOeevRoX3nfWEEJlJLXRwYRXaY60RRzjXa/ZtL9oBSvAfMbMvR8j0+GFuMYVUFVWqVlFPDyVa73rCICKOp4RtuGwuh2B1L807lL5hfnltq8YcXlujGCu4dClxt5fz0kzPMZ1uvUfQiCOINRsNdx61DCQ/dOUW694cwEFIj3DVaJTXdfO9bTT5UFY9yvtGi7XfaaiWDohTvAaLA2WaG8+vtvZsNAASq1nBom8CcG5nECF94tM6XHx+mghK8lneOxMCmD710lU9eWSHbdp1gcKiGijofObfIc0tt3DV/tgW1VE3Ku26bYmIfh4qrwr1jtWC7jqu8PdOQDREjLGU5c9HrqGTvKMV7wJxvZN1Fyr7OvFHXVlVSI0zsY/EGqBjhnaeGOTWSYNcf+lp6p3Q9aXCdV37lhTmuttyeCYEH/tvlBn94bvnahTt6v4DwDbeO84bx6j6zc6/FGOHO0SpiFC/hsf1VWFBxXGyGYLSSvaMU7wEiCOdX2njvQf3W95wREUMVz0hiOi5l+5UhK/zjew8xklqM2cG4j0hsO7xhrm34yc/OcaW9/u5l0DhVzixnfOjMfEjwFT2tw2Prby8SdhMLDxyq8VUnRkn3sXAXHK2mjNsiAGt7OQ4TdOVCo7VtXy8ZLKV4D5C298w2M0SL3BaxNwd1WodEk8PxqqF2Lav8NyjWCKdGUr719CFSu3HO8aIpeh/EG3QLiPO8sNTmQy8t0N6py8crwKtypeX4iccvs9i6Nm+J4J8tJArDRvjf7pqkZm4sv+1XSsUajtuEakyVsO0EJEbbXmpkG/bxkt2jFO8B4VWZa2Y0co/3hNk3fSaCPjSK16nhdGszwz5CgDdO1Xnb9M5noqrRawNP4j3iPH87u8pHzy2Q7ZKA5wq//dxVFlse40OV4e2+bcczJc44K9bwbXdNcbSa7Dvvks0wwERiSHLF+u0FoujaM+18W7/4ksGy3bkp2SEeuNTO8SYs8vQH5/TOMnu3ocrJoXRjdd+HiAg1a/jWu6a4f7xK0qmHsPnxhadDkI+Kx6oja+f8/sU2j88PvlpL5pX/cmaev5lZRb1iXTCYbEdxTjUsU/KWw0N8wfTIvrZz92MEhiuG3HtsnH1vd3QKLGQ5eelxsqfspM+W7ASFy60MF3v71rfQQco9wff41uF0m/33H1Ur/KM7pxhOFCGH7fyGBZSQjc9JKOa8srzKLz27wAvL2bUvJm6CU/jk3Aq/d36RjLA2ERzjCnHe/nNE4L6JGu++c+rARRUaEUaHEjQtUpJtNO1YizXCsldcvIsq2RtK8R4UAjPNDO+Dm5wpbIabImCqjA0NMVlJ+p88EJwcrvDPXnOMIZtgN8lBshYDPkSnegNOlNlGk1/47BxX29fvgeJUObPS4peemyHzOU48uYV2EvKTbyvcImBhZMjyzlOT1A/AOsVGjFdSTKUScrZv0yQAXg15pYYLQaYle0Qp3gPCq3K5mWF9CBQvZtLr5y2KoCQ4BMdoYndsG95vWBFeN1Hnq09Mgti+dAH9x1z8bVAN0akYj5ecl1eb/OxTMzTcenPUTvGqLGXKz312iZVMYwEKxRuPJ1QeWoPGyjfFxykYVRID33XHIe4cTve9d9BGKDCWJqH4Q/x7uxZXVVqZ7jiVbMlgKMV7QDiFhXYRnRfKpJhgC1jT+5Vg182s4mzGSJIdSBEoMAL/y8lx3npkOHiTdHKfrL+sdbeF7UWQukd5ZrnJh85c4dr8QgJelfnM87PPLHFuSfHadQXsBMJv9HXiZLv4aY3hK4+Ncv947cAsUPajqowkBpzHS4JGEd8aodHSTnqDkr1hJ2emZBtUFeeVhjOIWFDTyTO98RAXckkBGE38gbOb9mJixr533THJ8VqR89mEGEzZorp7Z3EwyGvulT+7uMRHz87TdtvYz/vIvfLb55Z4ZGEVJYuz7E26vobPLrxKiOlRKwKvG6/wrtunqJrundVBQ0QYtjbUQUVCO215rKHEXztzLAzAtFWyczbpwSXXilNo54J4wWy5Qi+glsSlJN4yZu0W+x4MrAkVY/6P+6eZroYEXM7GnN1bHb3SyZTiNXiJ/O7ZeT4+t7LjBUyvykfOL/EXlxfwNHDSiIuncc7d+zZxQ6i83pEuUoTRiuXb7j6M2XYxen8jQD0xWIntU1zBNiXmbnfK1bbfkY28ZDCU4j0ARASn0HJgdpQSVRHNIBFGqwfTdroRtw5Xeecdk1SMYNQHEdx0tBfSGdPMquC90s49v/zMZZ5caGwr4F6Vj8+u8Ltnr9LOMvAh5Ltre+/5jPiXQCjCHG3gBpisWP7pPdMcHbo5zlXNGKqShFbZetUdCIu9pmK4mvudZgQuGQCleA8IBdoh1qOTCnYjir4tEnJJjCYH09NkI4zA5x4a4lvuGKcW/as7OrqO8IyGxIsdfLxI/ofPXmCulW8q4Jn3PLnY4BeenaHtFPEG6w0SLO8979mR7GAxiY/gKAfWKl93+zj3T9ZumsGSGmFCaqRovIht3MbQ26Edy85tfi0uGTg3S3/cdVrehzze0rmR3JIg3qEQwCv1oNiPVKzhi46O8MVH6yTiMPhgY+7fcSMk5At3GC61lR95coazq9k6O6tT5VLT8QvPzNHIACdIXIcI5XliJYj+aWKPCV6jx9CXHB/lbcdGD+wC5UZYEYbEYsTEu5D+PTZAhaU9yEdT0qUU7wGgqqzknnYs3bW9EoXRYI2hbs1W85oDhwC1xPJt9xzh9HiKMbHWZJjuEn7dpEU83YIPajm3nPHLz11hJe++wqky3/b82ydmmVsO+bZFo+ePl1DzUsO8eiPPcwU0LkjeM17jnacOUT3IK8qbUK2EhZtt5t1dFFZLb5M9pRTvAaDAYu5iKazerRsTNCrMaOqJueluNQWwAt9xzzHGK1VEUgQbhFMcIhsntYLQrAYhcQbjPE/Pt/jJJ2dYbLtYwFj5+edmuLTqUJ9iiijBuIi8TobjomhYogxnzQgcG075ztesLSB8syACSZqTi+I7jbbxGdHYfkYMjaKOacmeUIr3AFCElbwY+hoznWzdjdUrrtGkGovg3mwYEY7WUv7lfdMcqqQIgo/+J1tRtDBx4dGr56n5Br/23BXm2zk/+/Qsj881Uc1xtoUXj8aLQee1GyBK2M8I9YrhPfdMcbia3HTCXZBYUONjX3abtlyh7T53NLNrc+EsuT5K8R4AqsqqCzkyQkffuhMr4CWE0ReFb29GrBHuGEl5913jVCUIuo9Cu6FmRqWIqb86m50qH59Z4fsfOc8nZlZwPlR191F0VF1wDxQfVLrnvUVAcAgZieZURXjorsPcOVw50P7325F2ErJv3ZcD4c6m4Uo/772kFO8BoEDThbD3TirYDQZ+d9ZIp0pJxd7cpyAxhjcervKuuycYMoItFi93qAHFbk6V2VYwnRAvqOH5LZ3uwzkRQW2KTat8/W0TvHGqTnoTnxeNi5aCxsRU2xHOmfPddi/ZfW7eHjpIBFpOIVaD3woN62Y4AWOIKVN3MkAOLlbgS46P8LYjo6Rq4+Q4tEnngrcFO9mnn07uGQnhOJIk/E9Tdb7u1rEDm2vmWgiOOLrxLGQd4ZYo82EMlOwNpXgPAoVcdc1tdq+gbCYuIXS87OwiQirwrjum+Pwjo6TYEOykRfGDLRYwrwMjBgjl5+4bS3jo7v1b+X3QeOGa5cHrpn5CJbvAtZ2dkk1xBANq7yxaC4thnyAIYLzFcLDzmlwLIkLNCt9y5ySnxyoYUQwapoC71EaKYkU5Ua/wXXcfZsge3Jwl10q+RoVDYNN2hIjZ/q0lu0Up3gOi6+La03vD3eSavyXuYhTs1ubYmw4jwlhq+Jevm+a28RQxYDw7D+LZAVKUMhPBGmE0Nfzz1xxmsmJvqkCcrRDCbES96Vmu3L5tgpiU6r1XlOI9ILo6vUkn79ncu2/Z1dciIowklu+4+zBH6ilpDKcZBB07twpG4FDV8l33Hub24Uop3H3keRFZubN2CabB4EFVsjeU4j0gumM/yPFmdu5eVG++AJ2dYARuH67y3tce5VCa7PCmfXuKxWQjQtUI33Rqkgcm6qXpqg9VZTX3GGKitZ10ZoG0XHzfU0rxHhC9M7dO1rreflwMgJ5BoGjpF7sJVmC6lvBP7puias1gRKGIzpRQX/PNh4ZK4d4IEZYlJKVKVDHKtuotIlRtWPwt2RtK8R4EEoJtini0HaFhkbMsHbU5iRHun6zy7aenqBQxI9eBAFYNX3HLCF84PUxSKveGOFUW1eMkJpoqgpu2QqFuzRYpfksGTSneA0BitfTC22T74PjQ8E4hKwMbtiVXxV9nEwlh1i3AsXoSiir071QC0dOklSlOFWfBx1xgG9ONbRhJ7GDukEp2RCneg0ChZkKxgEIiJG7v0Nen1YC1lnYZ2LAhCjSd548vLPGrz86R++vzIVYEF7PkfejFBf7s0hIt58sLZx+qGtollxB5KoX9b+s+GhaaSznZS8rWHgAiMGINqopI9I3Yxg1QjWKieJcCspZCQP5iZolff3Geprs+4e4iOJSl3PPrL8zz++cXaYd04iU9rDol15gDXUFiKt2tUFXG05unsMiNQCneA0CA0aSIBiy2bI1IiEhruLLuXz+5wu++fIVfffYKmfOdZFXXh4Io3oR0VVkOHzmzzG88N0/LlwvHBQqs5J7MGEQlVh/aqj8rYeldmardvFkYXw1K8R4ARoTx1ISoQCkySIem3agrK6GeV45nOXelx0MPK7nj156/yEfOXkWL9OgDFFZVRUM8LA3v+fNLS/zKs1dYzksTSsFS7nHx9nGnNmwBptKDX0z7RqIU7wFRs4YhEazXMMkrQuWlR8HjTwFEw2xvKY+FeG9ynCqZV37hmcv8xcVlvHZzcA8KjZGaAqg6PJ5MPR+7tMRPPjnLUu5v+hm4EWE5BuioFrm8Y0rdTRDAinK4ZsuJyB5SiveAqBhD3RgocnIUslP8Gh9KTEEKmLZjuZkNcmK5L3GqLLQ9H/zMDP9jpkHbGbyakO2PnsKS10mcTHZPjYb1Bq/KU/MNPvDEJV5uZJsWNb5ZWGw7vM8BxROKXmx8D9mlVhGGkq33KRkspXgPANVQWKBuJHT4bX1iFe+V1EGj6QY6u9xvZN5zYTXjhx67wMNzDTIvILZTq7IQ2DUUF8J1DVfMqwsR6VHqTSj28F55cjHjA0/NcLmZh/SmNyFeYb6VI+oQ0VjdaPs6q0O1JBRwKNkzytYeCIoFhqxBoqJ0ZKNPT4QQ7+CdQ0hYzuxNO9Pzqjy92OTffeY8FxoZmQE18b5FixbcQLgBEMQUBQPC9rBY1s0MKFLYbLdu37AgZ/B4LjQavO/Rl/kfsyu4ePG4mfCqLLUyEu/xuJgali1n3mJgNDEkZvt89iWDoxTvASAxL/dwElzRwsbwY7OunKY1PMrlldYGM8iDjWoIAPmrmVU+8JkZzjd8zMqoO4xRFUQTnICSk6iSkHC0XiM1YanYSOE/v5P3C0JvPRhnWWgrP/3ULB99eYH2zl5+YPCqNLOcVEOd1Z30TVWourwsLLLHlOI9IKyBo/UEQg2BtXfvPUgUewVaxnPe5yxlMQz5JsCr0vLw688v8IufvUrDGbyEbtj15s5BXKwt6dbkXlRCr80Th5cMjOC9403TNd7/4GE+b6pKNTVQrDyo2fhE9FDYvcMf4TW5Kh8+M8/PPz3DcuZunrsjEVYzF6Phu223dQvCiXqZmXGvKcV7UCjcUq90FtckbtuoO3cWylBWgM8uNnc0w9nv5F4518z54LNz/NHFRVpaFKyNi5I9duy+OsEdghVEMb5N6oO56q0nxvn201OMVwwPvWaaLz1aJ0lsNGbFd+lJjreuqfsutMU+bef55MwKP/mZy5xZbuM2sr8fMJq5Y76d4yAm493oLHQpHKpuH64Oal25ZIeU4j0oBE4OVxBs+HsT8emlEIknF1sbScqBou09Z1bb/NhTc3xitkEbRUWhSH7UQyHcfZrawSBUfEJVLW87MsZDp6eZrFiMCKkRvvnUIb7i6DBJYqO6SLgo9BR62Ulr+xgw9NRCk3/z2EWemG+SRY+hg4iqcm65yXI7Q4viw53byI3RaJ06OZQe3Ia5QSnFe0BY4ORQhYoIsoPVeeKQcMDjC82Q4+QA4rySe+Uj5xZ4/+PnubyyipKHmDyVsNql6xWxd4bc+amKek+CJZUKf+/kId5912EqPc7FIkLFCN90xyTvPDmGGOLsMSYMMxIShm9DIVkaE4gtZ56f+sxFfufFKzTdwfUHf3J+FRfbimjO2goBhq3l9uFKmaVxj9n+7JTsCBFhJLXcOlwJM8eeXBCbzSI1/reYC7PtgycIzivnGxkfePICv/XSHCtZhtccvFsn1ms3FDZrQygJECaAHkUM1FLLO06N8fdvH2fIbtyFK0b42hNjPHT3JPXUINYgxl7TrX0x6fTxsezgIy8v8FNPznB2pX3dmQ5vNHJVPjW7HO4uikyOWxyjiJAYw50jFWqlm+CeU7b4IFG4a6QSZmxRiEOYSfzXUz+xWJX33tNSONvI+95sf5N55b/PLPP+x87x6NVVUPASBDkoYkj2H6L4upGPoVW6fxWzZgi+9KNDNb799Dhfc9tI8CzZQo2twBdOj/Cv7p9mrGpIERJvQnrq/p37KHSrd/avgEN4+PICP/qZGf52doX8gORF8arMNHNm26GYWVHQbKNJB1G4i+2nx6ob71Syq5TiPVCUe8eqJIQ78530ZwUy53n4SnOrSc6+QFVxXjm3mvFLz1zml56ZYSlzuGCvAA05X8KdSfexJXEt0wjcMlzjPXdO8pbDQ9EtrX/n9VSs4Z6xKt9z72FurSdUncVocVG4NoqvKkmFK82Mn396hl97YZaZZn4gvFGeWWiw7BV3DalgEyPcO1bbZq+S3aAU74Ei3DacUjMe05NHYzu8Oh6+2gipT/epCOSqNL3yiblVfvDRi/zlxaVgG47Pq4a0oqJhTaBol7VtFOe3vY2mocTcRMXyz+6Z4k2HhrA9dy47IRHhNaM13vfAUe4YqWDj53TeIS5q7pTgKQQNp/zRhSV+5IkLvLDcCnmw+3feJ+Sq/OXlJTKCiQjWnZwNz0/VCMeG0pvCW+pGoxTvASIohysJowkUgcXbLNYHn29VFloZn7jSiMEq+wfVkJvk5dU2P/H0JX7uszMstXNy6RY/UI3/FbaHTY6xa07q1iKyRrh/vM4Pv/44d43UXnGHNQJjqeG7H5zic6fDBaBQJ6X4kteGAk4N5xs5P/T4y/zGCzM0cr/vbOFelWeWWjy+1CIXotlkfUsroclEFExwMzlSSzlcTbDlYuWes/4MlbxiRIThxPDgRA0r2klAtRUaRU3U81eXlvdVTg2vytV2zn8+P8/7nrzII/MtWurJxcWAGxP9cPq7WRDN3gnemiXK6IRSSSxfcmyc//N1R5iuhNJl14MITFQMD917mLcfH2XEJoha0J15B/UjhOyQKDQz5Y8uLPB9j5zlk1cbtPfRVThT+P1z89GPPTbUpriQE10USYTPmx7BbrV7ya7RP6pKBsDnHxvHGlDZwW20AOJRUZ5dajHTym/4BTCvStsrfzOzwg88eoHfeWmR1baCJyQxiu7BKsWEtvf2o1i+jb8XJouOYChGhIqt8O47D/GP75ygamRgMzsjQt0K/+jOSb717nFqSYaVDKuuG9Kz0+Yv1jVUUCxeUy41PB98ao4PPDXHQuZD+bYb+Hx6hYuNjE8vNOIWG91sNkHCrFyBYSt8/pH6VjeWJbtIKd4DRkQ4NVLn5HBlZyKgMfGpV9qZ4zdfDJVdbkQUaHvl0SstPvjELL/w7FVmWp7caadwQtDqmItb+yOVpLtI2TnEIOzhzzDlPlqv87/fe5gvPTpE1b6SpcWtEREq1vDWIyN8z2uPcdtQShWDVQkz6d4ooa0oIkKVuCAbxLDtMh65usT3PnqW/3p+gfnM35DRmarKcub45WdmuvU8t/uKmoAaDJbTo1XG0lJCXi3Klt8FUiPcNzGEGB9kacsBERbxTBS/RxaaPDrfxN1AAu5iTcmzK21+7okrfPAzczwy16DhfGdxSyhEOSjaeu3rukwWs2uR4DaoqiTWYI1weqzO+x84whsmq6QDmm1vRmqE147X+f4HbuG+sTqJc3ExNBYh0HUHsY7+4xRRlBxHxuVWk/905irf+9glPj3foulDW94oeODjl1c5s5DFuIT+i+1aRAyoYGOu9TdM1st8Jq8iojfadOAAoKp8ZqHBj37mAm0fagEW2zfCiCCEWpZqEu4Zq/O+Bw5T3WXx2g6vwXL90kqb//flKzx+ZZUVpygJHhOj8AA0+msXFCHvEmak8fcgdIV8x7jqwkxi4KtPjPE1J8YYS2OKgT1CVWnkyu+/tMjvnb1KW3K8enxw+uwsKm/Euq0x5N+LQxGsVrA+JRXh/omErz05xn3jNawZ/B3FteAVXlxu8e8fn+NKq4UzLiywa08+mB6UYnFdELFUU+EDrz/CLfXkmjx/SgZHKd67xGru+LHHL/DMQrsvL956QudXFA+aYMTw9uPDfMudE1Q3iSDcTVSVXOH55SZ/fGGev7q8EmTXhwCOmEF7zcLWWhNJPFqlIwTF/52XmCD4BjhSTXnnqUN83vQQEi9me41qOLa/ubzMb704w8VWGyTthFluNkzWb1UwvnOJwhuM2tBqIqgonztd46tPTHDXSIX0Gt0eB4FXZT7z/NCnL3NpJQd1OONB3ZbijQhODBbDV90yzLvvmNj1u6OSzSnFe5fwCo9dXeWDn77IqkpPUvtNiM8XFWQqRvknpw/xtqMje3JrGsQr5PF4erHJb790hTMrLVpOcd5jEPwm6VU7Haj/qb678K5IxchIFe4fS3jo3sNMVZMbQghyVeZaOf/hqRmeWWp3XR176B0ya45d12yBMG/vBCKFnDceMZAkhlOjKd94cpLXjNWwEmyYuy3kGrM7/sRTl/nUfAvvQLyixqM4dKtq8XHzaDXlxx48xtF6stmeJXtAKd67hKqykis//qlzPLPaxu0wWVVwmFOMKEOp8O47J/n8w6NUjNnag+sVUsyy51qOh680+eRsg2eXGzSdA0Lot4Q5c29Yyzo2O7aOXPeEU4sI45WUrzg2ylffOkLFhECcGwWnykru+aPzS3z07CIt71ER/AaeI/3i3X8Ua1Pbhp2Ubs6nirXcO17lzVPDvGGqxkTFUpSCHLSQe1UazvOrz1/mr2YaOA1JW0TAFzb+LaJPvXekieUt08N85z3Tr7pZ72anFO9dJPOeP7+wxK89N0ceq6FvTxBvYjBExSrfcuoQX3hklIpAOgAziqriNMwyr7Q8f3phmT+byWl6h8taIU2rRpv0zr50oG/fzsslVLchLhJO1xK++zXTnBxKB+YCOGhUFUV4cqHBLz8/z/mlBmoszvfY9juukJuLd/+2zu9C58UqBiMJdWN4+4lhvujoMJMVQzXmbhlEEzlVGk75xecu8rdzq7g4wxaNJiEJrp6db9hzLkXAxzWNejXlB+4/wumx6g11wb0ZKcV7l1l1nv/r0fOcWcp2WJCLOIDCjEhVsSI8MFnjy4+N8OBknarpsR0Xe28ykAoRCqMxDNSmVz41u8pfX27w7GLOsg/5VVQyxOSo+KhMyTrx2RJdO8NWFDVBE9JoKnnHyTH+5+NjjFf2dlHylaLAbDPjD84v8ycXFmn6EIAkrM11rWzuVbRh+wkgOeDDIiBJZyF4KLHcWbN8zkSVN0zXODmcYsTElZNwLneyLtCNFxAuNjN+5dk5HltYIY/5zS1hph2Oo+/7x2t3YfJx6kgqli86PsZDd0zt6PNLdpdSvHcZr/DJuRV+9qnZa8h9UYgtgMFoJ68TkxXL6yfqPDBR45Z6wnhqGEksVStrZkLBhi00nGc58yxkjrOrOU9cbfL41VVWslAtxWPIi4FsXLh9hhgZGQZ5rxxvScxDYooAd9Fg6xfhvtE633xqnHvGqsirtCj5SvHxTuXvrqzwG+fnON/IIDdYFxJthZpIr1S8IwpoEsq2iSHVEL0pFo4Np7x2os794xWO1hImUsNoajtrBL1BXRIv+rkq823HxWbOx+cafOziMm3ncXi8KIIJd0M+XhD6ZUCjDb74asBwLeGHHjzGbfV0V0x4JddGKd57QNt5fvyJizx+tUVOdzazM8Lw0firkRDBaESoGkiMUjUwZhKmjWXY5IBj0VeY97DoHG2vZKohZFvB48NdchyzYeanIdKzE13X+7N3CHfp/avYO6S8CKGHRjxpAv/g9im+eHqUWmJI9vGoz71nKVd+9+VF/vziEs6BF+2YFDZk03MdnujYxGNgkyB4kdCO8bIgYhAjGCOkAjVrGE8tJ+oJ01XLWGKpSnDeXPQw23a8uNpmpuVo5Urbdd0+w4f5kBIgfrbEi33/1zPxWwqQGPi62yd4x8lxkjJ39w1BKd57gKpysZHxbx6/xKVmjo+3qcEssnbfTaVtI/NzLFBgKIJ8oggTRmUIT1fEdIzPxWVgLUr00y6GcvEoKMS7+4L1wh1FRhWJ5cg+93CNrzoxxp3DwZtiM9POfkJVyRQen2/ykbOLPL3YpO3ybpsFJS727vk/IHHDmp99eIoL4PqzVewvIqSSYK3BiJCIx6ijHS8yDg0BQUU+MA2zbRBU/bpiIfSYvHu/vQBGlddNDfF9rz1CbQBrLiWDoRTvPcIDH7u0xC8+e4XcEQWwp+njrxsNZoqnN3xSMeoxCrlJUSyi4GwTK4rxW9uWw+mPH67SE3QbxWgDFI2RhF0MglNHNU2Yria8+45JHpyoY+TG8iQZFC7md/nDc4v8fxdXWG7ltDvrCwWFeAc3zE7L9ol3/yuKc735OQ+YWC9VNUwEwqXchUjInot9J4CqOL+9fa3nAtKNlpXwreMEYGKoxvfeNcG9E/UyJPsGohTvPaThPB86c5WPnluOA6hHwHci3utQwGFwGG8xbggVcLZNO8kwmFB4oGeWtZ4iQQfFPKvn9/WIhNl78b29xEK1wEg14RtuHecLDg8znoYZ4UHHq3KhkfMH55b42KXV4Bcv4MVjffAYcqI4A0m0U/WLdz9rxHtL+p36fHwQVxvjnVbv+e1EvHa/A1HXcwOJgvHhtd54rLX8i9OHeMvhIo1uyY1CKd57iGrwPvmZp2d45EpjbZ6LVyzehKJVnVlztJQaFwdq/wDfjt6917+yd/yqSJiZVS1vmarzjlvHmawkQTd6X3TAKezJT843+fBLSzy53Kbtc6wPsaiZCY+KhihVelt2M3P5jsS7v52LV3RNYOvfo/sKiX1SBfJ4g5Z44kVH8Eb46lvHeNftE1QOiNnrIFGK9x7jVVl1yr974hJPLTTJe1q/dya0c3q9HIrBFYtAdLa+skG32WAVQMSQSsIXHBniHbeNMJ4aEgF7Ey9m5V7JfChs8BsvzvHSUg4+eNxkJkZbFjtr/O+az/dOcPEsbX8uio/XuDppfOF5BF96yzjvvmNyVzI7llw/pXi/Cigw08z5v5+Z5YmFbgZBjb61usnt9F6xkWhL/N6JCGOp4U2HhnnbkWHuGq1govdLSbA/K8JK7nh4rsFfXlrm6YUmbVUwneXknhfEEz9Qehefd0axt8Rz/PlHh3nXHVOMVew1vEvJXlKK96tI03l+5rOz/N2V1Rh6HbYL/SN89+j9GOlxf+kVcAsYIwwlwpumhvj6k+McqiYHxoNkt9DoJvrIXIMPv7TA5XZO23uix2agJ/Wv9Or4XjRrcUWOZi7RkHPlK46O8M47Jl+VpGglO6cU71eZxczxx5eW+a8vXaHl8uh/G+dAvdGK13iatttbioEbP6e7f/CXKEKyDcKJoYS3Hx/l9ZN1pqu29PO9RrwqLa88vdjiv11aDsWmfQg5l6L0mC/avFgQ3m1CB+jpAgxXLN92xyHefKheugTuA0rxfpXROPl6fH6F3zwzy9mVjMyBkoCY4JN7LeIdRVc7/21MV7wtSIJKzHgnIVpwogr3jiR88fQYbzw0FD1KdhaWXbKeYE4JTX6ukfOnF1d4dL7BhWYDPIg3WB9WKTMTcoHvJioG64N3SpII94zX+IenprhjpLon2Q1Lrp9SvG8Qcq80veevL6/yX84tsdz2aKtNbkNEZUdrt6GYSW11WsPFIBaB0KDkYgxi4NRwla88PsyDEzWGE4OVYAMtGRyuxy7+8mqbP7m4yKNXVnF5Ds6TWXCkqC88rgdDEOQwr/colXqV6TTlH9wyzBunQsm50h1w/1CK9w1GrsrlZs7Dsw0+fbnB06tNmjHIg3iLHfQ2DLIQoNEdcGvEu8eGHfYDa8MClAGswpFawu3DFe4dq3J6vMatQ2nwGikH8a5TzMadwuVmxrOLTZ6ZX+Lp1RYXGuHuyyk4H7I8hjO59rx0zn3PuaanX2gMsw8Rm2AREqOcnhzmTVM13jRRZ6piSQaRurBkTynF+wak8FjIvef5pRZ/cXmFzyy2WFUh8+Cc4nyoMh8SI4X9Ye3YDulWBWMNFRsSGRmfM5UaHhyv8YaJGreNVEJ19ji4yyH86lAMQx+LPJ9dafOJ2RU+vdhmiYSm87S9knsPechsWLxGIaZcKErqBS03EnKwJ0ZIrTBklXuHUt5+fJQ7R6skxUJleaHel5TivU9YzBwzrZyZpuNc03GhlXOlHbIFNrKQfAoJgl01wkhimEwsh2oJR6qWYzEb3WTFMp6YWGi3/1NKbiRUg4llPnNczTwzrZzzTcellmOumbPQzmjkymruyb3iRahaQz0xTKSWQ9WE47WEkzXLsaGEo9WkrPZ+gCjFe59Q3GLTZwOVWOGlCNSTYsatwbpZ+KuEu+rwynLRcX8RvAm7s+z+54INPSAEk5ctQuN7bsbKWfbBohTvkpKSkn1IeQ9VUlJSsg8pxbukpKRkH1KKd0lJSck+pBTvkpKSkn1IKd4lJSUl+5BSvEtKSkr2IaV4l5SUlOxDSvEuKSkp2YeU4l1SUlKyDynFu6SkpGQf8v8Dw/zR78yHQfQAAAAASUVORK5CYII=;" vertex="1" parent="1">
          <mxGeometry x="-502" y="-93" width="91" height="79.35" as="geometry" />
        </mxCell>
        <mxCell id="9kiI-FGZhQjWvuLCRh8d-160" value="&lt;font style=&quot;font-size: 12px;&quot;&gt;React&lt;/font&gt;" style="text;strokeColor=none;fillColor=none;html=1;align=center;verticalAlign=middle;whiteSpace=wrap;rounded=0;fontSize=16;" vertex="1" parent="1">
          <mxGeometry x="-486.5" y="-20" width="60" height="30" as="geometry" />
        </mxCell>
        <mxCell id="9kiI-FGZhQjWvuLCRh8d-163" value="" style="shape=image;verticalLabelPosition=bottom;labelBackgroundColor=default;verticalAlign=top;aspect=fixed;imageAspect=0;image=data:image/png,iVBORw0KGgoAAAANSUhEUgAAAKIAAAClCAYAAADf9yajAAAAAXNSR0IArs4c6QAAAARnQU1BAACxjwv8YQUAAAAJcEhZcwAADsMAAA7DAcdvqGQAAA3mSURBVHhe7d1rcJblncfxb84Jp3AmknAuEAQpOG1nK9213ZnVup12p7tVX7TdF53udMd90cVZt9syO9odUTvO2Bkd2kGrdUXxAGsXV0BRKkcFjBA5CwlnOUVCCIFAEsi+uMgQ/uTw3Icnz/+6n/9nhgn53XnhY37c13247uvOaW9vb8eYDMuVgTGZYEU0KlgRjQpWRKOCFdGoYEU0KlgRjQpWRKOCFdGoYEU0KlgRjQpWRKOCFdGoYEU0KlgRjQpWRKOCFdGoYEU0KlgRjQpWRKOCFdGoYEWM08rfweu/lqlJQY49ThqTzz6CR7/r/v69uXDvPPkTpge2R4zDxUZ44cHr37/1W9j0p84/YXphRYzDS/8Bx/ffmD3/r3Bsz42Z6ZYVMapVz8LGN2QKly7A83PhSpvcYrpgRYxizwZY9CuZXldTBS8+JFPTBStiWE31PZeww5pF8N5zMjWCFTGsxQ/D0d0y7dpLv4Rda2VqOrEihrHy97D+VZn27I//BvXHZWqusSIGtXMtLP5Pmfbu1EFY9EuZmmusiEE01cNrD8s0dVXLYeljMjVWxICWPgaHd8o0mGVPwcYlMs16VsRUrX8NVr8o03Be+gUcrJZpVrMipuJETbxD6sVGeHmeu+htwIqYoqWPxX/Gu28zvGITIzpYEXuz8vew5S2ZxmPNy7BigUyzkhWxJzVVsHS+TOP16sNQvUqmWceK2JMl86Hlkkzj9/I8qDss06xiRezO0sdg93qZpsepg670WcyK2JXqVe56X1/66E03pSxLWRGllmZY+rhMe9ZvAAweJtPglsyH2q0yzQpWROntp+HwDpl2Ly8Pps2CqTOhuERuDebSBVjyqEyzghWxs4PVsPxpmfaso4D5+XDr7e5rFLvWxXvx3BNWxM6WPwMtl2XavfJxMGT49e9L+sHULwM5nX8quGVPZd0lHStih41vwOZlMu3ewFIYN1mmMHgojO8iD2rJfDh/RqaJZUXk2r3f5c/ItHsFBe64MKebPV/5OBg5WqbBHNmVVZd0rIhcG5KPpvroZw5MnQUFhXLDjb40ze01o/jgJVi3WKaJZEWs/cSdKadq3CQoHSzTm+Xkwq2zoahYbglmyXw4vk+miWNFfPtpuHpFpl0bMhwqJsi0e/kFUDlLpsE0nMqKITq7i7husZu+n4qiYphym0x7N2AgTJom02Cqlgc7hvVQ9haxqT71ITkn152chL1GWFYBw8tkGsyS+bD3Q5kmht9FPFkLezfKNDXvLHQzr1MxsRL6D5RpMJOnR7vzcqXNlbE1wHVOj/hdxAX/BM/8JPgv52QtvPcHmXZtRBmUlcs0uNxcmDbbfQ1r3+bE3nWJ8H8lw95dCIe2Q+MZePI+ubVn778AF8/J9Gb9B8LkGTINr19/t2eMYsUC+Pj/ZOo9P4t4YJubTNphz0b473/v/BPdO1id2t4wP7/ni9ZhDS+DURUyDWbJo/E/Q5Nhfhaxq+n7778AG16X6c3efz61yzWVX45+DbA7E6e6vWNYJ2rhzSdk6jX/ivjmb2DHGpk6C//FXXfrzu71sC6FNWsqJkDpUJnGp+N4MS9Pbknd2sWwdaVMveVXEU8d6H1YnfdXMrlu9QsyuVnpYHf3JN2KS2DCFJkGk6Bri34VcdVz0HRWpjdqPANP/VCm8MkK2NLLQX5hkbuPHHUaV6pGVcDQETJN3b4tiSmjP0Ws3eqKmIpt7958W2z1H2/8XsrJccNlQYHckl6Tp7tbgWG9/Uzq10MV86eIQR8seuu311f63/A67PhA/sSNJkx1t+P6Wn4BTI1wiaipPviscoX8eM/K9tXw5P0yTc1XvgMNJ6HmE7nlumGjoHKmTPtWzW449blMUzd3Edx+j0y94cceMcoyblXLey5hYRFMvlWmfW9iZbRbgJ4fK+ovYtNZt0dMlykzIC/kZIY45ea6B7HCnih5fuKiv4jbV/d+phzWyNHpvV4Y1IBBMGaiTFPn8YmL/iJ++r5M4lFY5O5waDNmApQMkGlqPD5x0V3EdA7LWoZkKSfHnUWHvcft6R0X3UVM17A8qlzXkCz1Hwijx8k0dR4eK+ouYjqG5cIid81Qu7GToCjkWbSHJy56i5iuYXnKjGiTDfpKbm60uZCrnoXGOpmqpbeIOz6If1guq9A9JEulg91/cxj1J9zxoid0FzFORSUwPuJsl0wYPwUKe3mYvzvrXoHLF2WqkuIi/lkm0Uye7seQLOXlwaSQjxecPODK6AGdRdzxQc8TXIMaNgpKh8jUH0OHu88QxppXwIPpBDqLuO1dmYSXkwsTYlidK9MmTAl3bfHITi/Wz9FZxE/fk0l4t4wJfxlEk6Li8CcuHgzP+op4bA+cjulVD3n5MDbCvVttxkwM91z0vi1usXjFQnyqNKupkkl4YyfqvI0XVkGh28OHoXyvqK+Ih7bLJJyikvC/NM0qxoc7+9+5Fra9I1M19BXxcExFHDfJnagkTX5h+PvQii9w6/tNxbFHLCyKvvqWZreMCfeP7JMVsGutTFUI8WnS6NheaGuVaXCjx4W71OGLgkIYNlKmqVG6V9RVxDiG5dzc8Jc5fBL2M370P/GeEMZEVxHjGJbLKsIdzPumdIh7r0sYCs+gdRUxyKvHupQD5eNlmFxhVxX7eLl73Zoiuop4+pBMghk20p2oZItR5eGOhZvq0zPpOAI9RbzaBmciPGAOMPIWmSRbfj4MSuFVG12Je3ZTRHqKGPW2Xm5uPK+q9U3/QTJJTdzzPSNSVMSIw/KgweHuw/quf8hHT+uPuzW5ldDzm4taxLB7Bt9FWThK0RtQ9RSxLuLQHGUpYJ/1i1DEXetkkjF6ihj1GLEkS4vItZOWMBQtT6KniBcaZBJMb28LTbK8kAt9Np+Hc6dlmhF6ihhVkuYdBhXls5/YL5OMSFARs+C2XneifPbjOobn5BQxlXenJFWUz257xJi1xjB9zFetLTJJnZITlgQVMcIvw3ctAV+K2dmFmJd1CSk5RWxqlEl2aIv4D/Bys0wyworouwtNMglGydo4CSpiCq+9TaLGiENrixXxRoMjPuzUfBHa2mSafOciFtH2iMLEWTIJruGMTJLvfMSR4JIV8UYTYihi3QmZJNvp43D1qkyDGVYuk4zQU8QxMbz96eyZeB5H9cWxgzIJrqJSJhmhp4j9SqFimkyDab8KX8S4rqJm5+rdcXFU5ToWttdTRGI6TjxxRCbJdLRWJuFYEbsQx/B88ULy94p1J+BcxGlzHcptaL5ZHEUEOLwf0L9cbyhXWuHAPpmGZ3vELsRVxEvNcDqhZ9CH9ke/rddh6l9AUcjVImKmq4iDRsCce2UazsF9yZsIUXcSTkZ89ruzr3xHJhmjq4gAd8RUxLZW+OzT5AzR5xtg/y6ZRjPjmzLJGH1FnPnXMP0vZRrOuQY4ekCm/rncDLur3eWpuIyfGf1yWYz0FRFgzn0yCe/oAb+PF5svwo6q+C/UT79TJhmls4h33AvlMb2urB2o2Qknjsot+jU1wvbNcPmS3BLdrTGNOjHRWcS8/Hj3iu3Agb3x3BLrK2e/gB0fp2dG0ey73SGQIjqLCPDNH8HImNc6PFwDn22HKxEeNkq31lao3eOOCaNOaOjOt/5RJhmnt4gDh8O3/1mm0X1xCqo/ggvn5ZbMam+Hk8dg20b3NV1n+7Pvdn+U0VtEgL/5qbvoGrdLzVC9yd2B0bB3bGyATze7PWG6n0ZUuDdEfREB7v6ZTOJz7BB8vN4dO6ZrGOxOezucOQ07q9yxYF/soZXuDQFy2ts9eIfqgp/Cpv+VabwKC91C8KPGhH9RdyraWuHU5+4sPh1nwz2Ztwwq58hUBT+KWFMFv/62TNNn6AhXyiHD5ZZwzp9zw+/5BrcXzITvPwR//wuZquFHEQFWLIBXH5ZpeuXlueXuSvq59ReL+7u9ZUEB5Oa7y0z5+W5GTEsrtF6GlhY3KeFSs3uyMK7pWlFMmwO/WiZTVfwpIsDCB2DDGzI1vVE8JHfQf7LS2c9+B2Ony9T05PsPqS8h3u0RwQ1/P9Hx5Jl6t98DcxfJVCW/9ogABUXwqK5XM6hU+XVvSoiXe8QOtVvhkbtkarj2iOjjG2Sqmr9FBNi/Bf7rb2Wa3YaUwdM7Zaqe30UE9yLsJ/5BptmpsBiePyZTL/h3jChNvxMe1Pfa1z5XPsXbEpKIInLtHurPX4x/2pgv/u5BeOJDmXrF/6G5s1MH4bVHoGq53JJcDyyEr/t/aJKsInZ48zfwpydlmizjboMfP56eaXIZkMwiAlS9Da8+Ev1lkxp99+fwvblQHPLNpAolt4gAZ0/Au8/Ce89BSx9PuUqHGXe640EPbtkFlewidji6G1Y9C2tellv8MHS0e2zingfklsTIjiJ22LvR7SF9OZkZPxO+cR/MuR8GDJFbEyW7ithh/xbY+g5sewc+j3Flrbjc9i34xv1wxw/klsTKziJ2Vr3KlXLrSjhXJ7f2nbHTYdZd7s/kr8qtiWdF7HCxEXb8GT7bBPs2weE+uF9bPtUthDT7LnVLgPQ1K2J36o64Y8o9H8KeDfBFDEuWVFTCl74KU74Gk78GZZPkT2QtK2KqLjRA3WE4fcR97fiTk+MWuywa4L4W94eSgVA6EkpHuDUfO/6en8anAz1nRTQqJGPSg/GeFdGoYEU0KlgRjQpWRKOCFdGoYEU0KlgRjQpWRKOCFdGoYEU0KlgRjQpWRKOCFdGoYEU0KlgRjQpWRKOCFdGoYEU0Kvw/CYO6kq2evqwAAAAASUVORK5CYII=;" vertex="1" parent="1">
          <mxGeometry x="-18" y="-1" width="54.1" height="55.1" as="geometry" />
        </mxCell>
        <mxCell id="9kiI-FGZhQjWvuLCRh8d-164" value="&lt;font style=&quot;font-size: 12px;&quot;&gt;Hono&lt;/font&gt;" style="text;strokeColor=none;fillColor=none;html=1;align=center;verticalAlign=middle;whiteSpace=wrap;rounded=0;fontSize=16;" vertex="1" parent="1">
          <mxGeometry x="-20.95" y="38.999999999999986" width="60" height="30" as="geometry" />
        </mxCell>
      </root>
    </mxGraphModel>
  </diagram>
</mxfile>
